{"glyphs":{"0":{"ha":850,"x_min":0,"x_max":0,"o":"m 425 -19 l 425 -19 q 163 83 258 -19 q 67 378 67 185 l 67 378 l 67 594 q 163 887 67 782 q 425 992 258 992 l 425 992 q 688 887 592 992 q 783 594 783 782 l 783 594 l 783 378 q 688 83 783 185 q 425 -19 592 -19 z m 425 147 l 425 147 q 563 208 525 147 q 600 367 600 269 l 600 367 l 600 606 q 582 717 600 667 q 526 796 564 767 q 425 825 488 825 l 425 825 q 324 796 363 825 q 267 717 285 767 q 250 606 250 667 l 250 606 l 250 367 q 288 208 250 269 q 425 147 325 147 z m 425 369 l 425 369 q 343 404 378 369 q 308 486 308 439 l 308 486 q 343 568 308 533 q 425 603 378 603 l 425 603 q 507 568 472 603 q 542 486 542 533 l 542 486 q 507 404 542 439 q 425 369 472 369 z"},"1":{"ha":850,"x_min":0,"x_max":0,"o":"m 792 0 l 92 0 l 92 175 l 367 175 l 367 881 l 342 881 l 250 547 l 75 547 l 75 564 l 192 972 l 550 972 l 550 175 l 792 175 l 792 0 z"},"2":{"ha":850,"x_min":0,"x_max":0,"o":"m 774 0 l 90 0 l 90 192 q 130 357 90 293 q 243 458 169 421 q 415 517 317 494 l 415 517 q 528 556 489 533 q 583 610 568 579 q 599 681 599 640 l 599 681 q 556 778 599 739 q 439 817 514 817 l 439 817 q 313 769 360 817 q 265 636 265 721 l 265 636 l 265 575 l 82 575 l 82 653 q 124 822 82 744 q 245 945 167 899 q 433 992 324 992 l 433 992 q 628 949 550 992 q 744 836 706 906 q 782 689 782 767 l 782 689 l 782 672 q 713 470 782 551 q 489 353 644 389 l 489 353 q 355 310 401 333 q 291 259 308 288 q 274 192 274 231 l 274 192 l 274 175 l 774 175 l 774 0 z"},"3":{"ha":850,"x_min":0,"x_max":0,"o":"m 439 -19 l 439 -19 q 249 26 329 -19 q 124 147 168 72 q 81 311 81 222 l 81 311 l 81 369 l 264 369 l 264 319 q 308 204 264 253 q 436 156 351 156 l 436 156 q 549 194 510 156 q 589 292 589 232 l 589 292 q 547 387 589 357 q 439 417 504 417 l 439 417 l 331 417 l 331 706 l 572 772 l 572 797 l 89 797 l 89 972 l 722 972 l 722 667 l 464 592 l 464 567 l 497 567 q 630 538 567 567 q 733 450 693 508 q 772 303 772 392 l 772 303 l 772 286 q 734 131 772 200 q 622 21 696 61 q 439 -19 547 -19 z"},"4":{"ha":850,"x_min":0,"x_max":0,"o":"m 669 0 l 486 0 l 486 183 l 53 183 l 53 436 l 322 972 l 669 972 l 669 358 l 811 358 l 811 183 l 669 183 l 669 0 z m 211 383 l 211 358 l 486 358 l 486 881 l 461 881 l 211 383 z"},"5":{"ha":850,"x_min":0,"x_max":0,"o":"m 442 -19 l 442 -19 q 242 23 324 -19 q 117 140 160 65 q 75 308 75 214 l 75 308 l 75 342 l 258 342 l 258 325 q 303 204 258 253 q 436 156 349 156 l 436 156 q 574 203 524 156 q 625 333 625 250 l 625 333 q 588 452 625 413 q 489 492 550 492 l 489 492 q 424 474 449 492 q 392 433 399 457 l 392 433 l 92 433 l 92 972 l 742 972 l 742 797 l 275 797 l 275 533 l 300 533 q 374 627 319 588 q 517 667 428 667 l 517 667 q 672 626 607 667 q 773 515 738 586 q 808 350 808 443 l 808 350 l 808 342 q 766 163 808 244 q 642 31 724 81 q 442 -19 560 -19 z"},"6":{"ha":850,"x_min":0,"x_max":0,"o":"m 425 -19 l 425 -19 q 251 22 329 -19 q 126 135 172 63 q 79 301 79 207 l 79 301 l 79 656 q 127 834 79 758 q 253 951 175 910 q 422 992 331 992 l 422 992 q 590 956 515 992 q 710 855 665 921 q 754 697 754 789 l 754 697 l 571 697 q 535 781 571 746 q 425 817 500 817 l 425 817 q 306 773 350 817 q 263 658 263 729 l 263 658 l 263 533 l 288 533 q 364 612 311 582 q 483 642 417 642 l 483 642 q 629 605 564 642 q 733 499 694 568 q 771 333 771 429 l 771 333 l 771 317 q 728 142 771 218 q 608 24 686 67 q 425 -19 531 -19 z m 425 156 l 425 156 q 542 198 496 156 q 588 311 588 240 l 588 311 q 542 424 588 382 q 425 467 496 467 l 425 467 q 308 424 354 467 q 263 311 263 382 l 263 311 q 308 198 263 240 q 425 156 354 156 z"},"7":{"ha":850,"x_min":0,"x_max":0,"o":"m 356 0 l 158 0 l 158 42 q 166 108 158 79 q 191 167 174 136 q 238 242 208 197 l 238 242 l 600 772 l 600 797 l 83 797 l 83 972 l 767 972 l 767 686 l 415 172 q 372 101 388 131 q 356 33 356 71 l 356 33 l 356 0 z"},"8":{"ha":850,"x_min":0,"x_max":0,"o":"m 425 -19 l 425 -19 q 238 16 317 -18 q 115 111 158 50 q 71 253 71 172 l 71 253 l 71 261 q 96 377 71 331 q 160 451 121 424 q 243 492 200 479 l 243 492 l 243 517 q 140 590 183 539 q 96 731 96 642 l 96 731 l 96 739 q 143 876 96 819 q 265 962 190 932 q 425 992 340 992 l 425 992 q 585 962 510 992 q 707 876 660 932 q 754 739 754 819 l 754 739 l 754 731 q 710 590 754 642 q 607 517 667 539 l 607 517 l 607 492 q 690 451 651 479 q 754 377 729 424 q 779 261 779 331 l 779 261 l 779 253 q 736 111 779 172 q 613 15 693 50 q 425 -19 533 -19 z m 425 592 l 425 592 q 529 624 488 592 q 571 704 571 656 l 571 704 q 529 785 571 753 q 425 817 488 817 l 425 817 q 321 785 363 817 q 279 704 279 753 l 279 704 q 321 624 279 656 q 425 592 363 592 z m 425 156 l 425 156 q 551 193 507 156 q 596 286 596 231 l 596 286 q 551 380 596 343 q 425 417 507 417 l 425 417 q 299 380 344 417 q 254 286 254 343 l 254 286 q 299 193 254 231 q 425 156 344 156 z"},"9":{"ha":850,"x_min":0,"x_max":0,"o":"m 431 -19 l 431 -19 q 260 16 336 -19 q 140 117 185 51 q 96 275 96 183 l 96 275 l 279 275 q 315 192 279 228 q 425 156 350 156 l 425 156 q 544 199 500 156 q 588 314 588 243 l 588 314 l 588 439 l 563 439 q 499 361 543 392 q 372 331 454 331 l 372 331 q 223 370 289 331 q 118 481 157 410 q 79 647 79 553 l 79 647 l 79 664 q 122 831 79 757 q 244 949 165 906 q 428 992 322 992 l 428 992 q 603 951 525 992 q 726 839 681 911 q 771 671 771 767 l 771 671 l 771 317 q 726 136 771 211 q 603 21 681 61 q 431 -19 526 -19 z m 425 506 l 425 506 q 542 548 496 506 q 588 661 588 590 l 588 661 q 542 774 588 732 q 425 817 496 817 l 425 817 q 308 774 354 817 q 263 661 263 732 l 263 661 q 308 548 263 590 q 425 506 354 506 z"},"A":{"ha":850,"x_min":0,"x_max":0,"o":"m 213 0 l 21 0 l 253 972 l 597 972 l 829 0 l 638 0 l 590 208 l 260 208 l 213 0 z m 413 881 l 299 383 l 550 383 l 438 881 l 413 881 z"},"Á":{"ha":850,"x_min":0,"x_max":0,"o":"m 213 0 l 21 0 l 253 972 l 597 972 l 829 0 l 638 0 l 590 208 l 260 208 l 213 0 z m 413 881 l 299 383 l 550 383 l 438 881 l 413 881 z m 493 1075 l 351 1075 l 424 1264 l 610 1264 l 493 1075 z"},"Ă":{"ha":850,"x_min":0,"x_max":0,"o":"m 213 0 l 21 0 l 253 972 l 597 972 l 829 0 l 638 0 l 590 208 l 260 208 l 213 0 z m 413 881 l 299 383 l 550 383 l 438 881 l 413 881 z m 425 1074 l 425 1074 q 293 1119 344 1074 q 242 1243 242 1164 l 242 1243 l 242 1263 l 367 1263 l 367 1254 q 381 1213 367 1229 q 425 1196 396 1196 l 425 1196 q 469 1213 454 1196 q 483 1254 483 1229 l 483 1254 l 483 1263 l 608 1263 l 608 1243 q 558 1119 608 1164 q 425 1074 507 1074 z"},"Ắ":{"ha":850,"x_min":0,"x_max":0,"o":"m 213 0 l 21 0 l 253 972 l 597 972 l 829 0 l 638 0 l 590 208 l 260 208 l 213 0 z m 413 881 l 299 383 l 550 383 l 438 881 l 413 881 z m 425 1025 l 425 1025 q 293 1070 344 1025 q 242 1194 242 1115 l 242 1194 l 242 1214 l 367 1214 l 367 1206 q 381 1164 367 1181 q 425 1147 396 1147 l 425 1147 q 469 1164 454 1147 q 483 1206 483 1181 l 483 1206 l 483 1214 l 608 1214 l 608 1194 q 558 1070 608 1115 q 425 1025 507 1025 z m 493 1286 l 351 1286 l 424 1475 l 610 1475 l 493 1286 z"},"Ặ":{"ha":850,"x_min":0,"x_max":0,"o":"m 213 0 l 21 0 l 253 972 l 597 972 l 829 0 l 638 0 l 590 208 l 260 208 l 213 0 z m 413 881 l 299 383 l 550 383 l 438 881 l 413 881 z m 425 -353 l 425 -353 q 332 -315 371 -353 q 293 -221 293 -276 l 293 -221 q 332 -127 293 -165 q 425 -89 371 -89 l 425 -89 q 518 -127 479 -89 q 557 -221 557 -165 l 557 -221 q 518 -315 557 -276 q 425 -353 479 -353 z m 425 1074 l 425 1074 q 293 1119 344 1074 q 242 1243 242 1164 l 242 1243 l 242 1263 l 367 1263 l 367 1254 q 381 1213 367 1229 q 425 1196 396 1196 l 425 1196 q 469 1213 454 1196 q 483 1254 483 1229 l 483 1254 l 483 1263 l 608 1263 l 608 1243 q 558 1119 608 1164 q 425 1074 507 1074 z"},"Ằ":{"ha":850,"x_min":0,"x_max":0,"o":"m 213 0 l 21 0 l 253 972 l 597 972 l 829 0 l 638 0 l 590 208 l 260 208 l 213 0 z m 413 881 l 299 383 l 550 383 l 438 881 l 413 881 z m 425 1025 l 425 1025 q 293 1070 344 1025 q 242 1194 242 1115 l 242 1194 l 242 1214 l 367 1214 l 367 1206 q 381 1164 367 1181 q 425 1147 396 1147 l 425 1147 q 469 1164 454 1147 q 483 1206 483 1181 l 483 1206 l 483 1214 l 608 1214 l 608 1194 q 558 1070 608 1115 q 425 1025 507 1025 z m 494 1286 l 353 1286 l 236 1475 l 422 1475 l 494 1286 z"},"Ẳ":{"ha":850,"x_min":0,"x_max":0,"o":"m 213 0 l 21 0 l 253 972 l 597 972 l 829 0 l 638 0 l 590 208 l 260 208 l 213 0 z m 413 881 l 299 383 l 550 383 l 438 881 l 413 881 z m 425 1025 l 425 1025 q 293 1070 344 1025 q 242 1194 242 1115 l 242 1194 l 242 1214 l 367 1214 l 367 1206 q 381 1164 367 1181 q 425 1147 396 1147 l 425 1147 q 469 1164 454 1147 q 483 1206 483 1181 l 483 1206 l 483 1214 l 608 1214 l 608 1194 q 558 1070 608 1115 q 425 1025 507 1025 z m 476 1253 l 379 1253 l 351 1381 l 351 1397 l 486 1397 q 514 1378 492 1378 l 514 1378 q 535 1387 528 1378 q 542 1408 542 1396 l 542 1408 q 528 1435 542 1425 q 494 1444 515 1444 l 494 1444 q 425 1425 457 1444 l 425 1425 l 389 1519 q 440 1540 413 1532 q 506 1547 467 1547 l 506 1547 q 615 1510 571 1547 q 658 1408 658 1474 l 658 1408 q 629 1322 658 1358 q 543 1286 600 1286 l 543 1286 q 501 1295 517 1286 q 479 1317 486 1304 l 479 1317 l 463 1317 l 476 1253 z"},"Ẵ":{"ha":850,"x_min":0,"x_max":0,"o":"m 213 0 l 21 0 l 253 972 l 597 972 l 829 0 l 638 0 l 590 208 l 260 208 l 213 0 z m 413 881 l 299 383 l 550 383 l 438 881 l 413 881 z m 425 1025 l 425 1025 q 293 1070 344 1025 q 242 1194 242 1115 l 242 1194 l 242 1214 l 367 1214 l 367 1206 q 381 1164 367 1181 q 425 1147 396 1147 l 425 1147 q 469 1164 454 1147 q 483 1206 483 1181 l 483 1206 l 483 1214 l 608 1214 l 608 1194 q 558 1070 608 1115 q 425 1025 507 1025 z m 293 1310 l 254 1260 l 153 1342 l 228 1436 q 282 1482 254 1469 q 344 1494 310 1494 l 344 1494 q 436 1453 399 1494 l 436 1453 q 472 1419 457 1429 q 501 1410 486 1410 l 501 1410 q 533 1420 519 1410 q 557 1444 546 1431 l 557 1444 l 597 1494 l 700 1415 l 622 1318 q 569 1274 597 1288 q 506 1260 542 1260 l 506 1260 q 453 1272 478 1260 q 406 1310 429 1283 l 406 1310 q 382 1333 396 1322 q 350 1344 368 1344 l 350 1344 q 318 1335 332 1344 q 293 1310 304 1325 l 293 1310 z"},"Ǎ":{"ha":850,"x_min":0,"x_max":0,"o":"m 213 0 l 21 0 l 253 972 l 597 972 l 829 0 l 638 0 l 590 208 l 260 208 l 213 0 z m 413 881 l 299 383 l 550 383 l 438 881 l 413 881 z m 544 1075 l 306 1075 l 189 1264 l 357 1264 l 417 1142 l 433 1142 l 493 1264 l 661 1264 l 544 1075 z"},"Â":{"ha":850,"x_min":0,"x_max":0,"o":"m 213 0 l 21 0 l 253 972 l 597 972 l 829 0 l 638 0 l 590 208 l 260 208 l 213 0 z m 413 881 l 299 383 l 550 383 l 438 881 l 413 881 z m 357 1075 l 189 1075 l 306 1264 l 544 1264 l 661 1075 l 493 1075 l 433 1197 l 417 1197 l 357 1075 z"},"Ấ":{"ha":850,"x_min":0,"x_max":0,"o":"m 213 0 l 21 0 l 253 972 l 597 972 l 829 0 l 638 0 l 590 208 l 260 208 l 213 0 z m 413 881 l 299 383 l 550 383 l 438 881 l 413 881 z m 357 1075 l 189 1075 l 306 1264 l 544 1264 l 661 1075 l 493 1075 l 433 1197 l 417 1197 l 357 1075 z m 749 1197 l 607 1197 l 679 1386 l 865 1386 l 749 1197 z"},"Ậ":{"ha":850,"x_min":0,"x_max":0,"o":"m 213 0 l 21 0 l 253 972 l 597 972 l 829 0 l 638 0 l 590 208 l 260 208 l 213 0 z m 413 881 l 299 383 l 550 383 l 438 881 l 413 881 z m 425 -353 l 425 -353 q 332 -315 371 -353 q 293 -221 293 -276 l 293 -221 q 332 -127 293 -165 q 425 -89 371 -89 l 425 -89 q 518 -127 479 -89 q 557 -221 557 -165 l 557 -221 q 518 -315 557 -276 q 425 -353 479 -353 z m 357 1075 l 189 1075 l 306 1264 l 544 1264 l 661 1075 l 493 1075 l 433 1197 l 417 1197 l 357 1075 z"},"Ầ":{"ha":850,"x_min":0,"x_max":0,"o":"m 213 0 l 21 0 l 253 972 l 597 972 l 829 0 l 638 0 l 590 208 l 260 208 l 213 0 z m 413 881 l 299 383 l 550 383 l 438 881 l 413 881 z m 357 1075 l 189 1075 l 306 1264 l 544 1264 l 661 1075 l 493 1075 l 433 1197 l 417 1197 l 357 1075 z m 221 1197 l 79 1197 l -37 1386 l 149 1386 l 221 1197 z"},"Ẩ":{"ha":850,"x_min":0,"x_max":0,"o":"m 213 0 l 21 0 l 253 972 l 597 972 l 829 0 l 638 0 l 590 208 l 260 208 l 213 0 z m 413 881 l 299 383 l 550 383 l 438 881 l 413 881 z m 357 1075 l 189 1075 l 306 1264 l 544 1264 l 661 1075 l 493 1075 l 433 1197 l 417 1197 l 357 1075 z m 731 1197 l 633 1197 l 606 1325 l 606 1342 l 740 1342 q 768 1322 746 1322 l 768 1322 q 789 1331 782 1322 q 796 1353 796 1340 l 796 1353 q 783 1379 796 1369 q 749 1389 769 1389 l 749 1389 q 679 1369 711 1389 l 679 1369 l 643 1464 q 694 1484 667 1476 q 760 1492 721 1492 l 760 1492 q 869 1455 825 1492 q 913 1353 913 1418 l 913 1353 q 883 1267 913 1303 q 797 1231 854 1231 l 797 1231 q 756 1240 771 1231 q 733 1261 740 1249 l 733 1261 l 717 1261 l 731 1197 z"},"Ẫ":{"ha":850,"x_min":0,"x_max":0,"o":"m 213 0 l 21 0 l 253 972 l 597 972 l 829 0 l 638 0 l 590 208 l 260 208 l 213 0 z m 413 881 l 299 383 l 550 383 l 438 881 l 413 881 z m 357 1032 l 189 1032 l 306 1221 l 544 1221 l 661 1032 l 493 1032 l 433 1154 l 417 1154 l 357 1032 z m 293 1318 l 254 1268 l 153 1350 l 228 1444 q 282 1490 254 1478 q 344 1503 310 1503 l 344 1503 q 436 1461 399 1503 l 436 1461 q 472 1428 457 1438 q 501 1418 486 1418 l 501 1418 q 533 1428 519 1418 q 557 1453 546 1439 l 557 1453 l 597 1503 l 700 1424 l 622 1326 q 569 1282 597 1296 q 506 1268 542 1268 l 506 1268 q 453 1280 478 1268 q 406 1318 429 1292 l 406 1318 q 382 1342 396 1331 q 350 1353 368 1353 l 350 1353 q 318 1343 332 1353 q 293 1318 304 1333 l 293 1318 z"},"Ä":{"ha":850,"x_min":0,"x_max":0,"o":"m 213 0 l 21 0 l 253 972 l 597 972 l 829 0 l 638 0 l 590 208 l 260 208 l 213 0 z m 413 881 l 299 383 l 550 383 l 438 881 l 413 881 z m 590 1040 l 590 1040 q 497 1078 536 1040 q 458 1172 458 1117 l 458 1172 q 497 1266 458 1228 q 590 1304 536 1304 l 590 1304 q 683 1266 644 1304 q 722 1172 722 1228 l 722 1172 q 683 1078 722 1117 q 590 1040 644 1040 z m 260 1040 l 260 1040 q 167 1078 206 1040 q 128 1172 128 1117 l 128 1172 q 167 1266 128 1228 q 260 1304 206 1304 l 260 1304 q 353 1266 314 1304 q 392 1172 392 1228 l 392 1172 q 353 1078 392 1117 q 260 1040 314 1040 z"},"Ạ":{"ha":850,"x_min":0,"x_max":0,"o":"m 213 0 l 21 0 l 253 972 l 597 972 l 829 0 l 638 0 l 590 208 l 260 208 l 213 0 z m 413 881 l 299 383 l 550 383 l 438 881 l 413 881 z m 425 -353 l 425 -353 q 332 -315 371 -353 q 293 -221 293 -276 l 293 -221 q 332 -127 293 -165 q 425 -89 371 -89 l 425 -89 q 518 -127 479 -89 q 557 -221 557 -165 l 557 -221 q 518 -315 557 -276 q 425 -353 479 -353 z"},"À":{"ha":850,"x_min":0,"x_max":0,"o":"m 213 0 l 21 0 l 253 972 l 597 972 l 829 0 l 638 0 l 590 208 l 260 208 l 213 0 z m 413 881 l 299 383 l 550 383 l 438 881 l 413 881 z m 494 1075 l 353 1075 l 236 1264 l 422 1264 l 494 1075 z"},"Ả":{"ha":850,"x_min":0,"x_max":0,"o":"m 213 0 l 21 0 l 253 972 l 597 972 l 829 0 l 638 0 l 590 208 l 260 208 l 213 0 z m 413 881 l 299 383 l 550 383 l 438 881 l 413 881 z m 476 1042 l 379 1042 l 351 1169 l 351 1186 l 486 1186 q 514 1167 492 1167 l 514 1167 q 535 1176 528 1167 q 542 1197 542 1185 l 542 1197 q 528 1224 542 1214 q 494 1233 515 1233 l 494 1233 q 425 1214 457 1233 l 425 1214 l 389 1308 q 440 1328 413 1321 q 506 1336 467 1336 l 506 1336 q 615 1299 571 1336 q 658 1197 658 1263 l 658 1197 q 629 1111 658 1147 q 543 1075 600 1075 l 543 1075 q 501 1084 517 1075 q 479 1106 486 1093 l 479 1106 l 463 1106 l 476 1042 z"},"Ā":{"ha":850,"x_min":0,"x_max":0,"o":"m 213 0 l 21 0 l 253 972 l 597 972 l 829 0 l 638 0 l 590 208 l 260 208 l 213 0 z m 413 881 l 299 383 l 550 383 l 438 881 l 413 881 z m 629 1075 l 221 1075 l 221 1217 l 629 1217 l 629 1075 z"},"Ą":{"ha":850,"x_min":0,"x_max":0,"o":"m 833 -236 l 722 -236 q 646 -210 681 -236 q 611 -132 611 -183 l 611 -132 q 615 -100 611 -118 l 615 -100 l 638 0 l 590 208 l 260 208 l 213 0 l 21 0 l 253 972 l 597 972 l 829 0 l 757 0 l 739 -78 q 738 -89 738 -85 l 738 -89 q 769 -119 738 -119 l 769 -119 l 833 -119 l 833 -236 z m 413 881 l 299 383 l 550 383 l 438 881 l 413 881 z"},"Å":{"ha":850,"x_min":0,"x_max":0,"o":"m 213 0 l 21 0 l 253 972 l 597 972 l 829 0 l 638 0 l 590 208 l 260 208 l 213 0 z m 413 881 l 299 383 l 550 383 l 438 881 l 413 881 z m 425 1072 l 425 1072 q 319 1116 363 1072 q 275 1222 275 1160 l 275 1222 q 319 1328 275 1285 q 425 1372 363 1372 l 425 1372 q 531 1328 488 1372 q 575 1222 575 1285 l 575 1222 q 531 1116 575 1160 q 425 1072 488 1072 z m 425 1181 l 425 1181 q 455 1192 443 1181 q 467 1222 467 1204 l 467 1222 q 455 1252 467 1240 q 425 1264 443 1264 l 425 1264 q 395 1252 407 1264 q 383 1222 383 1240 l 383 1222 q 395 1192 383 1204 q 425 1181 407 1181 z"},"Ã":{"ha":850,"x_min":0,"x_max":0,"o":"m 213 0 l 21 0 l 253 972 l 597 972 l 829 0 l 638 0 l 590 208 l 260 208 l 213 0 z m 413 881 l 299 383 l 550 383 l 438 881 l 413 881 z m 293 1099 l 254 1049 l 153 1131 l 228 1225 q 282 1271 254 1258 q 344 1283 310 1283 l 344 1283 q 436 1242 399 1283 l 436 1242 q 472 1208 457 1218 q 501 1199 486 1199 l 501 1199 q 533 1209 519 1199 q 557 1233 546 1219 l 557 1233 l 597 1283 l 700 1204 l 622 1107 q 569 1063 597 1076 q 506 1049 542 1049 l 506 1049 q 453 1060 478 1049 q 406 1099 429 1072 l 406 1099 q 382 1122 396 1111 q 350 1133 368 1133 l 350 1133 q 318 1124 332 1133 q 293 1099 304 1114 l 293 1099 z"},"Æ":{"ha":850,"x_min":0,"x_max":0,"o":"m 192 0 l 0 0 l 232 972 l 819 972 l 819 797 l 581 797 l 581 575 l 811 575 l 811 400 l 581 400 l 581 175 l 828 175 l 828 0 l 397 0 l 397 208 l 239 208 l 192 0 z m 372 797 l 278 383 l 397 383 l 397 797 l 372 797 z"},"B":{"ha":850,"x_min":0,"x_max":0,"o":"m 490 0 l 64 0 l 64 175 l 156 175 l 156 797 l 64 797 l 64 972 l 490 972 q 704 900 631 972 q 778 719 778 828 l 778 719 l 778 703 q 731 569 778 619 q 614 500 685 519 l 614 500 l 614 475 q 731 405 685 457 q 778 271 778 353 l 778 271 l 778 254 q 704 72 778 144 q 490 0 631 0 l 490 0 z m 339 797 l 339 575 l 472 575 q 567 600 531 575 q 603 682 603 625 l 603 682 l 603 690 q 567 772 603 747 q 472 797 531 797 l 472 797 l 339 797 z m 339 400 l 339 175 l 472 175 q 567 201 531 175 q 603 283 603 226 l 603 283 l 603 292 q 567 374 603 349 q 472 400 531 400 l 472 400 l 339 400 z"},"Ƀ":{"ha":850,"x_min":0,"x_max":0,"o":"m 490 0 l 64 0 l 64 175 l 156 175 l 156 217 l 64 217 l 64 358 l 156 358 l 156 797 l 64 797 l 64 972 l 490 972 q 704 900 631 972 q 778 719 778 828 l 778 719 l 778 703 q 731 569 778 619 q 614 500 685 519 l 614 500 l 614 475 q 731 405 685 457 q 778 271 778 353 l 778 271 l 778 254 q 704 72 778 144 q 490 0 631 0 l 490 0 z m 339 797 l 339 575 l 472 575 q 567 600 531 575 q 603 682 603 625 l 603 682 l 603 690 q 567 772 603 747 q 472 797 531 797 l 472 797 l 339 797 z m 339 217 l 339 175 l 472 175 q 567 201 531 175 q 603 283 603 226 l 603 283 l 603 292 q 567 374 603 349 q 472 400 531 400 l 472 400 l 339 400 l 339 358 l 447 358 l 447 217 l 339 217 z"},"C":{"ha":850,"x_min":0,"x_max":0,"o":"m 428 -19 l 428 -19 q 164 83 261 -19 q 67 378 67 185 l 67 378 l 67 594 q 164 887 67 782 q 428 992 261 992 l 428 992 q 692 894 601 992 q 783 631 783 797 l 783 631 l 783 606 l 600 606 l 600 631 q 585 722 600 676 q 532 796 569 767 q 428 825 494 825 l 428 825 q 327 795 367 825 q 269 716 288 765 q 250 608 250 667 l 250 608 l 250 364 q 290 208 250 269 q 428 147 331 147 l 428 147 q 536 175 499 147 q 587 247 574 203 q 600 342 600 292 l 600 342 l 600 367 l 783 367 l 783 342 q 692 75 783 169 q 428 -19 601 -19 z"},"Ć":{"ha":850,"x_min":0,"x_max":0,"o":"m 428 -19 l 428 -19 q 164 83 261 -19 q 67 378 67 185 l 67 378 l 67 594 q 164 887 67 782 q 428 992 261 992 l 428 992 q 692 894 601 992 q 783 631 783 797 l 783 631 l 783 606 l 600 606 l 600 631 q 585 722 600 676 q 532 796 569 767 q 428 825 494 825 l 428 825 q 327 795 367 825 q 269 716 288 765 q 250 608 250 667 l 250 608 l 250 364 q 290 208 250 269 q 428 147 331 147 l 428 147 q 536 175 499 147 q 587 247 574 203 q 600 342 600 292 l 600 342 l 600 367 l 783 367 l 783 342 q 692 75 783 169 q 428 -19 601 -19 z m 493 1075 l 351 1075 l 424 1264 l 610 1264 l 493 1075 z"},"Č":{"ha":850,"x_min":0,"x_max":0,"o":"m 428 -19 l 428 -19 q 164 83 261 -19 q 67 378 67 185 l 67 378 l 67 594 q 164 887 67 782 q 428 992 261 992 l 428 992 q 692 894 601 992 q 783 631 783 797 l 783 631 l 783 606 l 600 606 l 600 631 q 585 722 600 676 q 532 796 569 767 q 428 825 494 825 l 428 825 q 327 795 367 825 q 269 716 288 765 q 250 608 250 667 l 250 608 l 250 364 q 290 208 250 269 q 428 147 331 147 l 428 147 q 536 175 499 147 q 587 247 574 203 q 600 342 600 292 l 600 342 l 600 367 l 783 367 l 783 342 q 692 75 783 169 q 428 -19 601 -19 z m 544 1075 l 306 1075 l 189 1264 l 357 1264 l 417 1142 l 433 1142 l 493 1264 l 661 1264 l 544 1075 z"},"Ç":{"ha":850,"x_min":0,"x_max":0,"o":"m 506 -294 l 506 -294 q 440 -287 467 -294 q 389 -267 413 -279 l 389 -267 l 425 -172 q 494 -192 457 -192 l 494 -192 q 528 -182 515 -192 q 542 -156 542 -172 l 542 -156 q 535 -134 542 -143 q 514 -125 528 -125 l 514 -125 q 486 -144 492 -125 l 486 -144 l 351 -144 l 351 -128 l 375 -17 q 149 99 232 -1 q 67 378 67 200 l 67 378 l 67 594 q 164 887 67 782 q 428 992 261 992 l 428 992 q 692 894 601 992 q 783 631 783 797 l 783 631 l 783 606 l 600 606 l 600 631 q 585 722 600 676 q 532 796 569 767 q 428 825 494 825 l 428 825 q 327 795 367 825 q 269 716 288 765 q 250 608 250 667 l 250 608 l 250 364 q 290 208 250 269 q 428 147 331 147 l 428 147 q 536 175 499 147 q 587 247 574 203 q 600 342 600 292 l 600 342 l 600 367 l 783 367 l 783 342 q 703 88 783 181 q 472 -18 624 -6 l 472 -18 l 463 -64 l 479 -64 q 501 -42 486 -51 q 543 -33 517 -33 l 543 -33 q 629 -69 600 -33 q 658 -156 658 -106 l 658 -156 q 615 -257 658 -219 q 506 -294 571 -294 z"},"Ĉ":{"ha":850,"x_min":0,"x_max":0,"o":"m 428 -19 l 428 -19 q 164 83 261 -19 q 67 378 67 185 l 67 378 l 67 594 q 164 887 67 782 q 428 992 261 992 l 428 992 q 692 894 601 992 q 783 631 783 797 l 783 631 l 783 606 l 600 606 l 600 631 q 585 722 600 676 q 532 796 569 767 q 428 825 494 825 l 428 825 q 327 795 367 825 q 269 716 288 765 q 250 608 250 667 l 250 608 l 250 364 q 290 208 250 269 q 428 147 331 147 l 428 147 q 536 175 499 147 q 587 247 574 203 q 600 342 600 292 l 600 342 l 600 367 l 783 367 l 783 342 q 692 75 783 169 q 428 -19 601 -19 z m 357 1075 l 189 1075 l 306 1264 l 544 1264 l 661 1075 l 493 1075 l 433 1197 l 417 1197 l 357 1075 z"},"Ċ":{"ha":850,"x_min":0,"x_max":0,"o":"m 428 -19 l 428 -19 q 164 83 261 -19 q 67 378 67 185 l 67 378 l 67 594 q 164 887 67 782 q 428 992 261 992 l 428 992 q 692 894 601 992 q 783 631 783 797 l 783 631 l 783 606 l 600 606 l 600 631 q 585 722 600 676 q 532 796 569 767 q 428 825 494 825 l 428 825 q 327 795 367 825 q 269 716 288 765 q 250 608 250 667 l 250 608 l 250 364 q 290 208 250 269 q 428 147 331 147 l 428 147 q 536 175 499 147 q 587 247 574 203 q 600 342 600 292 l 600 342 l 600 367 l 783 367 l 783 342 q 692 75 783 169 q 428 -19 601 -19 z m 425 1065 l 425 1065 q 332 1103 371 1065 q 293 1197 293 1142 l 293 1197 q 332 1291 293 1253 q 425 1329 371 1329 l 425 1329 q 518 1291 479 1329 q 557 1197 557 1253 l 557 1197 q 518 1103 557 1142 q 425 1065 479 1065 z"},"D":{"ha":850,"x_min":0,"x_max":0,"o":"m 417 0 l 64 0 l 64 176 l 156 176 l 156 797 l 64 797 l 64 972 l 417 972 q 684 888 596 972 q 772 628 772 803 l 772 628 l 772 344 q 684 85 772 169 q 417 0 596 0 l 417 0 z m 339 797 l 339 175 l 417 175 q 551 220 513 175 q 589 361 589 265 l 589 361 l 589 628 q 551 754 589 711 q 417 797 513 797 l 417 797 l 339 797 z"},"Ď":{"ha":850,"x_min":0,"x_max":0,"o":"m 417 0 l 64 0 l 64 176 l 156 176 l 156 797 l 64 797 l 64 972 l 417 972 q 684 888 596 972 q 772 628 772 803 l 772 628 l 772 344 q 684 85 772 169 q 417 0 596 0 l 417 0 z m 339 797 l 339 175 l 417 175 q 551 220 513 175 q 589 361 589 265 l 589 361 l 589 628 q 551 754 589 711 q 417 797 513 797 l 417 797 l 339 797 z m 544 1075 l 306 1075 l 189 1264 l 357 1264 l 417 1142 l 433 1142 l 493 1264 l 661 1264 l 544 1075 z"},"Đ":{"ha":850,"x_min":0,"x_max":0,"o":"m 417 0 l 64 0 l 64 175 l 156 175 l 156 403 l 64 403 l 64 569 l 156 569 l 156 797 l 64 797 l 64 972 l 417 972 q 684 888 596 972 q 772 628 772 803 l 772 628 l 772 344 q 684 85 772 169 q 417 0 596 0 l 417 0 z m 339 403 l 339 175 l 417 175 q 551 220 513 175 q 589 361 589 265 l 589 361 l 589 628 q 551 754 589 711 q 417 797 513 797 l 417 797 l 339 797 l 339 569 l 475 569 l 475 403 l 339 403 z"},"Ḍ":{"ha":850,"x_min":0,"x_max":0,"o":"m 417 0 l 64 0 l 64 176 l 156 176 l 156 797 l 64 797 l 64 972 l 417 972 q 684 888 596 972 q 772 628 772 803 l 772 628 l 772 344 q 684 85 772 169 q 417 0 596 0 l 417 0 z m 339 797 l 339 175 l 417 175 q 551 220 513 175 q 589 361 589 265 l 589 361 l 589 628 q 551 754 589 711 q 417 797 513 797 l 417 797 l 339 797 z m 425 -353 l 425 -353 q 332 -315 371 -353 q 293 -221 293 -276 l 293 -221 q 332 -127 293 -165 q 425 -89 371 -89 l 425 -89 q 518 -127 479 -89 q 557 -221 557 -165 l 557 -221 q 518 -315 557 -276 q 425 -353 479 -353 z"},"Ḏ":{"ha":850,"x_min":0,"x_max":0,"o":"m 417 0 l 64 0 l 64 176 l 156 176 l 156 797 l 64 797 l 64 972 l 417 972 q 684 888 596 972 q 772 628 772 803 l 772 628 l 772 344 q 684 85 772 169 q 417 0 596 0 l 417 0 z m 339 797 l 339 175 l 417 175 q 551 220 513 175 q 589 361 589 265 l 589 361 l 589 628 q 551 754 589 711 q 417 797 513 797 l 417 797 l 339 797 z m 629 -228 l 221 -228 l 221 -86 l 629 -86 l 629 -228 z"},"Ð":{"ha":850,"x_min":0,"x_max":0,"o":"m 417 0 l 64 0 l 64 175 l 156 175 l 156 403 l 64 403 l 64 569 l 156 569 l 156 797 l 64 797 l 64 972 l 417 972 q 684 888 596 972 q 772 628 772 803 l 772 628 l 772 344 q 684 85 772 169 q 417 0 596 0 l 417 0 z m 339 403 l 339 175 l 417 175 q 551 220 513 175 q 589 361 589 265 l 589 361 l 589 628 q 551 754 589 711 q 417 797 513 797 l 417 797 l 339 797 l 339 569 l 475 569 l 475 403 l 339 403 z"},"E":{"ha":850,"x_min":0,"x_max":0,"o":"m 744 0 l 114 0 l 114 972 l 728 972 l 728 797 l 297 797 l 297 575 l 711 575 l 711 400 l 297 400 l 297 175 l 744 175 l 744 0 z"},"É":{"ha":850,"x_min":0,"x_max":0,"o":"m 744 0 l 114 0 l 114 972 l 728 972 l 728 797 l 297 797 l 297 575 l 711 575 l 711 400 l 297 400 l 297 175 l 744 175 l 744 0 z m 494 1075 l 353 1075 l 425 1264 l 611 1264 l 494 1075 z"},"Ĕ":{"ha":850,"x_min":0,"x_max":0,"o":"m 744 0 l 114 0 l 114 972 l 728 972 l 728 797 l 297 797 l 297 575 l 711 575 l 711 400 l 297 400 l 297 175 l 744 175 l 744 0 z m 426 1074 l 426 1074 q 294 1119 346 1074 q 243 1243 243 1164 l 243 1243 l 243 1263 l 368 1263 l 368 1254 q 383 1213 368 1229 q 426 1196 397 1196 l 426 1196 q 470 1213 456 1196 q 485 1254 485 1229 l 485 1254 l 485 1263 l 610 1263 l 610 1243 q 559 1119 610 1164 q 426 1074 508 1074 z"},"Ě":{"ha":850,"x_min":0,"x_max":0,"o":"m 744 0 l 114 0 l 114 972 l 728 972 l 728 797 l 297 797 l 297 575 l 711 575 l 711 400 l 297 400 l 297 175 l 744 175 l 744 0 z m 546 1075 l 307 1075 l 190 1264 l 358 1264 l 418 1142 l 435 1142 l 494 1264 l 663 1264 l 546 1075 z"},"Ê":{"ha":850,"x_min":0,"x_max":0,"o":"m 744 0 l 114 0 l 114 972 l 728 972 l 728 797 l 297 797 l 297 575 l 711 575 l 711 400 l 297 400 l 297 175 l 744 175 l 744 0 z m 358 1075 l 190 1075 l 307 1264 l 546 1264 l 663 1075 l 494 1075 l 435 1197 l 418 1197 l 358 1075 z"},"Ế":{"ha":850,"x_min":0,"x_max":0,"o":"m 744 0 l 114 0 l 114 972 l 728 972 l 728 797 l 297 797 l 297 575 l 711 575 l 711 400 l 297 400 l 297 175 l 744 175 l 744 0 z m 358 1075 l 190 1075 l 307 1264 l 546 1264 l 663 1075 l 494 1075 l 435 1197 l 418 1197 l 358 1075 z m 750 1197 l 608 1197 l 681 1386 l 867 1386 l 750 1197 z"},"Ệ":{"ha":850,"x_min":0,"x_max":0,"o":"m 744 0 l 114 0 l 114 972 l 728 972 l 728 797 l 297 797 l 297 575 l 711 575 l 711 400 l 297 400 l 297 175 l 744 175 l 744 0 z m 425 -353 l 425 -353 q 332 -315 371 -353 q 293 -221 293 -276 l 293 -221 q 332 -127 293 -165 q 425 -89 371 -89 l 425 -89 q 518 -127 479 -89 q 557 -221 557 -165 l 557 -221 q 518 -315 557 -276 q 425 -353 479 -353 z m 358 1075 l 190 1075 l 307 1264 l 546 1264 l 663 1075 l 494 1075 l 435 1197 l 418 1197 l 358 1075 z"},"Ề":{"ha":850,"x_min":0,"x_max":0,"o":"m 744 0 l 114 0 l 114 972 l 728 972 l 728 797 l 297 797 l 297 575 l 711 575 l 711 400 l 297 400 l 297 175 l 744 175 l 744 0 z m 358 1075 l 190 1075 l 307 1264 l 546 1264 l 663 1075 l 494 1075 l 435 1197 l 418 1197 l 358 1075 z m 222 1197 l 81 1197 l -36 1386 l 150 1386 l 222 1197 z"},"Ể":{"ha":850,"x_min":0,"x_max":0,"o":"m 744 0 l 114 0 l 114 972 l 728 972 l 728 797 l 297 797 l 297 575 l 711 575 l 711 400 l 297 400 l 297 175 l 744 175 l 744 0 z m 358 1075 l 190 1075 l 307 1264 l 546 1264 l 663 1075 l 494 1075 l 435 1197 l 418 1197 l 358 1075 z m 732 1197 l 635 1197 l 607 1325 l 607 1342 l 742 1342 q 769 1322 747 1322 l 769 1322 q 790 1331 783 1322 q 797 1353 797 1340 l 797 1353 q 784 1379 797 1369 q 750 1389 771 1389 l 750 1389 q 681 1369 713 1389 l 681 1369 l 644 1464 q 695 1484 668 1476 q 761 1492 722 1492 l 761 1492 q 870 1455 826 1492 q 914 1353 914 1418 l 914 1353 q 885 1267 914 1303 q 799 1231 856 1231 l 799 1231 q 757 1240 772 1231 q 735 1261 742 1249 l 735 1261 l 718 1261 l 732 1197 z"},"Ễ":{"ha":850,"x_min":0,"x_max":0,"o":"m 744 0 l 114 0 l 114 972 l 728 972 l 728 797 l 297 797 l 297 575 l 711 575 l 711 400 l 297 400 l 297 175 l 744 175 l 744 0 z m 356 1032 l 188 1032 l 304 1221 l 543 1221 l 660 1032 l 492 1032 l 432 1154 l 415 1154 l 356 1032 z m 292 1318 l 253 1268 l 151 1350 l 226 1444 q 281 1490 253 1478 q 343 1503 308 1503 l 343 1503 q 435 1461 397 1503 l 435 1461 q 470 1428 456 1438 q 500 1418 485 1418 l 500 1418 q 531 1428 518 1418 q 556 1453 544 1439 l 556 1453 l 596 1503 l 699 1424 l 621 1326 q 568 1282 596 1296 q 504 1268 540 1268 l 504 1268 q 452 1280 476 1268 q 404 1318 428 1292 l 404 1318 q 381 1342 394 1331 q 349 1353 367 1353 l 349 1353 q 317 1343 331 1353 q 292 1318 303 1333 l 292 1318 z"},"Ë":{"ha":850,"x_min":0,"x_max":0,"o":"m 744 0 l 114 0 l 114 972 l 728 972 l 728 797 l 297 797 l 297 575 l 711 575 l 711 400 l 297 400 l 297 175 l 744 175 l 744 0 z m 592 1040 l 592 1040 q 499 1078 538 1040 q 460 1172 460 1117 l 460 1172 q 499 1266 460 1228 q 592 1304 538 1304 l 592 1304 q 685 1266 646 1304 q 724 1172 724 1228 l 724 1172 q 685 1078 724 1117 q 592 1040 646 1040 z m 261 1040 l 261 1040 q 168 1078 207 1040 q 129 1172 129 1117 l 129 1172 q 168 1266 129 1228 q 261 1304 207 1304 l 261 1304 q 354 1266 315 1304 q 393 1172 393 1228 l 393 1172 q 354 1078 393 1117 q 261 1040 315 1040 z"},"Ė":{"ha":850,"x_min":0,"x_max":0,"o":"m 744 0 l 114 0 l 114 972 l 728 972 l 728 797 l 297 797 l 297 575 l 711 575 l 711 400 l 297 400 l 297 175 l 744 175 l 744 0 z m 426 1065 l 426 1065 q 333 1103 372 1065 q 294 1197 294 1142 l 294 1197 q 333 1291 294 1253 q 426 1329 372 1329 l 426 1329 q 519 1291 481 1329 q 558 1197 558 1253 l 558 1197 q 519 1103 558 1142 q 426 1065 481 1065 z"},"Ẹ":{"ha":850,"x_min":0,"x_max":0,"o":"m 744 0 l 114 0 l 114 972 l 728 972 l 728 797 l 297 797 l 297 575 l 711 575 l 711 400 l 297 400 l 297 175 l 744 175 l 744 0 z m 425 -353 l 425 -353 q 332 -315 371 -353 q 293 -221 293 -276 l 293 -221 q 332 -127 293 -165 q 425 -89 371 -89 l 425 -89 q 518 -127 479 -89 q 557 -221 557 -165 l 557 -221 q 518 -315 557 -276 q 425 -353 479 -353 z"},"È":{"ha":850,"x_min":0,"x_max":0,"o":"m 744 0 l 114 0 l 114 972 l 728 972 l 728 797 l 297 797 l 297 575 l 711 575 l 711 400 l 297 400 l 297 175 l 744 175 l 744 0 z m 496 1075 l 354 1075 l 238 1264 l 424 1264 l 496 1075 z"},"Ẻ":{"ha":850,"x_min":0,"x_max":0,"o":"m 744 0 l 114 0 l 114 972 l 728 972 l 728 797 l 297 797 l 297 575 l 711 575 l 711 400 l 297 400 l 297 175 l 744 175 l 744 0 z m 478 1042 l 381 1042 l 353 1169 l 353 1186 l 488 1186 q 515 1167 493 1167 l 515 1167 q 536 1176 529 1167 q 543 1197 543 1185 l 543 1197 q 530 1224 543 1214 q 496 1233 517 1233 l 496 1233 q 426 1214 458 1233 l 426 1214 l 390 1308 q 441 1328 414 1321 q 507 1336 468 1336 l 507 1336 q 616 1299 572 1336 q 660 1197 660 1263 l 660 1197 q 631 1111 660 1147 q 544 1075 601 1075 l 544 1075 q 503 1084 518 1075 q 481 1106 488 1093 l 481 1106 l 464 1106 l 478 1042 z"},"Ē":{"ha":850,"x_min":0,"x_max":0,"o":"m 744 0 l 114 0 l 114 972 l 728 972 l 728 797 l 297 797 l 297 575 l 711 575 l 711 400 l 297 400 l 297 175 l 744 175 l 744 0 z m 631 1075 l 222 1075 l 222 1217 l 631 1217 l 631 1075 z"},"Ę":{"ha":850,"x_min":0,"x_max":0,"o":"m 821 -236 l 710 -236 q 633 -210 668 -236 q 599 -132 599 -183 l 599 -132 q 603 -100 599 -118 l 603 -100 l 625 0 l 114 0 l 114 972 l 728 972 l 728 797 l 297 797 l 297 575 l 711 575 l 711 400 l 297 400 l 297 175 l 744 175 l 744 0 l 726 -78 q 725 -89 725 -85 l 725 -89 q 757 -119 725 -119 l 757 -119 l 821 -119 l 821 -236 z"},"Ẽ":{"ha":850,"x_min":0,"x_max":0,"o":"m 744 0 l 114 0 l 114 972 l 728 972 l 728 797 l 297 797 l 297 575 l 711 575 l 711 400 l 297 400 l 297 175 l 744 175 l 744 0 z m 294 1099 l 256 1049 l 154 1131 l 229 1225 q 283 1271 256 1258 q 346 1283 311 1283 l 346 1283 q 438 1242 400 1283 l 438 1242 q 473 1208 458 1218 q 503 1199 488 1199 l 503 1199 q 534 1209 521 1199 q 558 1233 547 1219 l 558 1233 l 599 1283 l 701 1204 l 624 1107 q 571 1063 599 1076 q 507 1049 543 1049 l 507 1049 q 455 1060 479 1049 q 407 1099 431 1072 l 407 1099 q 383 1122 397 1111 q 351 1133 369 1133 l 351 1133 q 319 1124 333 1133 q 294 1099 306 1114 l 294 1099 z"},"Ə":{"ha":850,"x_min":0,"x_max":0,"o":"m 422 -19 l 422 -19 q 158 76 250 -19 q 67 350 67 171 l 67 350 l 67 528 l 600 528 l 600 608 q 581 716 600 667 q 523 795 563 765 q 422 825 483 825 l 422 825 q 318 796 356 825 q 265 722 281 767 q 250 631 250 676 l 250 631 l 250 622 l 67 622 l 67 631 q 158 894 67 797 q 422 992 250 992 l 422 992 q 686 887 589 992 q 783 594 783 782 l 783 594 l 783 378 q 686 83 783 185 q 422 -19 589 -19 z m 422 147 l 422 147 q 560 205 521 147 q 600 353 600 263 l 600 353 l 250 353 l 250 342 q 263 247 250 292 q 314 175 276 203 q 422 147 351 147 z"},"F":{"ha":850,"x_min":0,"x_max":0,"o":"m 306 0 l 122 0 l 122 972 l 744 972 l 744 797 l 306 797 l 306 575 l 736 575 l 736 400 l 306 400 l 306 0 z"},"G":{"ha":850,"x_min":0,"x_max":0,"o":"m 381 -19 l 381 -19 q 219 24 292 -19 q 104 156 147 68 q 61 372 61 243 l 61 372 l 61 600 q 108 814 61 726 q 236 947 154 901 q 425 992 318 992 l 425 992 q 615 944 536 992 q 736 817 694 897 q 778 639 778 738 l 778 639 l 778 622 l 594 622 l 594 639 q 549 772 594 726 q 422 817 504 817 l 422 817 q 295 765 346 817 q 244 586 244 714 l 244 586 l 244 381 q 428 156 244 156 l 428 156 q 552 200 510 156 q 594 317 594 244 l 594 317 l 361 317 l 361 492 l 778 492 l 778 0 l 611 0 l 611 108 l 586 108 q 522 17 569 54 q 381 -19 475 -19 z"},"Ğ":{"ha":850,"x_min":0,"x_max":0,"o":"m 381 -19 l 381 -19 q 219 24 292 -19 q 104 156 147 68 q 61 372 61 243 l 61 372 l 61 600 q 108 814 61 726 q 236 947 154 901 q 425 992 318 992 l 425 992 q 615 944 536 992 q 736 817 694 897 q 778 639 778 738 l 778 639 l 778 622 l 594 622 l 594 639 q 549 772 594 726 q 422 817 504 817 l 422 817 q 295 765 346 817 q 244 586 244 714 l 244 586 l 244 381 q 428 156 244 156 l 428 156 q 552 200 510 156 q 594 317 594 244 l 594 317 l 361 317 l 361 492 l 778 492 l 778 0 l 611 0 l 611 108 l 586 108 q 522 17 569 54 q 381 -19 475 -19 z m 425 1074 l 425 1074 q 293 1119 344 1074 q 242 1243 242 1164 l 242 1243 l 242 1263 l 367 1263 l 367 1254 q 381 1213 367 1229 q 425 1196 396 1196 l 425 1196 q 469 1213 454 1196 q 483 1254 483 1229 l 483 1254 l 483 1263 l 608 1263 l 608 1243 q 558 1119 608 1164 q 425 1074 507 1074 z"},"Ǧ":{"ha":850,"x_min":0,"x_max":0,"o":"m 381 -19 l 381 -19 q 219 24 292 -19 q 104 156 147 68 q 61 372 61 243 l 61 372 l 61 600 q 108 814 61 726 q 236 947 154 901 q 425 992 318 992 l 425 992 q 615 944 536 992 q 736 817 694 897 q 778 639 778 738 l 778 639 l 778 622 l 594 622 l 594 639 q 549 772 594 726 q 422 817 504 817 l 422 817 q 295 765 346 817 q 244 586 244 714 l 244 586 l 244 381 q 428 156 244 156 l 428 156 q 552 200 510 156 q 594 317 594 244 l 594 317 l 361 317 l 361 492 l 778 492 l 778 0 l 611 0 l 611 108 l 586 108 q 522 17 569 54 q 381 -19 475 -19 z m 544 1075 l 306 1075 l 189 1264 l 357 1264 l 417 1142 l 433 1142 l 493 1264 l 661 1264 l 544 1075 z"},"Ĝ":{"ha":850,"x_min":0,"x_max":0,"o":"m 381 -19 l 381 -19 q 219 24 292 -19 q 104 156 147 68 q 61 372 61 243 l 61 372 l 61 600 q 108 814 61 726 q 236 947 154 901 q 425 992 318 992 l 425 992 q 615 944 536 992 q 736 817 694 897 q 778 639 778 738 l 778 639 l 778 622 l 594 622 l 594 639 q 549 772 594 726 q 422 817 504 817 l 422 817 q 295 765 346 817 q 244 586 244 714 l 244 586 l 244 381 q 428 156 244 156 l 428 156 q 552 200 510 156 q 594 317 594 244 l 594 317 l 361 317 l 361 492 l 778 492 l 778 0 l 611 0 l 611 108 l 586 108 q 522 17 569 54 q 381 -19 475 -19 z m 357 1075 l 189 1075 l 306 1264 l 544 1264 l 661 1075 l 493 1075 l 433 1197 l 417 1197 l 357 1075 z"},"Ģ":{"ha":850,"x_min":0,"x_max":0,"o":"m 381 -19 l 381 -19 q 219 24 292 -19 q 104 156 147 68 q 61 372 61 243 l 61 372 l 61 600 q 108 814 61 726 q 236 947 154 901 q 425 992 318 992 l 425 992 q 615 944 536 992 q 736 817 694 897 q 778 639 778 738 l 778 639 l 778 622 l 594 622 l 594 639 q 549 772 594 726 q 422 817 504 817 l 422 817 q 295 765 346 817 q 244 586 244 714 l 244 586 l 244 381 q 428 156 244 156 l 428 156 q 552 200 510 156 q 594 317 594 244 l 594 317 l 361 317 l 361 492 l 778 492 l 778 0 l 611 0 l 611 108 l 586 108 q 522 17 569 54 q 381 -19 475 -19 z m 376 -469 l 293 -469 l 293 -361 l 356 -361 q 393 -319 393 -361 l 393 -319 l 393 -303 l 381 -303 q 296 -267 332 -303 q 260 -182 260 -231 l 260 -182 q 296 -97 260 -133 q 381 -61 332 -61 l 381 -61 q 465 -97 429 -61 q 501 -182 501 -133 l 501 -182 l 501 -344 q 465 -433 501 -397 q 376 -469 429 -469 l 376 -469 z"},"Ġ":{"ha":850,"x_min":0,"x_max":0,"o":"m 381 -19 l 381 -19 q 219 24 292 -19 q 104 156 147 68 q 61 372 61 243 l 61 372 l 61 600 q 108 814 61 726 q 236 947 154 901 q 425 992 318 992 l 425 992 q 615 944 536 992 q 736 817 694 897 q 778 639 778 738 l 778 639 l 778 622 l 594 622 l 594 639 q 549 772 594 726 q 422 817 504 817 l 422 817 q 295 765 346 817 q 244 586 244 714 l 244 586 l 244 381 q 428 156 244 156 l 428 156 q 552 200 510 156 q 594 317 594 244 l 594 317 l 361 317 l 361 492 l 778 492 l 778 0 l 611 0 l 611 108 l 586 108 q 522 17 569 54 q 381 -19 475 -19 z m 425 1065 l 425 1065 q 332 1103 371 1065 q 293 1197 293 1142 l 293 1197 q 332 1291 293 1253 q 425 1329 371 1329 l 425 1329 q 518 1291 479 1329 q 557 1197 557 1253 l 557 1197 q 518 1103 557 1142 q 425 1065 479 1065 z"},"Ḡ":{"ha":850,"x_min":0,"x_max":0,"o":"m 381 -19 l 381 -19 q 219 24 292 -19 q 104 156 147 68 q 61 372 61 243 l 61 372 l 61 600 q 108 814 61 726 q 236 947 154 901 q 425 992 318 992 l 425 992 q 615 944 536 992 q 736 817 694 897 q 778 639 778 738 l 778 639 l 778 622 l 594 622 l 594 639 q 549 772 594 726 q 422 817 504 817 l 422 817 q 295 765 346 817 q 244 586 244 714 l 244 586 l 244 381 q 428 156 244 156 l 428 156 q 552 200 510 156 q 594 317 594 244 l 594 317 l 361 317 l 361 492 l 778 492 l 778 0 l 611 0 l 611 108 l 586 108 q 522 17 569 54 q 381 -19 475 -19 z m 629 1075 l 221 1075 l 221 1217 l 629 1217 l 629 1075 z"},"H":{"ha":850,"x_min":0,"x_max":0,"o":"m 268 0 l 85 0 l 85 972 l 268 972 l 268 575 l 582 575 l 582 972 l 765 972 l 765 0 l 582 0 l 582 400 l 268 400 l 268 0 z"},"Ħ":{"ha":850,"x_min":0,"x_max":0,"o":"m 285 0 l 101 0 l 101 689 l 18 689 l 18 856 l 101 856 l 101 972 l 285 972 l 285 856 l 565 856 l 565 972 l 749 972 l 749 856 l 832 856 l 832 689 l 749 689 l 749 0 l 565 0 l 565 400 l 285 400 l 285 0 z m 285 689 l 285 575 l 565 575 l 565 689 l 285 689 z"},"Ḫ":{"ha":850,"x_min":0,"x_max":0,"o":"m 268 0 l 85 0 l 85 972 l 268 972 l 268 575 l 582 575 l 582 972 l 765 972 l 765 0 l 582 0 l 582 400 l 268 400 l 268 0 z m 425 -278 l 425 -278 q 293 -233 344 -278 q 242 -108 242 -187 l 242 -108 l 242 -89 l 367 -89 l 367 -97 q 381 -139 367 -122 q 425 -156 396 -156 l 425 -156 q 469 -139 454 -156 q 483 -97 483 -122 l 483 -97 l 483 -89 l 608 -89 l 608 -108 q 558 -233 608 -187 q 425 -278 507 -278 z"},"Ĥ":{"ha":850,"x_min":0,"x_max":0,"o":"m 268 0 l 85 0 l 85 972 l 268 972 l 268 575 l 582 575 l 582 972 l 765 972 l 765 0 l 582 0 l 582 400 l 268 400 l 268 0 z m 357 1075 l 189 1075 l 306 1264 l 544 1264 l 661 1075 l 493 1075 l 433 1197 l 417 1197 l 357 1075 z"},"Ḥ":{"ha":850,"x_min":0,"x_max":0,"o":"m 268 0 l 85 0 l 85 972 l 268 972 l 268 575 l 582 575 l 582 972 l 765 972 l 765 0 l 582 0 l 582 400 l 268 400 l 268 0 z m 425 -353 l 425 -353 q 332 -315 371 -353 q 293 -221 293 -276 l 293 -221 q 332 -127 293 -165 q 425 -89 371 -89 l 425 -89 q 518 -127 479 -89 q 557 -221 557 -165 l 557 -221 q 518 -315 557 -276 q 425 -353 479 -353 z"},"I":{"ha":850,"x_min":0,"x_max":0,"o":"m 750 0 l 100 0 l 100 175 l 333 175 l 333 797 l 100 797 l 100 972 l 750 972 l 750 797 l 517 797 l 517 175 l 750 175 l 750 0 z"},"Ĳ":{"ha":850,"x_min":0,"x_max":0,"o":"m 407 -19 l 407 -19 q 171 60 261 -19 q 81 292 81 140 l 81 292 l 81 383 l 264 383 l 264 292 q 301 190 264 228 q 401 153 338 153 l 401 153 q 497 189 463 153 q 531 292 531 225 l 531 292 l 531 800 l 431 800 l 431 972 l 797 972 l 797 800 l 714 800 l 714 292 q 631 61 714 142 q 407 -19 549 -19 z m 264 475 l 81 475 l 81 972 l 264 972 l 264 475 z"},"Í":{"ha":850,"x_min":0,"x_max":0,"o":"m 750 0 l 100 0 l 100 175 l 333 175 l 333 797 l 100 797 l 100 972 l 750 972 l 750 797 l 517 797 l 517 175 l 750 175 l 750 0 z m 493 1075 l 351 1075 l 424 1264 l 610 1264 l 493 1075 z"},"Ĭ":{"ha":850,"x_min":0,"x_max":0,"o":"m 750 0 l 100 0 l 100 175 l 333 175 l 333 797 l 100 797 l 100 972 l 750 972 l 750 797 l 517 797 l 517 175 l 750 175 l 750 0 z m 425 1074 l 425 1074 q 293 1119 344 1074 q 242 1243 242 1164 l 242 1243 l 242 1263 l 367 1263 l 367 1254 q 381 1213 367 1229 q 425 1196 396 1196 l 425 1196 q 469 1213 454 1196 q 483 1254 483 1229 l 483 1254 l 483 1263 l 608 1263 l 608 1243 q 558 1119 608 1164 q 425 1074 507 1074 z"},"Ǐ":{"ha":850,"x_min":0,"x_max":0,"o":"m 750 0 l 100 0 l 100 175 l 333 175 l 333 797 l 100 797 l 100 972 l 750 972 l 750 797 l 517 797 l 517 175 l 750 175 l 750 0 z m 544 1075 l 306 1075 l 189 1264 l 357 1264 l 417 1142 l 433 1142 l 493 1264 l 661 1264 l 544 1075 z"},"Î":{"ha":850,"x_min":0,"x_max":0,"o":"m 750 0 l 100 0 l 100 175 l 333 175 l 333 797 l 100 797 l 100 972 l 750 972 l 750 797 l 517 797 l 517 175 l 750 175 l 750 0 z m 357 1075 l 189 1075 l 306 1264 l 544 1264 l 661 1075 l 493 1075 l 433 1197 l 417 1197 l 357 1075 z"},"Ï":{"ha":850,"x_min":0,"x_max":0,"o":"m 750 0 l 100 0 l 100 175 l 333 175 l 333 797 l 100 797 l 100 972 l 750 972 l 750 797 l 517 797 l 517 175 l 750 175 l 750 0 z m 590 1040 l 590 1040 q 497 1078 536 1040 q 458 1172 458 1117 l 458 1172 q 497 1266 458 1228 q 590 1304 536 1304 l 590 1304 q 683 1266 644 1304 q 722 1172 722 1228 l 722 1172 q 683 1078 722 1117 q 590 1040 644 1040 z m 260 1040 l 260 1040 q 167 1078 206 1040 q 128 1172 128 1117 l 128 1172 q 167 1266 128 1228 q 260 1304 206 1304 l 260 1304 q 353 1266 314 1304 q 392 1172 392 1228 l 392 1172 q 353 1078 392 1117 q 260 1040 314 1040 z"},"İ":{"ha":850,"x_min":0,"x_max":0,"o":"m 750 0 l 100 0 l 100 175 l 333 175 l 333 797 l 100 797 l 100 972 l 750 972 l 750 797 l 517 797 l 517 175 l 750 175 l 750 0 z m 425 1065 l 425 1065 q 332 1103 371 1065 q 293 1197 293 1142 l 293 1197 q 332 1291 293 1253 q 425 1329 371 1329 l 425 1329 q 518 1291 479 1329 q 557 1197 557 1253 l 557 1197 q 518 1103 557 1142 q 425 1065 479 1065 z"},"Ị":{"ha":850,"x_min":0,"x_max":0,"o":"m 750 0 l 100 0 l 100 175 l 333 175 l 333 797 l 100 797 l 100 972 l 750 972 l 750 797 l 517 797 l 517 175 l 750 175 l 750 0 z m 425 -353 l 425 -353 q 332 -315 371 -353 q 293 -221 293 -276 l 293 -221 q 332 -127 293 -165 q 425 -89 371 -89 l 425 -89 q 518 -127 479 -89 q 557 -221 557 -165 l 557 -221 q 518 -315 557 -276 q 425 -353 479 -353 z"},"Ì":{"ha":850,"x_min":0,"x_max":0,"o":"m 750 0 l 100 0 l 100 175 l 333 175 l 333 797 l 100 797 l 100 972 l 750 972 l 750 797 l 517 797 l 517 175 l 750 175 l 750 0 z m 494 1075 l 353 1075 l 236 1264 l 422 1264 l 494 1075 z"},"Ỉ":{"ha":850,"x_min":0,"x_max":0,"o":"m 750 0 l 100 0 l 100 175 l 333 175 l 333 797 l 100 797 l 100 972 l 750 972 l 750 797 l 517 797 l 517 175 l 750 175 l 750 0 z m 476 1042 l 379 1042 l 351 1169 l 351 1186 l 486 1186 q 514 1167 492 1167 l 514 1167 q 535 1176 528 1167 q 542 1197 542 1185 l 542 1197 q 528 1224 542 1214 q 494 1233 515 1233 l 494 1233 q 425 1214 457 1233 l 425 1214 l 389 1308 q 440 1328 413 1321 q 506 1336 467 1336 l 506 1336 q 615 1299 571 1336 q 658 1197 658 1263 l 658 1197 q 629 1111 658 1147 q 543 1075 600 1075 l 543 1075 q 501 1084 517 1075 q 479 1106 486 1093 l 479 1106 l 463 1106 l 476 1042 z"},"Ī":{"ha":850,"x_min":0,"x_max":0,"o":"m 750 0 l 100 0 l 100 175 l 333 175 l 333 797 l 100 797 l 100 972 l 750 972 l 750 797 l 517 797 l 517 175 l 750 175 l 750 0 z m 629 1075 l 221 1075 l 221 1217 l 629 1217 l 629 1075 z"},"Į":{"ha":850,"x_min":0,"x_max":0,"o":"m 826 -236 l 715 -236 q 639 -210 674 -236 q 604 -132 604 -183 l 604 -132 q 608 -100 604 -118 l 608 -100 l 631 0 l 100 0 l 100 175 l 333 175 l 333 797 l 100 797 l 100 972 l 750 972 l 750 797 l 517 797 l 517 175 l 750 175 l 750 0 l 732 -78 q 731 -89 731 -85 l 731 -89 q 763 -119 731 -119 l 763 -119 l 826 -119 l 826 -236 z"},"Ĩ":{"ha":850,"x_min":0,"x_max":0,"o":"m 750 0 l 100 0 l 100 175 l 333 175 l 333 797 l 100 797 l 100 972 l 750 972 l 750 797 l 517 797 l 517 175 l 750 175 l 750 0 z m 293 1099 l 254 1049 l 153 1131 l 228 1225 q 282 1271 254 1258 q 344 1283 310 1283 l 344 1283 q 436 1242 399 1283 l 436 1242 q 472 1208 457 1218 q 501 1199 486 1199 l 501 1199 q 533 1209 519 1199 q 557 1233 546 1219 l 557 1233 l 597 1283 l 700 1204 l 622 1107 q 569 1063 597 1076 q 506 1049 542 1049 l 506 1049 q 453 1060 478 1049 q 406 1099 429 1072 l 406 1099 q 382 1122 396 1111 q 350 1133 368 1133 l 350 1133 q 318 1124 332 1133 q 293 1099 304 1114 l 293 1099 z"},"J":{"ha":850,"x_min":0,"x_max":0,"o":"m 411 -19 l 411 -19 q 175 60 265 -19 q 85 292 85 140 l 85 292 l 85 383 l 268 383 l 268 292 q 305 190 268 228 q 406 153 342 153 l 406 153 q 501 189 467 153 q 535 292 535 225 l 535 292 l 535 800 l 435 800 l 435 972 l 801 972 l 801 800 l 718 800 l 718 292 q 635 61 718 142 q 411 -19 553 -19 z"},"Ĵ":{"ha":850,"x_min":0,"x_max":0,"o":"m 411 -19 l 411 -19 q 175 60 265 -19 q 85 292 85 140 l 85 292 l 85 383 l 268 383 l 268 292 q 305 190 268 228 q 406 153 342 153 l 406 153 q 501 189 467 153 q 535 292 535 225 l 535 292 l 535 800 l 435 800 l 435 972 l 801 972 l 801 800 l 718 800 l 718 292 q 635 61 718 142 q 411 -19 553 -19 z m 557 1075 l 389 1075 l 506 1264 l 744 1264 l 861 1075 l 693 1075 l 633 1197 l 617 1197 l 557 1075 z"},"K":{"ha":850,"x_min":0,"x_max":0,"o":"m 290 0 l 107 0 l 107 972 l 290 972 l 290 574 l 331 574 l 588 972 l 794 972 l 794 964 l 494 499 l 494 474 l 811 8 l 811 0 l 596 0 l 331 399 l 290 399 l 290 0 z"},"Ķ":{"ha":850,"x_min":0,"x_max":0,"o":"m 290 0 l 107 0 l 107 972 l 290 972 l 290 574 l 331 574 l 588 972 l 794 972 l 794 964 l 494 499 l 494 474 l 811 8 l 811 0 l 596 0 l 331 399 l 290 399 l 290 0 z m 421 -469 l 338 -469 l 338 -361 l 400 -361 q 438 -319 438 -361 l 438 -319 l 438 -303 l 425 -303 q 340 -267 376 -303 q 304 -182 304 -231 l 304 -182 q 340 -97 304 -133 q 425 -61 376 -61 l 425 -61 q 510 -97 474 -61 q 546 -182 546 -133 l 546 -182 l 546 -344 q 510 -433 546 -397 q 421 -469 474 -469 l 421 -469 z"},"L":{"ha":850,"x_min":0,"x_max":0,"o":"m 739 0 l 114 0 l 114 972 l 297 972 l 297 175 l 739 175 l 739 0 z"},"Ĺ":{"ha":850,"x_min":0,"x_max":0,"o":"m 739 0 l 114 0 l 114 972 l 297 972 l 297 175 l 739 175 l 739 0 z m 279 1075 l 138 1075 l 210 1264 l 396 1264 l 279 1075 z"},"Ľ":{"ha":850,"x_min":0,"x_max":0,"o":"m 739 0 l 114 0 l 114 972 l 297 972 l 297 175 l 739 175 l 739 0 z m 613 564 l 529 564 l 529 672 l 592 672 q 629 714 629 672 l 629 714 l 629 731 l 617 731 q 532 767 568 731 q 496 851 496 803 l 496 851 q 532 936 496 900 q 617 972 568 972 l 617 972 q 701 936 665 972 q 738 851 738 900 l 738 851 l 738 689 q 701 600 738 636 q 613 564 665 564 l 613 564 z"},"Ļ":{"ha":850,"x_min":0,"x_max":0,"o":"m 739 0 l 114 0 l 114 972 l 297 972 l 297 175 l 739 175 l 739 0 z m 421 -469 l 338 -469 l 338 -361 l 400 -361 q 438 -319 438 -361 l 438 -319 l 438 -303 l 425 -303 q 340 -267 376 -303 q 304 -182 304 -231 l 304 -182 q 340 -97 304 -133 q 425 -61 376 -61 l 425 -61 q 510 -97 474 -61 q 546 -182 546 -133 l 546 -182 l 546 -344 q 510 -433 546 -397 q 421 -469 474 -469 l 421 -469 z"},"Ḷ":{"ha":850,"x_min":0,"x_max":0,"o":"m 739 0 l 114 0 l 114 972 l 297 972 l 297 175 l 739 175 l 739 0 z m 425 -353 l 425 -353 q 332 -315 371 -353 q 293 -221 293 -276 l 293 -221 q 332 -127 293 -165 q 425 -89 371 -89 l 425 -89 q 518 -127 479 -89 q 557 -221 557 -165 l 557 -221 q 518 -315 557 -276 q 425 -353 479 -353 z"},"Ḹ":{"ha":850,"x_min":0,"x_max":0,"o":"m 739 0 l 114 0 l 114 972 l 297 972 l 297 175 l 739 175 l 739 0 z m 425 -353 l 425 -353 q 332 -315 371 -353 q 293 -221 293 -276 l 293 -221 q 332 -127 293 -165 q 425 -89 371 -89 l 425 -89 q 518 -127 479 -89 q 557 -221 557 -165 l 557 -221 q 518 -315 557 -276 q 425 -353 479 -353 z m 638 1075 l 229 1075 l 229 1217 l 638 1217 l 638 1075 z"},"Ḻ":{"ha":850,"x_min":0,"x_max":0,"o":"m 739 0 l 114 0 l 114 972 l 297 972 l 297 175 l 739 175 l 739 0 z m 629 -228 l 221 -228 l 221 -86 l 629 -86 l 629 -228 z"},"Ł":{"ha":850,"x_min":0,"x_max":0,"o":"m 753 0 l 128 0 l 128 325 l 75 299 l 0 447 l 128 511 l 128 972 l 311 972 l 311 604 l 385 642 l 460 493 l 311 418 l 311 175 l 753 175 l 753 0 z"},"M":{"ha":850,"x_min":0,"x_max":0,"o":"m 197 0 l 31 0 l 31 972 l 353 972 l 408 242 l 408 100 l 442 100 l 442 242 l 497 972 l 819 972 l 819 0 l 653 0 l 653 650 l 669 872 l 636 872 l 564 0 l 289 0 l 214 872 l 181 872 l 197 650 l 197 0 z"},"Ṃ":{"ha":850,"x_min":0,"x_max":0,"o":"m 197 0 l 31 0 l 31 972 l 353 972 l 408 242 l 408 100 l 442 100 l 442 242 l 497 972 l 819 972 l 819 0 l 653 0 l 653 650 l 669 872 l 636 872 l 564 0 l 289 0 l 214 872 l 181 872 l 197 650 l 197 0 z m 425 -353 l 425 -353 q 332 -315 371 -353 q 293 -221 293 -276 l 293 -221 q 332 -127 293 -165 q 425 -89 371 -89 l 425 -89 q 518 -127 479 -89 q 557 -221 557 -165 l 557 -221 q 518 -315 557 -276 q 425 -353 479 -353 z"},"N":{"ha":850,"x_min":0,"x_max":0,"o":"m 268 0 l 85 0 l 85 972 l 443 972 l 557 92 l 582 92 l 582 972 l 765 972 l 765 0 l 407 0 l 293 881 l 268 881 l 268 0 z"},"Ń":{"ha":850,"x_min":0,"x_max":0,"o":"m 268 0 l 85 0 l 85 972 l 443 972 l 557 92 l 582 92 l 582 972 l 765 972 l 765 0 l 407 0 l 293 881 l 268 881 l 268 0 z m 504 1075 l 363 1075 l 435 1264 l 621 1264 l 504 1075 z"},"Ň":{"ha":850,"x_min":0,"x_max":0,"o":"m 268 0 l 85 0 l 85 972 l 443 972 l 557 92 l 582 92 l 582 972 l 765 972 l 765 0 l 407 0 l 293 881 l 268 881 l 268 0 z m 556 1075 l 317 1075 l 200 1264 l 368 1264 l 428 1142 l 444 1142 l 504 1264 l 672 1264 l 556 1075 z"},"Ņ":{"ha":850,"x_min":0,"x_max":0,"o":"m 268 0 l 85 0 l 85 972 l 443 972 l 557 92 l 582 92 l 582 972 l 765 972 l 765 0 l 407 0 l 293 881 l 268 881 l 268 0 z m 421 -469 l 338 -469 l 338 -361 l 400 -361 q 438 -319 438 -361 l 438 -319 l 438 -303 l 425 -303 q 340 -267 376 -303 q 304 -182 304 -231 l 304 -182 q 340 -97 304 -133 q 425 -61 376 -61 l 425 -61 q 510 -97 474 -61 q 546 -182 546 -133 l 546 -182 l 546 -344 q 510 -433 546 -397 q 421 -469 474 -469 l 421 -469 z"},"Ṅ":{"ha":850,"x_min":0,"x_max":0,"o":"m 268 0 l 85 0 l 85 972 l 443 972 l 557 92 l 582 92 l 582 972 l 765 972 l 765 0 l 407 0 l 293 881 l 268 881 l 268 0 z m 436 1065 l 436 1065 q 343 1103 382 1065 q 304 1197 304 1142 l 304 1197 q 343 1291 304 1253 q 436 1329 382 1329 l 436 1329 q 529 1291 490 1329 q 568 1197 568 1253 l 568 1197 q 529 1103 568 1142 q 436 1065 490 1065 z"},"Ṇ":{"ha":850,"x_min":0,"x_max":0,"o":"m 268 0 l 85 0 l 85 972 l 443 972 l 557 92 l 582 92 l 582 972 l 765 972 l 765 0 l 407 0 l 293 881 l 268 881 l 268 0 z m 425 -353 l 425 -353 q 332 -315 371 -353 q 293 -221 293 -276 l 293 -221 q 332 -127 293 -165 q 425 -89 371 -89 l 425 -89 q 518 -127 479 -89 q 557 -221 557 -165 l 557 -221 q 518 -315 557 -276 q 425 -353 479 -353 z"},"Ṉ":{"ha":850,"x_min":0,"x_max":0,"o":"m 268 0 l 85 0 l 85 972 l 443 972 l 557 92 l 582 92 l 582 972 l 765 972 l 765 0 l 407 0 l 293 881 l 268 881 l 268 0 z m 629 -228 l 221 -228 l 221 -86 l 629 -86 l 629 -228 z"},"Ñ":{"ha":850,"x_min":0,"x_max":0,"o":"m 268 0 l 85 0 l 85 972 l 443 972 l 557 92 l 582 92 l 582 972 l 765 972 l 765 0 l 407 0 l 293 881 l 268 881 l 268 0 z m 304 1099 l 265 1049 l 164 1131 l 239 1225 q 293 1271 265 1258 q 356 1283 321 1283 l 356 1283 q 447 1242 410 1283 l 447 1242 q 483 1208 468 1218 q 513 1199 497 1199 l 513 1199 q 544 1209 531 1199 q 568 1233 557 1219 l 568 1233 l 608 1283 l 711 1204 l 633 1107 q 581 1063 608 1076 q 517 1049 553 1049 l 517 1049 q 465 1060 489 1049 q 417 1099 440 1072 l 417 1099 q 393 1122 407 1111 q 361 1133 379 1133 l 361 1133 q 329 1124 343 1133 q 304 1099 315 1114 l 304 1099 z"},"Ŋ":{"ha":850,"x_min":0,"x_max":0,"o":"m 625 -278 l 339 -278 l 339 -103 l 540 -103 q 582 -57 582 -103 l 582 -57 l 582 0 l 410 0 l 293 881 l 268 881 l 268 0 l 85 0 l 85 972 l 440 972 l 557 92 l 582 92 l 582 972 l 765 972 l 765 -136 q 726 -243 765 -208 q 625 -278 688 -278 l 625 -278 z"},"O":{"ha":850,"x_min":0,"x_max":0,"o":"m 425 -19 l 425 -19 q 163 83 258 -19 q 67 378 67 185 l 67 378 l 67 594 q 163 887 67 782 q 425 992 258 992 l 425 992 q 688 887 592 992 q 783 594 783 782 l 783 594 l 783 378 q 688 83 783 185 q 425 -19 592 -19 z m 425 147 l 425 147 q 563 208 525 147 q 600 367 600 269 l 600 367 l 600 606 q 582 717 600 667 q 526 796 564 767 q 425 825 488 825 l 425 825 q 324 796 363 825 q 267 717 285 767 q 250 606 250 667 l 250 606 l 250 367 q 288 208 250 269 q 425 147 325 147 z"},"Ó":{"ha":850,"x_min":0,"x_max":0,"o":"m 425 -19 l 425 -19 q 163 83 258 -19 q 67 378 67 185 l 67 378 l 67 594 q 163 887 67 782 q 425 992 258 992 l 425 992 q 688 887 592 992 q 783 594 783 782 l 783 594 l 783 378 q 688 83 783 185 q 425 -19 592 -19 z m 425 147 l 425 147 q 563 208 525 147 q 600 367 600 269 l 600 367 l 600 606 q 582 717 600 667 q 526 796 564 767 q 425 825 488 825 l 425 825 q 324 796 363 825 q 267 717 285 767 q 250 606 250 667 l 250 606 l 250 367 q 288 208 250 269 q 425 147 325 147 z m 493 1075 l 351 1075 l 424 1264 l 610 1264 l 493 1075 z"},"Ŏ":{"ha":850,"x_min":0,"x_max":0,"o":"m 425 -19 l 425 -19 q 163 83 258 -19 q 67 378 67 185 l 67 378 l 67 594 q 163 887 67 782 q 425 992 258 992 l 425 992 q 688 887 592 992 q 783 594 783 782 l 783 594 l 783 378 q 688 83 783 185 q 425 -19 592 -19 z m 425 147 l 425 147 q 563 208 525 147 q 600 367 600 269 l 600 367 l 600 606 q 582 717 600 667 q 526 796 564 767 q 425 825 488 825 l 425 825 q 324 796 363 825 q 267 717 285 767 q 250 606 250 667 l 250 606 l 250 367 q 288 208 250 269 q 425 147 325 147 z m 425 1074 l 425 1074 q 293 1119 344 1074 q 242 1243 242 1164 l 242 1243 l 242 1263 l 367 1263 l 367 1254 q 381 1213 367 1229 q 425 1196 396 1196 l 425 1196 q 469 1213 454 1196 q 483 1254 483 1229 l 483 1254 l 483 1263 l 608 1263 l 608 1243 q 558 1119 608 1164 q 425 1074 507 1074 z"},"Ǒ":{"ha":850,"x_min":0,"x_max":0,"o":"m 425 -19 l 425 -19 q 163 83 258 -19 q 67 378 67 185 l 67 378 l 67 594 q 163 887 67 782 q 425 992 258 992 l 425 992 q 688 887 592 992 q 783 594 783 782 l 783 594 l 783 378 q 688 83 783 185 q 425 -19 592 -19 z m 425 147 l 425 147 q 563 208 525 147 q 600 367 600 269 l 600 367 l 600 606 q 582 717 600 667 q 526 796 564 767 q 425 825 488 825 l 425 825 q 324 796 363 825 q 267 717 285 767 q 250 606 250 667 l 250 606 l 250 367 q 288 208 250 269 q 425 147 325 147 z m 544 1075 l 306 1075 l 189 1264 l 357 1264 l 417 1142 l 433 1142 l 493 1264 l 661 1264 l 544 1075 z"},"Ô":{"ha":850,"x_min":0,"x_max":0,"o":"m 425 -19 l 425 -19 q 163 83 258 -19 q 67 378 67 185 l 67 378 l 67 594 q 163 887 67 782 q 425 992 258 992 l 425 992 q 688 887 592 992 q 783 594 783 782 l 783 594 l 783 378 q 688 83 783 185 q 425 -19 592 -19 z m 425 147 l 425 147 q 563 208 525 147 q 600 367 600 269 l 600 367 l 600 606 q 582 717 600 667 q 526 796 564 767 q 425 825 488 825 l 425 825 q 324 796 363 825 q 267 717 285 767 q 250 606 250 667 l 250 606 l 250 367 q 288 208 250 269 q 425 147 325 147 z m 357 1075 l 189 1075 l 306 1264 l 544 1264 l 661 1075 l 493 1075 l 433 1197 l 417 1197 l 357 1075 z"},"Ố":{"ha":850,"x_min":0,"x_max":0,"o":"m 425 -19 l 425 -19 q 163 83 258 -19 q 67 378 67 185 l 67 378 l 67 594 q 163 887 67 782 q 425 992 258 992 l 425 992 q 688 887 592 992 q 783 594 783 782 l 783 594 l 783 378 q 688 83 783 185 q 425 -19 592 -19 z m 425 147 l 425 147 q 563 208 525 147 q 600 367 600 269 l 600 367 l 600 606 q 582 717 600 667 q 526 796 564 767 q 425 825 488 825 l 425 825 q 324 796 363 825 q 267 717 285 767 q 250 606 250 667 l 250 606 l 250 367 q 288 208 250 269 q 425 147 325 147 z m 357 1075 l 189 1075 l 306 1264 l 544 1264 l 661 1075 l 493 1075 l 433 1197 l 417 1197 l 357 1075 z m 749 1197 l 607 1197 l 679 1386 l 865 1386 l 749 1197 z"},"Ộ":{"ha":850,"x_min":0,"x_max":0,"o":"m 425 -19 l 425 -19 q 163 83 258 -19 q 67 378 67 185 l 67 378 l 67 594 q 163 887 67 782 q 425 992 258 992 l 425 992 q 688 887 592 992 q 783 594 783 782 l 783 594 l 783 378 q 688 83 783 185 q 425 -19 592 -19 z m 425 147 l 425 147 q 563 208 525 147 q 600 367 600 269 l 600 367 l 600 606 q 582 717 600 667 q 526 796 564 767 q 425 825 488 825 l 425 825 q 324 796 363 825 q 267 717 285 767 q 250 606 250 667 l 250 606 l 250 367 q 288 208 250 269 q 425 147 325 147 z m 425 -353 l 425 -353 q 332 -315 371 -353 q 293 -221 293 -276 l 293 -221 q 332 -127 293 -165 q 425 -89 371 -89 l 425 -89 q 518 -127 479 -89 q 557 -221 557 -165 l 557 -221 q 518 -315 557 -276 q 425 -353 479 -353 z m 357 1075 l 189 1075 l 306 1264 l 544 1264 l 661 1075 l 493 1075 l 433 1197 l 417 1197 l 357 1075 z"},"Ồ":{"ha":850,"x_min":0,"x_max":0,"o":"m 425 -19 l 425 -19 q 163 83 258 -19 q 67 378 67 185 l 67 378 l 67 594 q 163 887 67 782 q 425 992 258 992 l 425 992 q 688 887 592 992 q 783 594 783 782 l 783 594 l 783 378 q 688 83 783 185 q 425 -19 592 -19 z m 425 147 l 425 147 q 563 208 525 147 q 600 367 600 269 l 600 367 l 600 606 q 582 717 600 667 q 526 796 564 767 q 425 825 488 825 l 425 825 q 324 796 363 825 q 267 717 285 767 q 250 606 250 667 l 250 606 l 250 367 q 288 208 250 269 q 425 147 325 147 z m 357 1075 l 189 1075 l 306 1264 l 544 1264 l 661 1075 l 493 1075 l 433 1197 l 417 1197 l 357 1075 z m 221 1197 l 79 1197 l -37 1386 l 149 1386 l 221 1197 z"},"Ổ":{"ha":850,"x_min":0,"x_max":0,"o":"m 425 -19 l 425 -19 q 163 83 258 -19 q 67 378 67 185 l 67 378 l 67 594 q 163 887 67 782 q 425 992 258 992 l 425 992 q 688 887 592 992 q 783 594 783 782 l 783 594 l 783 378 q 688 83 783 185 q 425 -19 592 -19 z m 425 147 l 425 147 q 563 208 525 147 q 600 367 600 269 l 600 367 l 600 606 q 582 717 600 667 q 526 796 564 767 q 425 825 488 825 l 425 825 q 324 796 363 825 q 267 717 285 767 q 250 606 250 667 l 250 606 l 250 367 q 288 208 250 269 q 425 147 325 147 z m 357 1075 l 189 1075 l 306 1264 l 544 1264 l 661 1075 l 493 1075 l 433 1197 l 417 1197 l 357 1075 z m 731 1197 l 633 1197 l 606 1325 l 606 1342 l 740 1342 q 768 1322 746 1322 l 768 1322 q 789 1331 782 1322 q 796 1353 796 1340 l 796 1353 q 783 1379 796 1369 q 749 1389 769 1389 l 749 1389 q 679 1369 711 1389 l 679 1369 l 643 1464 q 694 1484 667 1476 q 760 1492 721 1492 l 760 1492 q 869 1455 825 1492 q 913 1353 913 1418 l 913 1353 q 883 1267 913 1303 q 797 1231 854 1231 l 797 1231 q 756 1240 771 1231 q 733 1261 740 1249 l 733 1261 l 717 1261 l 731 1197 z"},"Ỗ":{"ha":850,"x_min":0,"x_max":0,"o":"m 425 -19 l 425 -19 q 163 83 258 -19 q 67 378 67 185 l 67 378 l 67 594 q 163 887 67 782 q 425 992 258 992 l 425 992 q 688 887 592 992 q 783 594 783 782 l 783 594 l 783 378 q 688 83 783 185 q 425 -19 592 -19 z m 425 147 l 425 147 q 563 208 525 147 q 600 367 600 269 l 600 367 l 600 606 q 582 717 600 667 q 526 796 564 767 q 425 825 488 825 l 425 825 q 324 796 363 825 q 267 717 285 767 q 250 606 250 667 l 250 606 l 250 367 q 288 208 250 269 q 425 147 325 147 z m 357 1032 l 189 1032 l 306 1221 l 544 1221 l 661 1032 l 493 1032 l 433 1154 l 417 1154 l 357 1032 z m 293 1318 l 254 1268 l 153 1350 l 228 1444 q 282 1490 254 1478 q 344 1503 310 1503 l 344 1503 q 436 1461 399 1503 l 436 1461 q 472 1428 457 1438 q 501 1418 486 1418 l 501 1418 q 533 1428 519 1418 q 557 1453 546 1439 l 557 1453 l 597 1503 l 700 1424 l 622 1326 q 569 1282 597 1296 q 506 1268 542 1268 l 506 1268 q 453 1280 478 1268 q 406 1318 429 1292 l 406 1318 q 382 1342 396 1331 q 350 1353 368 1353 l 350 1353 q 318 1343 332 1353 q 293 1318 304 1333 l 293 1318 z"},"Ö":{"ha":850,"x_min":0,"x_max":0,"o":"m 425 -19 l 425 -19 q 163 83 258 -19 q 67 378 67 185 l 67 378 l 67 594 q 163 887 67 782 q 425 992 258 992 l 425 992 q 688 887 592 992 q 783 594 783 782 l 783 594 l 783 378 q 688 83 783 185 q 425 -19 592 -19 z m 425 147 l 425 147 q 563 208 525 147 q 600 367 600 269 l 600 367 l 600 606 q 582 717 600 667 q 526 796 564 767 q 425 825 488 825 l 425 825 q 324 796 363 825 q 267 717 285 767 q 250 606 250 667 l 250 606 l 250 367 q 288 208 250 269 q 425 147 325 147 z m 590 1040 l 590 1040 q 497 1078 536 1040 q 458 1172 458 1117 l 458 1172 q 497 1266 458 1228 q 590 1304 536 1304 l 590 1304 q 683 1266 644 1304 q 722 1172 722 1228 l 722 1172 q 683 1078 722 1117 q 590 1040 644 1040 z m 260 1040 l 260 1040 q 167 1078 206 1040 q 128 1172 128 1117 l 128 1172 q 167 1266 128 1228 q 260 1304 206 1304 l 260 1304 q 353 1266 314 1304 q 392 1172 392 1228 l 392 1172 q 353 1078 392 1117 q 260 1040 314 1040 z"},"Ọ":{"ha":850,"x_min":0,"x_max":0,"o":"m 425 -19 l 425 -19 q 163 83 258 -19 q 67 378 67 185 l 67 378 l 67 594 q 163 887 67 782 q 425 992 258 992 l 425 992 q 688 887 592 992 q 783 594 783 782 l 783 594 l 783 378 q 688 83 783 185 q 425 -19 592 -19 z m 425 147 l 425 147 q 563 208 525 147 q 600 367 600 269 l 600 367 l 600 606 q 582 717 600 667 q 526 796 564 767 q 425 825 488 825 l 425 825 q 324 796 363 825 q 267 717 285 767 q 250 606 250 667 l 250 606 l 250 367 q 288 208 250 269 q 425 147 325 147 z m 425 -353 l 425 -353 q 332 -315 371 -353 q 293 -221 293 -276 l 293 -221 q 332 -127 293 -165 q 425 -89 371 -89 l 425 -89 q 518 -127 479 -89 q 557 -221 557 -165 l 557 -221 q 518 -315 557 -276 q 425 -353 479 -353 z"},"Ò":{"ha":850,"x_min":0,"x_max":0,"o":"m 425 -19 l 425 -19 q 163 83 258 -19 q 67 378 67 185 l 67 378 l 67 594 q 163 887 67 782 q 425 992 258 992 l 425 992 q 688 887 592 992 q 783 594 783 782 l 783 594 l 783 378 q 688 83 783 185 q 425 -19 592 -19 z m 425 147 l 425 147 q 563 208 525 147 q 600 367 600 269 l 600 367 l 600 606 q 582 717 600 667 q 526 796 564 767 q 425 825 488 825 l 425 825 q 324 796 363 825 q 267 717 285 767 q 250 606 250 667 l 250 606 l 250 367 q 288 208 250 269 q 425 147 325 147 z m 494 1075 l 353 1075 l 236 1264 l 422 1264 l 494 1075 z"},"Ỏ":{"ha":850,"x_min":0,"x_max":0,"o":"m 425 -19 l 425 -19 q 163 83 258 -19 q 67 378 67 185 l 67 378 l 67 594 q 163 887 67 782 q 425 992 258 992 l 425 992 q 688 887 592 992 q 783 594 783 782 l 783 594 l 783 378 q 688 83 783 185 q 425 -19 592 -19 z m 425 147 l 425 147 q 563 208 525 147 q 600 367 600 269 l 600 367 l 600 606 q 582 717 600 667 q 526 796 564 767 q 425 825 488 825 l 425 825 q 324 796 363 825 q 267 717 285 767 q 250 606 250 667 l 250 606 l 250 367 q 288 208 250 269 q 425 147 325 147 z m 476 1042 l 379 1042 l 351 1169 l 351 1186 l 486 1186 q 514 1167 492 1167 l 514 1167 q 535 1176 528 1167 q 542 1197 542 1185 l 542 1197 q 528 1224 542 1214 q 494 1233 515 1233 l 494 1233 q 425 1214 457 1233 l 425 1214 l 389 1308 q 440 1328 413 1321 q 506 1336 467 1336 l 506 1336 q 615 1299 571 1336 q 658 1197 658 1263 l 658 1197 q 629 1111 658 1147 q 543 1075 600 1075 l 543 1075 q 501 1084 517 1075 q 479 1106 486 1093 l 479 1106 l 463 1106 l 476 1042 z"},"Ơ":{"ha":850,"x_min":0,"x_max":0,"o":"m 303 -19 l 303 -19 q 94 60 169 -19 q 19 292 19 140 l 19 292 l 19 681 q 94 913 19 833 q 303 992 169 992 l 303 992 q 511 913 436 992 q 586 681 586 833 l 586 681 l 586 667 l 696 667 q 733 708 733 667 l 733 708 l 733 731 l 721 731 q 636 767 672 731 q 600 851 600 803 l 600 851 q 636 936 600 900 q 721 972 672 972 l 721 972 q 806 936 769 972 q 842 851 842 900 l 842 851 l 842 683 q 806 594 842 631 q 717 558 769 558 l 717 558 l 586 558 l 586 292 q 511 60 586 140 q 303 -19 436 -19 z m 303 156 l 303 156 q 376 187 349 156 q 403 281 403 218 l 403 281 l 403 692 q 376 785 403 754 q 303 817 349 817 l 303 817 q 230 785 257 817 q 203 692 203 754 l 203 692 l 203 281 q 230 187 203 218 q 303 156 257 156 z"},"Ớ":{"ha":850,"x_min":0,"x_max":0,"o":"m 303 -19 l 303 -19 q 94 60 169 -19 q 19 292 19 140 l 19 292 l 19 681 q 94 913 19 833 q 303 992 169 992 l 303 992 q 511 913 436 992 q 586 681 586 833 l 586 681 l 586 667 l 696 667 q 733 708 733 667 l 733 708 l 733 731 l 721 731 q 636 767 672 731 q 600 851 600 803 l 600 851 q 636 936 600 900 q 721 972 672 972 l 721 972 q 806 936 769 972 q 842 851 842 900 l 842 851 l 842 683 q 806 594 842 631 q 717 558 769 558 l 717 558 l 586 558 l 586 292 q 511 60 586 140 q 303 -19 436 -19 z m 303 156 l 303 156 q 376 187 349 156 q 403 281 403 218 l 403 281 l 403 692 q 376 785 403 754 q 303 817 349 817 l 303 817 q 230 785 257 817 q 203 692 203 754 l 203 692 l 203 281 q 230 187 203 218 q 303 156 257 156 z m 371 1075 l 229 1075 l 301 1264 l 488 1264 l 371 1075 z"},"Ợ":{"ha":850,"x_min":0,"x_max":0,"o":"m 303 -19 l 303 -19 q 94 60 169 -19 q 19 292 19 140 l 19 292 l 19 681 q 94 913 19 833 q 303 992 169 992 l 303 992 q 511 913 436 992 q 586 681 586 833 l 586 681 l 586 667 l 696 667 q 733 708 733 667 l 733 708 l 733 731 l 721 731 q 636 767 672 731 q 600 851 600 803 l 600 851 q 636 936 600 900 q 721 972 672 972 l 721 972 q 806 936 769 972 q 842 851 842 900 l 842 851 l 842 683 q 806 594 842 631 q 717 558 769 558 l 717 558 l 586 558 l 586 292 q 511 60 586 140 q 303 -19 436 -19 z m 303 156 l 303 156 q 376 187 349 156 q 403 281 403 218 l 403 281 l 403 692 q 376 785 403 754 q 303 817 349 817 l 303 817 q 230 785 257 817 q 203 692 203 754 l 203 692 l 203 281 q 230 187 203 218 q 303 156 257 156 z m 303 -353 l 303 -353 q 210 -315 249 -353 q 171 -221 171 -276 l 171 -221 q 210 -127 171 -165 q 303 -89 249 -89 l 303 -89 q 396 -127 357 -89 q 435 -221 435 -165 l 435 -221 q 396 -315 435 -276 q 303 -353 357 -353 z"},"Ờ":{"ha":850,"x_min":0,"x_max":0,"o":"m 303 -19 l 303 -19 q 94 60 169 -19 q 19 292 19 140 l 19 292 l 19 681 q 94 913 19 833 q 303 992 169 992 l 303 992 q 511 913 436 992 q 586 681 586 833 l 586 681 l 586 667 l 696 667 q 733 708 733 667 l 733 708 l 733 731 l 721 731 q 636 767 672 731 q 600 851 600 803 l 600 851 q 636 936 600 900 q 721 972 672 972 l 721 972 q 806 936 769 972 q 842 851 842 900 l 842 851 l 842 683 q 806 594 842 631 q 717 558 769 558 l 717 558 l 586 558 l 586 292 q 511 60 586 140 q 303 -19 436 -19 z m 303 156 l 303 156 q 376 187 349 156 q 403 281 403 218 l 403 281 l 403 692 q 376 785 403 754 q 303 817 349 817 l 303 817 q 230 785 257 817 q 203 692 203 754 l 203 692 l 203 281 q 230 187 203 218 q 303 156 257 156 z m 372 1075 l 231 1075 l 114 1264 l 300 1264 l 372 1075 z"},"Ở":{"ha":850,"x_min":0,"x_max":0,"o":"m 303 -19 l 303 -19 q 94 60 169 -19 q 19 292 19 140 l 19 292 l 19 681 q 94 913 19 833 q 303 992 169 992 l 303 992 q 511 913 436 992 q 586 681 586 833 l 586 681 l 586 667 l 696 667 q 733 708 733 667 l 733 708 l 733 731 l 721 731 q 636 767 672 731 q 600 851 600 803 l 600 851 q 636 936 600 900 q 721 972 672 972 l 721 972 q 806 936 769 972 q 842 851 842 900 l 842 851 l 842 683 q 806 594 842 631 q 717 558 769 558 l 717 558 l 586 558 l 586 292 q 511 60 586 140 q 303 -19 436 -19 z m 303 156 l 303 156 q 376 187 349 156 q 403 281 403 218 l 403 281 l 403 692 q 376 785 403 754 q 303 817 349 817 l 303 817 q 230 785 257 817 q 203 692 203 754 l 203 692 l 203 281 q 230 187 203 218 q 303 156 257 156 z m 354 1042 l 257 1042 l 229 1169 l 229 1186 l 364 1186 q 392 1167 369 1167 l 392 1167 q 413 1176 406 1167 q 419 1197 419 1185 l 419 1197 q 406 1224 419 1214 q 372 1233 393 1233 l 372 1233 q 303 1214 335 1233 l 303 1214 l 267 1308 q 317 1328 290 1321 q 383 1336 344 1336 l 383 1336 q 492 1299 449 1336 q 536 1197 536 1263 l 536 1197 q 507 1111 536 1147 q 421 1075 478 1075 l 421 1075 q 379 1084 394 1075 q 357 1106 364 1093 l 357 1106 l 340 1106 l 354 1042 z"},"Ỡ":{"ha":850,"x_min":0,"x_max":0,"o":"m 303 -19 l 303 -19 q 94 60 169 -19 q 19 292 19 140 l 19 292 l 19 681 q 94 913 19 833 q 303 992 169 992 l 303 992 q 511 913 436 992 q 586 681 586 833 l 586 681 l 586 667 l 696 667 q 733 708 733 667 l 733 708 l 733 731 l 721 731 q 636 767 672 731 q 600 851 600 803 l 600 851 q 636 936 600 900 q 721 972 672 972 l 721 972 q 806 936 769 972 q 842 851 842 900 l 842 851 l 842 683 q 806 594 842 631 q 717 558 769 558 l 717 558 l 586 558 l 586 292 q 511 60 586 140 q 303 -19 436 -19 z m 303 156 l 303 156 q 376 187 349 156 q 403 281 403 218 l 403 281 l 403 692 q 376 785 403 754 q 303 817 349 817 l 303 817 q 230 785 257 817 q 203 692 203 754 l 203 692 l 203 281 q 230 187 203 218 q 303 156 257 156 z m 171 1099 l 132 1049 l 31 1131 l 106 1225 q 160 1271 132 1258 q 222 1283 188 1283 l 222 1283 q 314 1242 276 1283 l 314 1242 q 349 1208 335 1218 q 379 1199 364 1199 l 379 1199 q 410 1209 397 1199 q 435 1233 424 1219 l 435 1233 l 475 1283 l 578 1204 l 500 1107 q 447 1063 475 1076 q 383 1049 419 1049 l 383 1049 q 331 1060 356 1049 q 283 1099 307 1072 l 283 1099 q 260 1122 274 1111 q 228 1133 246 1133 l 228 1133 q 196 1124 210 1133 q 171 1099 182 1114 l 171 1099 z"},"Ő":{"ha":850,"x_min":0,"x_max":0,"o":"m 425 -19 l 425 -19 q 163 83 258 -19 q 67 378 67 185 l 67 378 l 67 594 q 163 887 67 782 q 425 992 258 992 l 425 992 q 688 887 592 992 q 783 594 783 782 l 783 594 l 783 378 q 688 83 783 185 q 425 -19 592 -19 z m 425 147 l 425 147 q 563 208 525 147 q 600 367 600 269 l 600 367 l 600 606 q 582 717 600 667 q 526 796 564 767 q 425 825 488 825 l 425 825 q 324 796 363 825 q 267 717 285 767 q 250 606 250 667 l 250 606 l 250 367 q 288 208 250 269 q 425 147 325 147 z m 606 1075 l 464 1075 l 536 1264 l 722 1264 l 606 1075 z m 372 1075 l 231 1075 l 303 1264 l 489 1264 l 372 1075 z"},"Ō":{"ha":850,"x_min":0,"x_max":0,"o":"m 425 -19 l 425 -19 q 163 83 258 -19 q 67 378 67 185 l 67 378 l 67 594 q 163 887 67 782 q 425 992 258 992 l 425 992 q 688 887 592 992 q 783 594 783 782 l 783 594 l 783 378 q 688 83 783 185 q 425 -19 592 -19 z m 425 147 l 425 147 q 563 208 525 147 q 600 367 600 269 l 600 367 l 600 606 q 582 717 600 667 q 526 796 564 767 q 425 825 488 825 l 425 825 q 324 796 363 825 q 267 717 285 767 q 250 606 250 667 l 250 606 l 250 367 q 288 208 250 269 q 425 147 325 147 z m 629 1075 l 221 1075 l 221 1217 l 629 1217 l 629 1075 z"},"Ǫ":{"ha":850,"x_min":0,"x_max":0,"o":"m 563 -236 l 451 -236 q 375 -210 410 -236 q 340 -132 340 -183 l 340 -132 q 344 -100 340 -118 l 344 -100 l 363 -15 q 145 103 224 3 q 67 378 67 203 l 67 378 l 67 594 q 163 887 67 782 q 425 992 258 992 l 425 992 q 688 887 592 992 q 783 594 783 782 l 783 594 l 783 378 q 703 101 783 201 q 482 -15 622 0 l 482 -15 l 468 -78 q 467 -89 467 -85 l 467 -89 q 499 -119 467 -119 l 499 -119 l 563 -119 l 563 -236 z m 425 147 l 425 147 q 563 208 525 147 q 600 367 600 269 l 600 367 l 600 606 q 582 717 600 667 q 526 796 564 767 q 425 825 488 825 l 425 825 q 324 796 363 825 q 267 717 285 767 q 250 606 250 667 l 250 606 l 250 367 q 288 208 250 269 q 425 147 325 147 z"},"Ø":{"ha":850,"x_min":0,"x_max":0,"o":"m 349 -14 l 311 -129 l 158 -82 l 200 47 q 101 179 136 96 q 67 378 67 263 l 67 378 l 67 594 q 163 887 67 782 q 425 992 258 992 l 425 992 q 508 983 469 992 l 508 983 l 542 1085 l 693 1038 l 654 918 q 749 785 715 867 q 783 594 783 704 l 783 594 l 783 378 q 688 83 783 185 q 425 -19 592 -19 l 425 -19 q 385 -18 404 -19 q 349 -14 367 -17 l 349 -14 z m 267 249 l 267 249 l 456 822 q 440 824 449 824 q 425 825 432 825 l 425 825 q 324 796 363 825 q 267 717 285 767 q 250 606 250 667 l 250 606 l 250 367 q 253 303 250 332 q 267 249 257 274 z m 585 708 l 401 147 l 425 147 q 563 208 525 147 q 600 367 600 269 l 600 367 l 600 606 q 597 660 600 633 q 585 708 593 686 l 585 708 z"},"Õ":{"ha":850,"x_min":0,"x_max":0,"o":"m 425 -19 l 425 -19 q 163 83 258 -19 q 67 378 67 185 l 67 378 l 67 594 q 163 887 67 782 q 425 992 258 992 l 425 992 q 688 887 592 992 q 783 594 783 782 l 783 594 l 783 378 q 688 83 783 185 q 425 -19 592 -19 z m 425 147 l 425 147 q 563 208 525 147 q 600 367 600 269 l 600 367 l 600 606 q 582 717 600 667 q 526 796 564 767 q 425 825 488 825 l 425 825 q 324 796 363 825 q 267 717 285 767 q 250 606 250 667 l 250 606 l 250 367 q 288 208 250 269 q 425 147 325 147 z m 293 1099 l 254 1049 l 153 1131 l 228 1225 q 282 1271 254 1258 q 344 1283 310 1283 l 344 1283 q 436 1242 399 1283 l 436 1242 q 472 1208 457 1218 q 501 1199 486 1199 l 501 1199 q 533 1209 519 1199 q 557 1233 546 1219 l 557 1233 l 597 1283 l 700 1204 l 622 1107 q 569 1063 597 1076 q 506 1049 542 1049 l 506 1049 q 453 1060 478 1049 q 406 1099 429 1072 l 406 1099 q 382 1122 396 1111 q 350 1133 368 1133 l 350 1133 q 318 1124 332 1133 q 293 1099 304 1114 l 293 1099 z"},"Œ":{"ha":850,"x_min":0,"x_max":0,"o":"m 822 0 l 392 0 q 129 102 225 0 q 33 397 33 204 l 33 397 l 33 575 q 129 867 33 763 q 392 972 225 972 l 392 972 l 814 972 l 814 797 l 575 797 l 575 575 l 806 575 l 806 400 l 575 400 l 575 175 l 822 175 l 822 0 z m 392 175 l 392 175 l 392 797 q 258 738 299 797 q 217 586 217 678 l 217 586 l 217 386 q 254 232 217 289 q 392 175 292 175 z"},"P":{"ha":850,"x_min":0,"x_max":0,"o":"m 283 0 l 100 0 l 100 972 l 481 972 q 647 931 581 972 q 745 826 713 890 q 778 690 778 761 l 778 690 l 778 657 q 745 518 778 585 q 647 409 713 451 q 481 367 581 367 l 481 367 l 283 367 l 283 0 z m 283 797 l 283 542 l 463 542 q 559 575 524 542 q 594 661 594 608 l 594 661 l 594 678 q 559 764 594 731 q 463 797 524 797 l 463 797 l 283 797 z"},"Þ":{"ha":850,"x_min":0,"x_max":0,"o":"m 281 0 l 97 0 l 97 972 l 281 972 l 281 789 l 478 789 q 644 748 578 789 q 742 642 710 707 q 775 507 775 578 l 775 507 l 775 474 q 742 335 775 401 q 644 226 710 268 q 478 183 578 183 l 478 183 l 281 183 l 281 0 z m 281 614 l 281 358 l 460 358 q 556 392 521 358 q 592 478 592 425 l 592 478 l 592 494 q 556 581 592 547 q 460 614 521 614 l 460 614 l 281 614 z"},"Q":{"ha":850,"x_min":0,"x_max":0,"o":"m 633 -242 l 469 -242 q 376 -203 414 -242 q 338 -108 338 -164 l 338 -108 l 338 -11 q 138 112 210 13 q 67 378 67 211 l 67 378 l 67 594 q 163 887 67 782 q 425 992 258 992 l 425 992 q 688 887 592 992 q 783 594 783 782 l 783 594 l 783 378 q 712 112 783 211 q 513 -11 640 13 l 513 -11 l 513 -36 q 547 -75 513 -75 l 547 -75 l 633 -75 l 633 -242 z m 425 147 l 425 147 q 563 210 525 147 q 600 369 600 272 l 600 369 l 600 603 q 582 715 600 664 q 526 795 564 765 q 425 825 488 825 l 425 825 q 324 795 363 825 q 267 715 285 765 q 250 603 250 664 l 250 603 l 250 369 q 288 210 250 272 q 425 147 325 147 z"},"R":{"ha":850,"x_min":0,"x_max":0,"o":"m 285 0 l 101 0 l 101 972 l 474 972 q 642 936 574 972 q 744 840 710 900 q 779 704 779 779 l 779 704 l 779 671 q 747 559 779 611 q 649 479 714 507 l 649 479 l 649 454 q 726 417 697 449 q 754 336 754 385 l 754 336 l 754 0 l 571 0 l 571 292 q 553 346 571 325 q 496 367 536 367 l 496 367 l 285 367 l 285 0 z m 285 797 l 285 542 l 460 542 q 561 574 526 542 q 596 661 596 606 l 596 661 l 596 678 q 561 762 596 726 q 460 797 526 797 l 460 797 l 285 797 z"},"Ŕ":{"ha":850,"x_min":0,"x_max":0,"o":"m 285 0 l 101 0 l 101 972 l 474 972 q 642 936 574 972 q 744 840 710 900 q 779 704 779 779 l 779 704 l 779 671 q 747 559 779 611 q 649 479 714 507 l 649 479 l 649 454 q 726 417 697 449 q 754 336 754 385 l 754 336 l 754 0 l 571 0 l 571 292 q 553 346 571 325 q 496 367 536 367 l 496 367 l 285 367 l 285 0 z m 285 797 l 285 542 l 460 542 q 561 574 526 542 q 596 661 596 606 l 596 661 l 596 678 q 561 762 596 726 q 460 797 526 797 l 460 797 l 285 797 z m 474 1075 l 332 1075 l 404 1264 l 590 1264 l 474 1075 z"},"Ř":{"ha":850,"x_min":0,"x_max":0,"o":"m 285 0 l 101 0 l 101 972 l 474 972 q 642 936 574 972 q 744 840 710 900 q 779 704 779 779 l 779 704 l 779 671 q 747 559 779 611 q 649 479 714 507 l 649 479 l 649 454 q 726 417 697 449 q 754 336 754 385 l 754 336 l 754 0 l 571 0 l 571 292 q 553 346 571 325 q 496 367 536 367 l 496 367 l 285 367 l 285 0 z m 285 797 l 285 542 l 460 542 q 561 574 526 542 q 596 661 596 606 l 596 661 l 596 678 q 561 762 596 726 q 460 797 526 797 l 460 797 l 285 797 z m 525 1075 l 286 1075 l 169 1264 l 338 1264 l 397 1142 l 414 1142 l 474 1264 l 642 1264 l 525 1075 z"},"Ŗ":{"ha":850,"x_min":0,"x_max":0,"o":"m 285 0 l 101 0 l 101 972 l 474 972 q 642 936 574 972 q 744 840 710 900 q 779 704 779 779 l 779 704 l 779 671 q 747 559 779 611 q 649 479 714 507 l 649 479 l 649 454 q 726 417 697 449 q 754 336 754 385 l 754 336 l 754 0 l 571 0 l 571 292 q 553 346 571 325 q 496 367 536 367 l 496 367 l 285 367 l 285 0 z m 285 797 l 285 542 l 460 542 q 561 574 526 542 q 596 661 596 606 l 596 661 l 596 678 q 561 762 596 726 q 460 797 526 797 l 460 797 l 285 797 z m 421 -469 l 338 -469 l 338 -361 l 400 -361 q 438 -319 438 -361 l 438 -319 l 438 -303 l 425 -303 q 340 -267 376 -303 q 304 -182 304 -231 l 304 -182 q 340 -97 304 -133 q 425 -61 376 -61 l 425 -61 q 510 -97 474 -61 q 546 -182 546 -133 l 546 -182 l 546 -344 q 510 -433 546 -397 q 421 -469 474 -469 l 421 -469 z"},"Ṛ":{"ha":850,"x_min":0,"x_max":0,"o":"m 285 0 l 101 0 l 101 972 l 474 972 q 642 936 574 972 q 744 840 710 900 q 779 704 779 779 l 779 704 l 779 671 q 747 559 779 611 q 649 479 714 507 l 649 479 l 649 454 q 726 417 697 449 q 754 336 754 385 l 754 336 l 754 0 l 571 0 l 571 292 q 553 346 571 325 q 496 367 536 367 l 496 367 l 285 367 l 285 0 z m 285 797 l 285 542 l 460 542 q 561 574 526 542 q 596 661 596 606 l 596 661 l 596 678 q 561 762 596 726 q 460 797 526 797 l 460 797 l 285 797 z m 425 -353 l 425 -353 q 332 -315 371 -353 q 293 -221 293 -276 l 293 -221 q 332 -127 293 -165 q 425 -89 371 -89 l 425 -89 q 518 -127 479 -89 q 557 -221 557 -165 l 557 -221 q 518 -315 557 -276 q 425 -353 479 -353 z"},"Ṝ":{"ha":850,"x_min":0,"x_max":0,"o":"m 285 0 l 101 0 l 101 972 l 474 972 q 642 936 574 972 q 744 840 710 900 q 779 704 779 779 l 779 704 l 779 671 q 747 559 779 611 q 649 479 714 507 l 649 479 l 649 454 q 726 417 697 449 q 754 336 754 385 l 754 336 l 754 0 l 571 0 l 571 292 q 553 346 571 325 q 496 367 536 367 l 496 367 l 285 367 l 285 0 z m 285 797 l 285 542 l 460 542 q 561 574 526 542 q 596 661 596 606 l 596 661 l 596 678 q 561 762 596 726 q 460 797 526 797 l 460 797 l 285 797 z m 425 -353 l 425 -353 q 332 -315 371 -353 q 293 -221 293 -276 l 293 -221 q 332 -127 293 -165 q 425 -89 371 -89 l 425 -89 q 518 -127 479 -89 q 557 -221 557 -165 l 557 -221 q 518 -315 557 -276 q 425 -353 479 -353 z m 610 1075 l 201 1075 l 201 1217 l 610 1217 l 610 1075 z"},"Ṟ":{"ha":850,"x_min":0,"x_max":0,"o":"m 285 0 l 101 0 l 101 972 l 474 972 q 642 936 574 972 q 744 840 710 900 q 779 704 779 779 l 779 704 l 779 671 q 747 559 779 611 q 649 479 714 507 l 649 479 l 649 454 q 726 417 697 449 q 754 336 754 385 l 754 336 l 754 0 l 571 0 l 571 292 q 553 346 571 325 q 496 367 536 367 l 496 367 l 285 367 l 285 0 z m 285 797 l 285 542 l 460 542 q 561 574 526 542 q 596 661 596 606 l 596 661 l 596 678 q 561 762 596 726 q 460 797 526 797 l 460 797 l 285 797 z m 629 -228 l 221 -228 l 221 -86 l 629 -86 l 629 -228 z"},"S":{"ha":850,"x_min":0,"x_max":0,"o":"m 439 -19 l 439 -19 q 224 27 311 -19 q 94 154 138 74 q 50 336 50 235 l 50 336 l 50 378 l 233 378 l 233 344 q 285 205 233 257 q 442 153 336 153 l 442 153 q 565 189 525 153 q 606 275 606 225 l 606 275 q 590 334 606 307 q 535 381 575 361 q 419 414 494 401 l 419 414 q 247 463 322 431 q 127 552 171 494 q 83 706 83 610 l 83 706 l 83 714 q 125 856 83 793 q 242 956 167 919 q 419 992 318 992 l 419 992 q 614 950 535 992 q 734 840 693 908 q 775 692 775 771 l 775 692 l 775 642 l 592 642 l 592 675 q 547 776 592 733 q 419 819 501 819 l 419 819 q 310 791 351 819 q 269 714 269 763 l 269 714 q 313 633 269 664 q 478 581 357 603 l 478 581 q 711 488 631 554 q 792 294 792 422 l 792 294 l 792 278 q 697 62 792 143 q 439 -19 603 -19 z"},"Ś":{"ha":850,"x_min":0,"x_max":0,"o":"m 439 -19 l 439 -19 q 224 27 311 -19 q 94 154 138 74 q 50 336 50 235 l 50 336 l 50 378 l 233 378 l 233 344 q 285 205 233 257 q 442 153 336 153 l 442 153 q 565 189 525 153 q 606 275 606 225 l 606 275 q 590 334 606 307 q 535 381 575 361 q 419 414 494 401 l 419 414 q 247 463 322 431 q 127 552 171 494 q 83 706 83 610 l 83 706 l 83 714 q 125 856 83 793 q 242 956 167 919 q 419 992 318 992 l 419 992 q 614 950 535 992 q 734 840 693 908 q 775 692 775 771 l 775 692 l 775 642 l 592 642 l 592 675 q 547 776 592 733 q 419 819 501 819 l 419 819 q 310 791 351 819 q 269 714 269 763 l 269 714 q 313 633 269 664 q 478 581 357 603 l 478 581 q 711 488 631 554 q 792 294 792 422 l 792 294 l 792 278 q 697 62 792 143 q 439 -19 603 -19 z m 493 1075 l 351 1075 l 424 1264 l 610 1264 l 493 1075 z"},"Š":{"ha":850,"x_min":0,"x_max":0,"o":"m 439 -19 l 439 -19 q 224 27 311 -19 q 94 154 138 74 q 50 336 50 235 l 50 336 l 50 378 l 233 378 l 233 344 q 285 205 233 257 q 442 153 336 153 l 442 153 q 565 189 525 153 q 606 275 606 225 l 606 275 q 590 334 606 307 q 535 381 575 361 q 419 414 494 401 l 419 414 q 247 463 322 431 q 127 552 171 494 q 83 706 83 610 l 83 706 l 83 714 q 125 856 83 793 q 242 956 167 919 q 419 992 318 992 l 419 992 q 614 950 535 992 q 734 840 693 908 q 775 692 775 771 l 775 692 l 775 642 l 592 642 l 592 675 q 547 776 592 733 q 419 819 501 819 l 419 819 q 310 791 351 819 q 269 714 269 763 l 269 714 q 313 633 269 664 q 478 581 357 603 l 478 581 q 711 488 631 554 q 792 294 792 422 l 792 294 l 792 278 q 697 62 792 143 q 439 -19 603 -19 z m 544 1075 l 306 1075 l 189 1264 l 357 1264 l 417 1142 l 433 1142 l 493 1264 l 661 1264 l 544 1075 z"},"Ş":{"ha":850,"x_min":0,"x_max":0,"o":"m 458 -294 l 458 -294 q 392 -287 419 -294 q 342 -267 365 -279 l 342 -267 l 378 -172 q 447 -192 410 -192 l 447 -192 q 481 -182 468 -192 q 494 -156 494 -172 l 494 -156 q 488 -134 494 -143 q 467 -125 481 -125 l 467 -125 q 439 -144 444 -125 l 439 -144 l 304 -144 l 304 -128 l 329 -8 q 120 113 190 19 q 50 336 50 207 l 50 336 l 50 378 l 233 378 l 233 344 q 285 205 233 257 q 442 153 336 153 l 442 153 q 565 189 525 153 q 606 275 606 225 l 606 275 q 590 334 606 307 q 535 381 575 361 q 419 414 494 401 l 419 414 q 247 463 322 431 q 127 552 171 494 q 83 706 83 610 l 83 706 l 83 714 q 125 856 83 793 q 242 956 167 919 q 419 992 318 992 l 419 992 q 614 950 535 992 q 734 840 693 908 q 775 692 775 771 l 775 692 l 775 642 l 592 642 l 592 675 q 547 776 592 733 q 419 819 501 819 l 419 819 q 310 791 351 819 q 269 714 269 763 l 269 714 q 313 633 269 664 q 478 581 357 603 l 478 581 q 711 488 631 554 q 792 294 792 422 l 792 294 l 792 278 q 697 62 792 143 q 439 -19 603 -19 l 439 -19 l 425 -19 l 415 -64 l 432 -64 q 454 -42 439 -51 q 496 -33 469 -33 l 496 -33 q 582 -69 553 -33 q 611 -156 611 -106 l 611 -156 q 567 -257 611 -219 q 458 -294 524 -294 z"},"Ŝ":{"ha":850,"x_min":0,"x_max":0,"o":"m 439 -19 l 439 -19 q 224 27 311 -19 q 94 154 138 74 q 50 336 50 235 l 50 336 l 50 378 l 233 378 l 233 344 q 285 205 233 257 q 442 153 336 153 l 442 153 q 565 189 525 153 q 606 275 606 225 l 606 275 q 590 334 606 307 q 535 381 575 361 q 419 414 494 401 l 419 414 q 247 463 322 431 q 127 552 171 494 q 83 706 83 610 l 83 706 l 83 714 q 125 856 83 793 q 242 956 167 919 q 419 992 318 992 l 419 992 q 614 950 535 992 q 734 840 693 908 q 775 692 775 771 l 775 692 l 775 642 l 592 642 l 592 675 q 547 776 592 733 q 419 819 501 819 l 419 819 q 310 791 351 819 q 269 714 269 763 l 269 714 q 313 633 269 664 q 478 581 357 603 l 478 581 q 711 488 631 554 q 792 294 792 422 l 792 294 l 792 278 q 697 62 792 143 q 439 -19 603 -19 z m 357 1075 l 189 1075 l 306 1264 l 544 1264 l 661 1075 l 493 1075 l 433 1197 l 417 1197 l 357 1075 z"},"Ș":{"ha":850,"x_min":0,"x_max":0,"o":"m 439 -19 l 439 -19 q 224 27 311 -19 q 94 154 138 74 q 50 336 50 235 l 50 336 l 50 378 l 233 378 l 233 344 q 285 205 233 257 q 442 153 336 153 l 442 153 q 565 189 525 153 q 606 275 606 225 l 606 275 q 590 334 606 307 q 535 381 575 361 q 419 414 494 401 l 419 414 q 247 463 322 431 q 127 552 171 494 q 83 706 83 610 l 83 706 l 83 714 q 125 856 83 793 q 242 956 167 919 q 419 992 318 992 l 419 992 q 614 950 535 992 q 734 840 693 908 q 775 692 775 771 l 775 692 l 775 642 l 592 642 l 592 675 q 547 776 592 733 q 419 819 501 819 l 419 819 q 310 791 351 819 q 269 714 269 763 l 269 714 q 313 633 269 664 q 478 581 357 603 l 478 581 q 711 488 631 554 q 792 294 792 422 l 792 294 l 792 278 q 697 62 792 143 q 439 -19 603 -19 z m 435 -469 l 351 -469 l 351 -361 l 414 -361 q 451 -319 451 -361 l 451 -319 l 451 -303 l 439 -303 q 354 -267 390 -303 q 318 -182 318 -231 l 318 -182 q 354 -97 318 -133 q 439 -61 390 -61 l 439 -61 q 524 -97 488 -61 q 560 -182 560 -133 l 560 -182 l 560 -344 q 524 -433 560 -397 q 435 -469 488 -469 l 435 -469 z"},"Ṡ":{"ha":850,"x_min":0,"x_max":0,"o":"m 439 -19 l 439 -19 q 224 27 311 -19 q 94 154 138 74 q 50 336 50 235 l 50 336 l 50 378 l 233 378 l 233 344 q 285 205 233 257 q 442 153 336 153 l 442 153 q 565 189 525 153 q 606 275 606 225 l 606 275 q 590 334 606 307 q 535 381 575 361 q 419 414 494 401 l 419 414 q 247 463 322 431 q 127 552 171 494 q 83 706 83 610 l 83 706 l 83 714 q 125 856 83 793 q 242 956 167 919 q 419 992 318 992 l 419 992 q 614 950 535 992 q 734 840 693 908 q 775 692 775 771 l 775 692 l 775 642 l 592 642 l 592 675 q 547 776 592 733 q 419 819 501 819 l 419 819 q 310 791 351 819 q 269 714 269 763 l 269 714 q 313 633 269 664 q 478 581 357 603 l 478 581 q 711 488 631 554 q 792 294 792 422 l 792 294 l 792 278 q 697 62 792 143 q 439 -19 603 -19 z m 425 1065 l 425 1065 q 332 1103 371 1065 q 293 1197 293 1142 l 293 1197 q 332 1291 293 1253 q 425 1329 371 1329 l 425 1329 q 518 1291 479 1329 q 557 1197 557 1253 l 557 1197 q 518 1103 557 1142 q 425 1065 479 1065 z"},"Ṣ":{"ha":850,"x_min":0,"x_max":0,"o":"m 439 -19 l 439 -19 q 224 27 311 -19 q 94 154 138 74 q 50 336 50 235 l 50 336 l 50 378 l 233 378 l 233 344 q 285 205 233 257 q 442 153 336 153 l 442 153 q 565 189 525 153 q 606 275 606 225 l 606 275 q 590 334 606 307 q 535 381 575 361 q 419 414 494 401 l 419 414 q 247 463 322 431 q 127 552 171 494 q 83 706 83 610 l 83 706 l 83 714 q 125 856 83 793 q 242 956 167 919 q 419 992 318 992 l 419 992 q 614 950 535 992 q 734 840 693 908 q 775 692 775 771 l 775 692 l 775 642 l 592 642 l 592 675 q 547 776 592 733 q 419 819 501 819 l 419 819 q 310 791 351 819 q 269 714 269 763 l 269 714 q 313 633 269 664 q 478 581 357 603 l 478 581 q 711 488 631 554 q 792 294 792 422 l 792 294 l 792 278 q 697 62 792 143 q 439 -19 603 -19 z m 439 -353 l 439 -353 q 346 -315 385 -353 q 307 -221 307 -276 l 307 -221 q 346 -127 307 -165 q 439 -89 385 -89 l 439 -89 q 532 -127 493 -89 q 571 -221 571 -165 l 571 -221 q 532 -315 571 -276 q 439 -353 493 -353 z"},"ẞ":{"ha":850,"x_min":0,"x_max":0,"o":"m 314 0 l 131 0 l 131 522 l 47 522 l 47 689 l 131 689 l 131 694 q 173 848 131 786 q 285 941 215 910 q 436 972 354 972 l 436 972 l 742 972 l 742 656 l 525 581 l 525 556 l 550 556 q 687 523 626 556 q 782 431 747 490 q 817 292 817 372 l 817 292 l 817 283 q 781 139 817 203 q 678 38 746 75 q 515 0 611 0 l 515 0 l 392 0 l 392 175 l 508 175 q 601 206 569 175 q 633 288 633 236 l 633 288 q 601 369 633 339 q 508 400 569 400 l 508 400 l 392 400 l 392 697 l 608 772 l 608 797 l 444 797 q 350 772 386 797 q 314 681 314 747 l 314 681 l 314 0 z"},"T":{"ha":850,"x_min":0,"x_max":0,"o":"m 517 0 l 333 0 l 333 797 l 75 797 l 75 972 l 775 972 l 775 797 l 517 797 l 517 0 z"},"Ŧ":{"ha":850,"x_min":0,"x_max":0,"o":"m 517 0 l 333 0 l 333 457 l 142 457 l 142 624 l 333 624 l 333 797 l 75 797 l 75 972 l 775 972 l 775 797 l 517 797 l 517 624 l 708 624 l 708 457 l 517 457 l 517 0 z"},"Ť":{"ha":850,"x_min":0,"x_max":0,"o":"m 517 0 l 333 0 l 333 797 l 75 797 l 75 972 l 775 972 l 775 797 l 517 797 l 517 0 z m 544 1075 l 306 1075 l 189 1264 l 357 1264 l 417 1142 l 433 1142 l 493 1264 l 661 1264 l 544 1075 z"},"Ţ":{"ha":850,"x_min":0,"x_max":0,"o":"m 460 -294 l 460 -294 q 394 -287 421 -294 q 343 -267 367 -279 l 343 -267 l 379 -172 q 449 -192 411 -192 l 449 -192 q 483 -182 469 -192 q 496 -156 496 -172 l 496 -156 q 489 -134 496 -143 q 468 -125 482 -125 l 468 -125 q 440 -144 446 -125 l 440 -144 l 306 -144 l 306 -128 l 333 0 l 333 797 l 75 797 l 75 972 l 775 972 l 775 797 l 517 797 l 517 0 l 431 0 l 417 -64 l 433 -64 q 456 -42 440 -51 q 497 -33 471 -33 l 497 -33 q 583 -69 554 -33 q 613 -156 613 -106 l 613 -156 q 569 -257 613 -219 q 460 -294 525 -294 z"},"Ț":{"ha":850,"x_min":0,"x_max":0,"o":"m 517 0 l 333 0 l 333 797 l 75 797 l 75 972 l 775 972 l 775 797 l 517 797 l 517 0 z m 421 -469 l 338 -469 l 338 -361 l 400 -361 q 438 -319 438 -361 l 438 -319 l 438 -303 l 425 -303 q 340 -267 376 -303 q 304 -182 304 -231 l 304 -182 q 340 -97 304 -133 q 425 -61 376 -61 l 425 -61 q 510 -97 474 -61 q 546 -182 546 -133 l 546 -182 l 546 -344 q 510 -433 546 -397 q 421 -469 474 -469 l 421 -469 z"},"Ṭ":{"ha":850,"x_min":0,"x_max":0,"o":"m 517 0 l 333 0 l 333 797 l 75 797 l 75 972 l 775 972 l 775 797 l 517 797 l 517 0 z m 425 -353 l 425 -353 q 332 -315 371 -353 q 293 -221 293 -276 l 293 -221 q 332 -127 293 -165 q 425 -89 371 -89 l 425 -89 q 518 -127 479 -89 q 557 -221 557 -165 l 557 -221 q 518 -315 557 -276 q 425 -353 479 -353 z"},"Ṯ":{"ha":850,"x_min":0,"x_max":0,"o":"m 517 0 l 333 0 l 333 797 l 75 797 l 75 972 l 775 972 l 775 797 l 517 797 l 517 0 z m 629 -228 l 221 -228 l 221 -86 l 629 -86 l 629 -228 z"},"U":{"ha":850,"x_min":0,"x_max":0,"o":"m 425 -19 l 425 -19 q 164 76 253 -19 q 75 336 75 171 l 75 336 l 75 972 l 258 972 l 258 336 q 299 202 258 251 q 425 153 340 153 l 425 153 q 551 202 511 153 q 592 336 592 251 l 592 336 l 592 972 l 775 972 l 775 336 q 687 76 775 171 q 425 -19 599 -19 z"},"Ú":{"ha":850,"x_min":0,"x_max":0,"o":"m 425 -19 l 425 -19 q 164 76 253 -19 q 75 336 75 171 l 75 336 l 75 972 l 258 972 l 258 336 q 299 202 258 251 q 425 153 340 153 l 425 153 q 551 202 511 153 q 592 336 592 251 l 592 336 l 592 972 l 775 972 l 775 336 q 687 76 775 171 q 425 -19 599 -19 z m 493 1075 l 351 1075 l 424 1264 l 610 1264 l 493 1075 z"},"Ŭ":{"ha":850,"x_min":0,"x_max":0,"o":"m 425 -19 l 425 -19 q 164 76 253 -19 q 75 336 75 171 l 75 336 l 75 972 l 258 972 l 258 336 q 299 202 258 251 q 425 153 340 153 l 425 153 q 551 202 511 153 q 592 336 592 251 l 592 336 l 592 972 l 775 972 l 775 336 q 687 76 775 171 q 425 -19 599 -19 z m 425 1074 l 425 1074 q 293 1119 344 1074 q 242 1243 242 1164 l 242 1243 l 242 1263 l 367 1263 l 367 1254 q 381 1213 367 1229 q 425 1196 396 1196 l 425 1196 q 469 1213 454 1196 q 483 1254 483 1229 l 483 1254 l 483 1263 l 608 1263 l 608 1243 q 558 1119 608 1164 q 425 1074 507 1074 z"},"Ǔ":{"ha":850,"x_min":0,"x_max":0,"o":"m 425 -19 l 425 -19 q 164 76 253 -19 q 75 336 75 171 l 75 336 l 75 972 l 258 972 l 258 336 q 299 202 258 251 q 425 153 340 153 l 425 153 q 551 202 511 153 q 592 336 592 251 l 592 336 l 592 972 l 775 972 l 775 336 q 687 76 775 171 q 425 -19 599 -19 z m 544 1075 l 306 1075 l 189 1264 l 357 1264 l 417 1142 l 433 1142 l 493 1264 l 661 1264 l 544 1075 z"},"Û":{"ha":850,"x_min":0,"x_max":0,"o":"m 425 -19 l 425 -19 q 164 76 253 -19 q 75 336 75 171 l 75 336 l 75 972 l 258 972 l 258 336 q 299 202 258 251 q 425 153 340 153 l 425 153 q 551 202 511 153 q 592 336 592 251 l 592 336 l 592 972 l 775 972 l 775 336 q 687 76 775 171 q 425 -19 599 -19 z m 357 1075 l 189 1075 l 306 1264 l 544 1264 l 661 1075 l 493 1075 l 433 1197 l 417 1197 l 357 1075 z"},"Ü":{"ha":850,"x_min":0,"x_max":0,"o":"m 425 -19 l 425 -19 q 164 76 253 -19 q 75 336 75 171 l 75 336 l 75 972 l 258 972 l 258 336 q 299 202 258 251 q 425 153 340 153 l 425 153 q 551 202 511 153 q 592 336 592 251 l 592 336 l 592 972 l 775 972 l 775 336 q 687 76 775 171 q 425 -19 599 -19 z m 590 1040 l 590 1040 q 497 1078 536 1040 q 458 1172 458 1117 l 458 1172 q 497 1266 458 1228 q 590 1304 536 1304 l 590 1304 q 683 1266 644 1304 q 722 1172 722 1228 l 722 1172 q 683 1078 722 1117 q 590 1040 644 1040 z m 260 1040 l 260 1040 q 167 1078 206 1040 q 128 1172 128 1117 l 128 1172 q 167 1266 128 1228 q 260 1304 206 1304 l 260 1304 q 353 1266 314 1304 q 392 1172 392 1228 l 392 1172 q 353 1078 392 1117 q 260 1040 314 1040 z"},"Ǘ":{"ha":850,"x_min":0,"x_max":0,"o":"m 425 -19 l 425 -19 q 164 76 253 -19 q 75 336 75 171 l 75 336 l 75 972 l 258 972 l 258 336 q 299 202 258 251 q 425 153 340 153 l 425 153 q 551 202 511 153 q 592 336 592 251 l 592 336 l 592 972 l 775 972 l 775 336 q 687 76 775 171 q 425 -19 599 -19 z m 590 1026 l 590 1026 q 497 1065 536 1026 q 458 1158 458 1103 l 458 1158 q 497 1252 458 1214 q 590 1290 536 1290 l 590 1290 q 683 1252 644 1290 q 722 1158 722 1214 l 722 1158 q 683 1065 722 1103 q 590 1026 644 1026 z m 260 1026 l 260 1026 q 167 1065 206 1026 q 128 1158 128 1103 l 128 1158 q 167 1252 128 1214 q 260 1290 206 1290 l 260 1290 q 353 1252 314 1290 q 392 1158 392 1214 l 392 1158 q 353 1065 392 1103 q 260 1026 314 1026 z m 604 1324 l 463 1324 l 535 1513 l 721 1513 l 604 1324 z"},"Ǚ":{"ha":850,"x_min":0,"x_max":0,"o":"m 425 -19 l 425 -19 q 164 76 253 -19 q 75 336 75 171 l 75 336 l 75 972 l 258 972 l 258 336 q 299 202 258 251 q 425 153 340 153 l 425 153 q 551 202 511 153 q 592 336 592 251 l 592 336 l 592 972 l 775 972 l 775 336 q 687 76 775 171 q 425 -19 599 -19 z m 590 1026 l 590 1026 q 497 1065 536 1026 q 458 1158 458 1103 l 458 1158 q 497 1252 458 1214 q 590 1290 536 1290 l 590 1290 q 683 1252 644 1290 q 722 1158 722 1214 l 722 1158 q 683 1065 722 1103 q 590 1026 644 1026 z m 260 1026 l 260 1026 q 167 1065 206 1026 q 128 1158 128 1103 l 128 1158 q 167 1252 128 1214 q 260 1290 206 1290 l 260 1290 q 353 1252 314 1290 q 392 1158 392 1214 l 392 1158 q 353 1065 392 1103 q 260 1026 314 1026 z m 546 1329 l 307 1329 l 190 1518 l 358 1518 l 418 1396 l 435 1396 l 494 1518 l 663 1518 l 546 1329 z"},"Ǜ":{"ha":850,"x_min":0,"x_max":0,"o":"m 425 -19 l 425 -19 q 164 76 253 -19 q 75 336 75 171 l 75 336 l 75 972 l 258 972 l 258 336 q 299 202 258 251 q 425 153 340 153 l 425 153 q 551 202 511 153 q 592 336 592 251 l 592 336 l 592 972 l 775 972 l 775 336 q 687 76 775 171 q 425 -19 599 -19 z m 590 1026 l 590 1026 q 497 1065 536 1026 q 458 1158 458 1103 l 458 1158 q 497 1252 458 1214 q 590 1290 536 1290 l 590 1290 q 683 1252 644 1290 q 722 1158 722 1214 l 722 1158 q 683 1065 722 1103 q 590 1026 644 1026 z m 260 1026 l 260 1026 q 167 1065 206 1026 q 128 1158 128 1103 l 128 1158 q 167 1252 128 1214 q 260 1290 206 1290 l 260 1290 q 353 1252 314 1290 q 392 1158 392 1214 l 392 1158 q 353 1065 392 1103 q 260 1026 314 1026 z m 494 1310 l 353 1310 l 236 1499 l 422 1499 l 494 1310 z"},"Ǖ":{"ha":850,"x_min":0,"x_max":0,"o":"m 425 -19 l 425 -19 q 164 76 253 -19 q 75 336 75 171 l 75 336 l 75 972 l 258 972 l 258 336 q 299 202 258 251 q 425 153 340 153 l 425 153 q 551 202 511 153 q 592 336 592 251 l 592 336 l 592 972 l 775 972 l 775 336 q 687 76 775 171 q 425 -19 599 -19 z m 590 1022 l 590 1022 q 497 1060 536 1022 q 458 1154 458 1099 l 458 1154 q 497 1248 458 1210 q 590 1286 536 1286 l 590 1286 q 683 1248 644 1286 q 722 1154 722 1210 l 722 1154 q 683 1060 722 1099 q 590 1022 644 1022 z m 260 1022 l 260 1022 q 167 1060 206 1022 q 128 1154 128 1099 l 128 1154 q 167 1248 128 1210 q 260 1286 206 1286 l 260 1286 q 353 1248 314 1286 q 392 1154 392 1210 l 392 1154 q 353 1060 392 1099 q 260 1022 314 1022 z m 631 1325 l 222 1325 l 222 1467 l 631 1467 l 631 1325 z"},"Ụ":{"ha":850,"x_min":0,"x_max":0,"o":"m 425 -19 l 425 -19 q 164 76 253 -19 q 75 336 75 171 l 75 336 l 75 972 l 258 972 l 258 336 q 299 202 258 251 q 425 153 340 153 l 425 153 q 551 202 511 153 q 592 336 592 251 l 592 336 l 592 972 l 775 972 l 775 336 q 687 76 775 171 q 425 -19 599 -19 z m 425 -353 l 425 -353 q 332 -315 371 -353 q 293 -221 293 -276 l 293 -221 q 332 -127 293 -165 q 425 -89 371 -89 l 425 -89 q 518 -127 479 -89 q 557 -221 557 -165 l 557 -221 q 518 -315 557 -276 q 425 -353 479 -353 z"},"Ù":{"ha":850,"x_min":0,"x_max":0,"o":"m 425 -19 l 425 -19 q 164 76 253 -19 q 75 336 75 171 l 75 336 l 75 972 l 258 972 l 258 336 q 299 202 258 251 q 425 153 340 153 l 425 153 q 551 202 511 153 q 592 336 592 251 l 592 336 l 592 972 l 775 972 l 775 336 q 687 76 775 171 q 425 -19 599 -19 z m 494 1075 l 353 1075 l 236 1264 l 422 1264 l 494 1075 z"},"Ủ":{"ha":850,"x_min":0,"x_max":0,"o":"m 425 -19 l 425 -19 q 164 76 253 -19 q 75 336 75 171 l 75 336 l 75 972 l 258 972 l 258 336 q 299 202 258 251 q 425 153 340 153 l 425 153 q 551 202 511 153 q 592 336 592 251 l 592 336 l 592 972 l 775 972 l 775 336 q 687 76 775 171 q 425 -19 599 -19 z m 476 1042 l 379 1042 l 351 1169 l 351 1186 l 486 1186 q 514 1167 492 1167 l 514 1167 q 535 1176 528 1167 q 542 1197 542 1185 l 542 1197 q 528 1224 542 1214 q 494 1233 515 1233 l 494 1233 q 425 1214 457 1233 l 425 1214 l 389 1308 q 440 1328 413 1321 q 506 1336 467 1336 l 506 1336 q 615 1299 571 1336 q 658 1197 658 1263 l 658 1197 q 629 1111 658 1147 q 543 1075 600 1075 l 543 1075 q 501 1084 517 1075 q 479 1106 486 1093 l 479 1106 l 463 1106 l 476 1042 z"},"Ư":{"ha":850,"x_min":0,"x_max":0,"o":"m 292 -19 l 292 -19 q 25 275 25 -19 l 25 275 l 25 972 l 208 972 l 208 256 q 227 182 208 208 q 292 156 246 156 l 292 156 q 356 182 338 156 q 375 256 375 208 l 375 256 l 375 972 l 558 972 l 558 667 l 696 667 q 733 708 733 667 l 733 708 l 733 731 l 721 731 q 636 767 672 731 q 600 851 600 803 l 600 851 q 636 936 600 900 q 721 972 672 972 l 721 972 q 806 936 769 972 q 842 851 842 900 l 842 851 l 842 683 q 806 594 842 631 q 717 558 769 558 l 717 558 l 558 558 l 558 275 q 292 -19 558 -19 z"},"Ứ":{"ha":850,"x_min":0,"x_max":0,"o":"m 292 -19 l 292 -19 q 25 275 25 -19 l 25 275 l 25 972 l 208 972 l 208 256 q 227 182 208 208 q 292 156 246 156 l 292 156 q 356 182 338 156 q 375 256 375 208 l 375 256 l 375 972 l 558 972 l 558 667 l 696 667 q 733 708 733 667 l 733 708 l 733 731 l 721 731 q 636 767 672 731 q 600 851 600 803 l 600 851 q 636 936 600 900 q 721 972 672 972 l 721 972 q 806 936 769 972 q 842 851 842 900 l 842 851 l 842 683 q 806 594 842 631 q 717 558 769 558 l 717 558 l 558 558 l 558 275 q 292 -19 558 -19 z m 358 1075 l 217 1075 l 289 1264 l 475 1264 l 358 1075 z"},"Ự":{"ha":850,"x_min":0,"x_max":0,"o":"m 292 -19 l 292 -19 q 25 275 25 -19 l 25 275 l 25 972 l 208 972 l 208 256 q 227 182 208 208 q 292 156 246 156 l 292 156 q 356 182 338 156 q 375 256 375 208 l 375 256 l 375 972 l 558 972 l 558 667 l 696 667 q 733 708 733 667 l 733 708 l 733 731 l 721 731 q 636 767 672 731 q 600 851 600 803 l 600 851 q 636 936 600 900 q 721 972 672 972 l 721 972 q 806 936 769 972 q 842 851 842 900 l 842 851 l 842 683 q 806 594 842 631 q 717 558 769 558 l 717 558 l 558 558 l 558 275 q 292 -19 558 -19 z m 289 -353 l 289 -353 q 196 -315 235 -353 q 157 -221 157 -276 l 157 -221 q 196 -127 157 -165 q 289 -89 235 -89 l 289 -89 q 382 -127 343 -89 q 421 -221 421 -165 l 421 -221 q 382 -315 421 -276 q 289 -353 343 -353 z"},"Ừ":{"ha":850,"x_min":0,"x_max":0,"o":"m 292 -19 l 292 -19 q 25 275 25 -19 l 25 275 l 25 972 l 208 972 l 208 256 q 227 182 208 208 q 292 156 246 156 l 292 156 q 356 182 338 156 q 375 256 375 208 l 375 256 l 375 972 l 558 972 l 558 667 l 696 667 q 733 708 733 667 l 733 708 l 733 731 l 721 731 q 636 767 672 731 q 600 851 600 803 l 600 851 q 636 936 600 900 q 721 972 672 972 l 721 972 q 806 936 769 972 q 842 851 842 900 l 842 851 l 842 683 q 806 594 842 631 q 717 558 769 558 l 717 558 l 558 558 l 558 275 q 292 -19 558 -19 z m 360 1075 l 218 1075 l 101 1264 l 288 1264 l 360 1075 z"},"Ử":{"ha":850,"x_min":0,"x_max":0,"o":"m 292 -19 l 292 -19 q 25 275 25 -19 l 25 275 l 25 972 l 208 972 l 208 256 q 227 182 208 208 q 292 156 246 156 l 292 156 q 356 182 338 156 q 375 256 375 208 l 375 256 l 375 972 l 558 972 l 558 667 l 696 667 q 733 708 733 667 l 733 708 l 733 731 l 721 731 q 636 767 672 731 q 600 851 600 803 l 600 851 q 636 936 600 900 q 721 972 672 972 l 721 972 q 806 936 769 972 q 842 851 842 900 l 842 851 l 842 683 q 806 594 842 631 q 717 558 769 558 l 717 558 l 558 558 l 558 275 q 292 -19 558 -19 z m 342 1042 l 244 1042 l 217 1169 l 217 1186 l 351 1186 q 379 1167 357 1167 l 379 1167 q 400 1176 393 1167 q 407 1197 407 1185 l 407 1197 q 394 1224 407 1214 q 360 1233 381 1233 l 360 1233 q 290 1214 322 1233 l 290 1214 l 254 1308 q 305 1328 278 1321 q 371 1336 332 1336 l 371 1336 q 480 1299 436 1336 q 524 1197 524 1263 l 524 1197 q 494 1111 524 1147 q 408 1075 465 1075 l 408 1075 q 367 1084 382 1075 q 344 1106 351 1093 l 344 1106 l 328 1106 l 342 1042 z"},"Ữ":{"ha":850,"x_min":0,"x_max":0,"o":"m 292 -19 l 292 -19 q 25 275 25 -19 l 25 275 l 25 972 l 208 972 l 208 256 q 227 182 208 208 q 292 156 246 156 l 292 156 q 356 182 338 156 q 375 256 375 208 l 375 256 l 375 972 l 558 972 l 558 667 l 696 667 q 733 708 733 667 l 733 708 l 733 731 l 721 731 q 636 767 672 731 q 600 851 600 803 l 600 851 q 636 936 600 900 q 721 972 672 972 l 721 972 q 806 936 769 972 q 842 851 842 900 l 842 851 l 842 683 q 806 594 842 631 q 717 558 769 558 l 717 558 l 558 558 l 558 275 q 292 -19 558 -19 z m 158 1099 l 119 1049 l 18 1131 l 93 1225 q 147 1271 119 1258 q 210 1283 175 1283 l 210 1283 q 301 1242 264 1283 l 301 1242 q 337 1208 322 1218 q 367 1199 351 1199 l 367 1199 q 398 1209 385 1199 q 422 1233 411 1219 l 422 1233 l 463 1283 l 565 1204 l 488 1107 q 435 1063 463 1076 q 371 1049 407 1049 l 371 1049 q 319 1060 343 1049 q 271 1099 294 1072 l 271 1099 q 247 1122 261 1111 q 215 1133 233 1133 l 215 1133 q 183 1124 197 1133 q 158 1099 169 1114 l 158 1099 z"},"Ű":{"ha":850,"x_min":0,"x_max":0,"o":"m 425 -19 l 425 -19 q 164 76 253 -19 q 75 336 75 171 l 75 336 l 75 972 l 258 972 l 258 336 q 299 202 258 251 q 425 153 340 153 l 425 153 q 551 202 511 153 q 592 336 592 251 l 592 336 l 592 972 l 775 972 l 775 336 q 687 76 775 171 q 425 -19 599 -19 z m 606 1075 l 464 1075 l 536 1264 l 722 1264 l 606 1075 z m 372 1075 l 231 1075 l 303 1264 l 489 1264 l 372 1075 z"},"Ū":{"ha":850,"x_min":0,"x_max":0,"o":"m 425 -19 l 425 -19 q 164 76 253 -19 q 75 336 75 171 l 75 336 l 75 972 l 258 972 l 258 336 q 299 202 258 251 q 425 153 340 153 l 425 153 q 551 202 511 153 q 592 336 592 251 l 592 336 l 592 972 l 775 972 l 775 336 q 687 76 775 171 q 425 -19 599 -19 z m 629 1075 l 221 1075 l 221 1217 l 629 1217 l 629 1075 z"},"Ų":{"ha":850,"x_min":0,"x_max":0,"o":"m 563 -236 l 451 -236 q 375 -210 410 -236 q 340 -132 340 -183 l 340 -132 q 344 -100 340 -118 l 344 -100 l 363 -15 q 147 93 219 0 q 75 336 75 186 l 75 336 l 75 972 l 258 972 l 258 336 q 299 202 258 251 q 425 153 340 153 l 425 153 q 551 202 511 153 q 592 336 592 251 l 592 336 l 592 972 l 775 972 l 775 336 q 701 92 775 185 q 482 -17 626 -1 l 482 -17 l 468 -78 q 467 -89 467 -85 l 467 -89 q 499 -119 467 -119 l 499 -119 l 563 -119 l 563 -236 z"},"Ů":{"ha":850,"x_min":0,"x_max":0,"o":"m 425 -19 l 425 -19 q 164 76 253 -19 q 75 336 75 171 l 75 336 l 75 972 l 258 972 l 258 336 q 299 202 258 251 q 425 153 340 153 l 425 153 q 551 202 511 153 q 592 336 592 251 l 592 336 l 592 972 l 775 972 l 775 336 q 687 76 775 171 q 425 -19 599 -19 z m 425 1072 l 425 1072 q 319 1116 363 1072 q 275 1222 275 1160 l 275 1222 q 319 1328 275 1285 q 425 1372 363 1372 l 425 1372 q 531 1328 488 1372 q 575 1222 575 1285 l 575 1222 q 531 1116 575 1160 q 425 1072 488 1072 z m 425 1181 l 425 1181 q 455 1192 443 1181 q 467 1222 467 1204 l 467 1222 q 455 1252 467 1240 q 425 1264 443 1264 l 425 1264 q 395 1252 407 1264 q 383 1222 383 1240 l 383 1222 q 395 1192 383 1204 q 425 1181 407 1181 z"},"Ũ":{"ha":850,"x_min":0,"x_max":0,"o":"m 425 -19 l 425 -19 q 164 76 253 -19 q 75 336 75 171 l 75 336 l 75 972 l 258 972 l 258 336 q 299 202 258 251 q 425 153 340 153 l 425 153 q 551 202 511 153 q 592 336 592 251 l 592 336 l 592 972 l 775 972 l 775 336 q 687 76 775 171 q 425 -19 599 -19 z m 293 1099 l 254 1049 l 153 1131 l 228 1225 q 282 1271 254 1258 q 344 1283 310 1283 l 344 1283 q 436 1242 399 1283 l 436 1242 q 472 1208 457 1218 q 501 1199 486 1199 l 501 1199 q 533 1209 519 1199 q 557 1233 546 1219 l 557 1233 l 597 1283 l 700 1204 l 622 1107 q 569 1063 597 1076 q 506 1049 542 1049 l 506 1049 q 453 1060 478 1049 q 406 1099 429 1072 l 406 1099 q 382 1122 396 1111 q 350 1133 368 1133 l 350 1133 q 318 1124 332 1133 q 293 1099 304 1114 l 293 1099 z"},"V":{"ha":850,"x_min":0,"x_max":0,"o":"m 597 0 l 253 0 l 33 972 l 222 972 l 413 92 l 438 92 l 628 972 l 817 972 l 597 0 z"},"W":{"ha":850,"x_min":0,"x_max":0,"o":"m 364 0 l 44 0 l 11 972 l 178 972 l 200 233 l 200 108 l 233 108 l 233 233 l 278 972 l 572 972 l 617 233 l 617 108 l 650 108 l 650 233 l 672 972 l 839 972 l 806 0 l 486 0 l 442 739 l 442 872 l 408 872 l 408 739 l 364 0 z"},"Ẃ":{"ha":850,"x_min":0,"x_max":0,"o":"m 364 0 l 44 0 l 11 972 l 178 972 l 200 233 l 200 108 l 233 108 l 233 233 l 278 972 l 572 972 l 617 233 l 617 108 l 650 108 l 650 233 l 672 972 l 839 972 l 806 0 l 486 0 l 442 739 l 442 872 l 408 872 l 408 739 l 364 0 z m 493 1075 l 351 1075 l 424 1264 l 610 1264 l 493 1075 z"},"Ŵ":{"ha":850,"x_min":0,"x_max":0,"o":"m 364 0 l 44 0 l 11 972 l 178 972 l 200 233 l 200 108 l 233 108 l 233 233 l 278 972 l 572 972 l 617 233 l 617 108 l 650 108 l 650 233 l 672 972 l 839 972 l 806 0 l 486 0 l 442 739 l 442 872 l 408 872 l 408 739 l 364 0 z m 357 1075 l 189 1075 l 306 1264 l 544 1264 l 661 1075 l 493 1075 l 433 1197 l 417 1197 l 357 1075 z"},"Ẅ":{"ha":850,"x_min":0,"x_max":0,"o":"m 364 0 l 44 0 l 11 972 l 178 972 l 200 233 l 200 108 l 233 108 l 233 233 l 278 972 l 572 972 l 617 233 l 617 108 l 650 108 l 650 233 l 672 972 l 839 972 l 806 0 l 486 0 l 442 739 l 442 872 l 408 872 l 408 739 l 364 0 z m 590 1040 l 590 1040 q 497 1078 536 1040 q 458 1172 458 1117 l 458 1172 q 497 1266 458 1228 q 590 1304 536 1304 l 590 1304 q 683 1266 644 1304 q 722 1172 722 1228 l 722 1172 q 683 1078 722 1117 q 590 1040 644 1040 z m 260 1040 l 260 1040 q 167 1078 206 1040 q 128 1172 128 1117 l 128 1172 q 167 1266 128 1228 q 260 1304 206 1304 l 260 1304 q 353 1266 314 1304 q 392 1172 392 1228 l 392 1172 q 353 1078 392 1117 q 260 1040 314 1040 z"},"Ẁ":{"ha":850,"x_min":0,"x_max":0,"o":"m 364 0 l 44 0 l 11 972 l 178 972 l 200 233 l 200 108 l 233 108 l 233 233 l 278 972 l 572 972 l 617 233 l 617 108 l 650 108 l 650 233 l 672 972 l 839 972 l 806 0 l 486 0 l 442 739 l 442 872 l 408 872 l 408 739 l 364 0 z m 494 1075 l 353 1075 l 236 1264 l 422 1264 l 494 1075 z"},"X":{"ha":850,"x_min":0,"x_max":0,"o":"m 244 0 l 46 0 l 246 475 l 246 500 l 46 972 l 244 972 l 408 575 l 442 575 l 606 972 l 804 972 l 604 500 l 604 475 l 804 0 l 606 0 l 442 400 l 408 400 l 244 0 z"},"Y":{"ha":850,"x_min":0,"x_max":0,"o":"m 517 0 l 333 0 l 333 342 l 292 342 l 13 972 l 213 972 l 413 508 l 438 508 l 638 972 l 838 972 l 558 342 l 517 342 l 517 0 z"},"Ý":{"ha":850,"x_min":0,"x_max":0,"o":"m 517 0 l 333 0 l 333 342 l 292 342 l 13 972 l 213 972 l 413 508 l 438 508 l 638 972 l 838 972 l 558 342 l 517 342 l 517 0 z m 493 1075 l 351 1075 l 424 1264 l 610 1264 l 493 1075 z"},"Ŷ":{"ha":850,"x_min":0,"x_max":0,"o":"m 517 0 l 333 0 l 333 342 l 292 342 l 13 972 l 213 972 l 413 508 l 438 508 l 638 972 l 838 972 l 558 342 l 517 342 l 517 0 z m 357 1075 l 189 1075 l 306 1264 l 544 1264 l 661 1075 l 493 1075 l 433 1197 l 417 1197 l 357 1075 z"},"Ÿ":{"ha":850,"x_min":0,"x_max":0,"o":"m 517 0 l 333 0 l 333 342 l 292 342 l 13 972 l 213 972 l 413 508 l 438 508 l 638 972 l 838 972 l 558 342 l 517 342 l 517 0 z m 590 1040 l 590 1040 q 497 1078 536 1040 q 458 1172 458 1117 l 458 1172 q 497 1266 458 1228 q 590 1304 536 1304 l 590 1304 q 683 1266 644 1304 q 722 1172 722 1228 l 722 1172 q 683 1078 722 1117 q 590 1040 644 1040 z m 260 1040 l 260 1040 q 167 1078 206 1040 q 128 1172 128 1117 l 128 1172 q 167 1266 128 1228 q 260 1304 206 1304 l 260 1304 q 353 1266 314 1304 q 392 1172 392 1228 l 392 1172 q 353 1078 392 1117 q 260 1040 314 1040 z"},"Ẏ":{"ha":850,"x_min":0,"x_max":0,"o":"m 517 0 l 333 0 l 333 342 l 292 342 l 13 972 l 213 972 l 413 508 l 438 508 l 638 972 l 838 972 l 558 342 l 517 342 l 517 0 z m 425 1065 l 425 1065 q 332 1103 371 1065 q 293 1197 293 1142 l 293 1197 q 332 1291 293 1253 q 425 1329 371 1329 l 425 1329 q 518 1291 479 1329 q 557 1197 557 1253 l 557 1197 q 518 1103 557 1142 q 425 1065 479 1065 z"},"Ỵ":{"ha":850,"x_min":0,"x_max":0,"o":"m 517 0 l 333 0 l 333 342 l 292 342 l 13 972 l 213 972 l 413 508 l 438 508 l 638 972 l 838 972 l 558 342 l 517 342 l 517 0 z m 425 -353 l 425 -353 q 332 -315 371 -353 q 293 -221 293 -276 l 293 -221 q 332 -127 293 -165 q 425 -89 371 -89 l 425 -89 q 518 -127 479 -89 q 557 -221 557 -165 l 557 -221 q 518 -315 557 -276 q 425 -353 479 -353 z"},"Ỳ":{"ha":850,"x_min":0,"x_max":0,"o":"m 517 0 l 333 0 l 333 342 l 292 342 l 13 972 l 213 972 l 413 508 l 438 508 l 638 972 l 838 972 l 558 342 l 517 342 l 517 0 z m 494 1075 l 353 1075 l 236 1264 l 422 1264 l 494 1075 z"},"Ỷ":{"ha":850,"x_min":0,"x_max":0,"o":"m 517 0 l 333 0 l 333 342 l 292 342 l 13 972 l 213 972 l 413 508 l 438 508 l 638 972 l 838 972 l 558 342 l 517 342 l 517 0 z m 476 1042 l 379 1042 l 351 1169 l 351 1186 l 486 1186 q 514 1167 492 1167 l 514 1167 q 535 1176 528 1167 q 542 1197 542 1185 l 542 1197 q 528 1224 542 1214 q 494 1233 515 1233 l 494 1233 q 425 1214 457 1233 l 425 1214 l 389 1308 q 440 1328 413 1321 q 506 1336 467 1336 l 506 1336 q 615 1299 571 1336 q 658 1197 658 1263 l 658 1197 q 629 1111 658 1147 q 543 1075 600 1075 l 543 1075 q 501 1084 517 1075 q 479 1106 486 1093 l 479 1106 l 463 1106 l 476 1042 z"},"Ỹ":{"ha":850,"x_min":0,"x_max":0,"o":"m 517 0 l 333 0 l 333 342 l 292 342 l 13 972 l 213 972 l 413 508 l 438 508 l 638 972 l 838 972 l 558 342 l 517 342 l 517 0 z m 293 1099 l 254 1049 l 153 1131 l 228 1225 q 282 1271 254 1258 q 344 1283 310 1283 l 344 1283 q 436 1242 399 1283 l 436 1242 q 472 1208 457 1218 q 501 1199 486 1199 l 501 1199 q 533 1209 519 1199 q 557 1233 546 1219 l 557 1233 l 597 1283 l 700 1204 l 622 1107 q 569 1063 597 1076 q 506 1049 542 1049 l 506 1049 q 453 1060 478 1049 q 406 1099 429 1072 l 406 1099 q 382 1122 396 1111 q 350 1133 368 1133 l 350 1133 q 318 1124 332 1133 q 293 1099 304 1114 l 293 1099 z"},"Z":{"ha":850,"x_min":0,"x_max":0,"o":"m 782 0 l 65 0 l 65 300 l 615 772 l 615 797 l 74 797 l 74 972 l 765 972 l 765 672 l 215 200 l 215 175 l 782 175 l 782 0 z"},"Ź":{"ha":850,"x_min":0,"x_max":0,"o":"m 782 0 l 65 0 l 65 300 l 615 772 l 615 797 l 74 797 l 74 972 l 765 972 l 765 672 l 215 200 l 215 175 l 782 175 l 782 0 z m 493 1075 l 351 1075 l 424 1264 l 610 1264 l 493 1075 z"},"Ž":{"ha":850,"x_min":0,"x_max":0,"o":"m 782 0 l 65 0 l 65 300 l 615 772 l 615 797 l 74 797 l 74 972 l 765 972 l 765 672 l 215 200 l 215 175 l 782 175 l 782 0 z m 544 1075 l 306 1075 l 189 1264 l 357 1264 l 417 1142 l 433 1142 l 493 1264 l 661 1264 l 544 1075 z"},"Ż":{"ha":850,"x_min":0,"x_max":0,"o":"m 782 0 l 65 0 l 65 300 l 615 772 l 615 797 l 74 797 l 74 972 l 765 972 l 765 672 l 215 200 l 215 175 l 782 175 l 782 0 z m 425 1065 l 425 1065 q 332 1103 371 1065 q 293 1197 293 1142 l 293 1197 q 332 1291 293 1253 q 425 1329 371 1329 l 425 1329 q 518 1291 479 1329 q 557 1197 557 1253 l 557 1197 q 518 1103 557 1142 q 425 1065 479 1065 z"},"Ẓ":{"ha":850,"x_min":0,"x_max":0,"o":"m 782 0 l 65 0 l 65 300 l 615 772 l 615 797 l 74 797 l 74 972 l 765 972 l 765 672 l 215 200 l 215 175 l 782 175 l 782 0 z m 425 -353 l 425 -353 q 332 -315 371 -353 q 293 -221 293 -276 l 293 -221 q 332 -127 293 -165 q 425 -89 371 -89 l 425 -89 q 518 -127 479 -89 q 557 -221 557 -165 l 557 -221 q 518 -315 557 -276 q 425 -353 479 -353 z"},"a":{"ha":850,"x_min":0,"x_max":0,"o":"m 360 -19 l 360 -19 q 208 22 278 -19 q 97 143 139 64 q 56 333 56 222 l 56 333 l 56 356 q 96 544 56 465 q 203 666 136 624 q 351 708 271 708 l 351 708 q 470 683 425 708 q 542 606 515 658 l 542 606 l 567 606 l 567 689 l 742 689 l 742 208 q 779 167 742 167 l 779 167 l 806 167 l 806 0 l 686 0 q 609 28 639 0 q 579 100 579 57 l 579 100 l 554 100 q 477 8 528 36 q 360 -19 426 -19 z m 399 147 l 399 147 q 521 198 475 147 q 567 336 567 249 l 567 336 l 567 353 q 521 491 567 440 q 399 542 475 542 l 399 542 q 276 491 322 542 q 231 353 231 440 l 231 353 l 231 336 q 276 198 231 249 q 399 147 322 147 z"},"á":{"ha":850,"x_min":0,"x_max":0,"o":"m 360 -19 l 360 -19 q 208 22 278 -19 q 97 143 139 64 q 56 333 56 222 l 56 333 l 56 356 q 96 544 56 465 q 203 666 136 624 q 351 708 271 708 l 351 708 q 470 683 425 708 q 542 606 515 658 l 542 606 l 567 606 l 567 689 l 742 689 l 742 208 q 779 167 742 167 l 779 167 l 806 167 l 806 0 l 686 0 q 609 28 639 0 q 579 100 579 57 l 579 100 l 554 100 q 477 8 528 36 q 360 -19 426 -19 z m 399 147 l 399 147 q 521 198 475 147 q 567 336 567 249 l 567 336 l 567 353 q 521 491 567 440 q 399 542 475 542 l 399 542 q 276 491 322 542 q 231 353 231 440 l 231 353 l 231 336 q 276 198 231 249 q 399 147 322 147 z m 465 792 l 324 792 l 396 981 l 582 981 l 465 792 z"},"ă":{"ha":850,"x_min":0,"x_max":0,"o":"m 360 -19 l 360 -19 q 208 22 278 -19 q 97 143 139 64 q 56 333 56 222 l 56 333 l 56 356 q 96 544 56 465 q 203 666 136 624 q 351 708 271 708 l 351 708 q 470 683 425 708 q 542 606 515 658 l 542 606 l 567 606 l 567 689 l 742 689 l 742 208 q 779 167 742 167 l 779 167 l 806 167 l 806 0 l 686 0 q 609 28 639 0 q 579 100 579 57 l 579 100 l 554 100 q 477 8 528 36 q 360 -19 426 -19 z m 399 147 l 399 147 q 521 198 475 147 q 567 336 567 249 l 567 336 l 567 353 q 521 491 567 440 q 399 542 475 542 l 399 542 q 276 491 322 542 q 231 353 231 440 l 231 353 l 231 336 q 276 198 231 249 q 399 147 322 147 z m 397 790 l 397 790 q 265 835 317 790 q 214 960 214 881 l 214 960 l 214 979 l 339 979 l 339 971 q 353 929 339 946 q 397 913 368 913 l 397 913 q 441 929 426 913 q 456 971 456 946 l 456 971 l 456 979 l 581 979 l 581 960 q 530 835 581 881 q 397 790 479 790 z"},"ắ":{"ha":850,"x_min":0,"x_max":0,"o":"m 360 -19 l 360 -19 q 208 22 278 -19 q 97 143 139 64 q 56 333 56 222 l 56 333 l 56 356 q 96 544 56 465 q 203 666 136 624 q 351 708 271 708 l 351 708 q 470 683 425 708 q 542 606 515 658 l 542 606 l 567 606 l 567 689 l 742 689 l 742 208 q 779 167 742 167 l 779 167 l 806 167 l 806 0 l 686 0 q 609 28 639 0 q 579 100 579 57 l 579 100 l 554 100 q 477 8 528 36 q 360 -19 426 -19 z m 399 147 l 399 147 q 521 198 475 147 q 567 336 567 249 l 567 336 l 567 353 q 521 491 567 440 q 399 542 475 542 l 399 542 q 276 491 322 542 q 231 353 231 440 l 231 353 l 231 336 q 276 198 231 249 q 399 147 322 147 z m 397 790 l 397 790 q 265 835 317 790 q 214 960 214 881 l 214 960 l 214 979 l 339 979 l 339 971 q 353 929 339 946 q 397 913 368 913 l 397 913 q 441 929 426 913 q 456 971 456 946 l 456 971 l 456 979 l 581 979 l 581 960 q 530 835 581 881 q 397 790 479 790 z m 465 1051 l 324 1051 l 396 1240 l 582 1240 l 465 1051 z"},"ặ":{"ha":850,"x_min":0,"x_max":0,"o":"m 360 -19 l 360 -19 q 208 22 278 -19 q 97 143 139 64 q 56 333 56 222 l 56 333 l 56 356 q 96 544 56 465 q 203 666 136 624 q 351 708 271 708 l 351 708 q 470 683 425 708 q 542 606 515 658 l 542 606 l 567 606 l 567 689 l 742 689 l 742 208 q 779 167 742 167 l 779 167 l 806 167 l 806 0 l 686 0 q 609 28 639 0 q 579 100 579 57 l 579 100 l 554 100 q 477 8 528 36 q 360 -19 426 -19 z m 399 147 l 399 147 q 521 198 475 147 q 567 336 567 249 l 567 336 l 567 353 q 521 491 567 440 q 399 542 475 542 l 399 542 q 276 491 322 542 q 231 353 231 440 l 231 353 l 231 336 q 276 198 231 249 q 399 147 322 147 z m 392 -353 l 392 -353 q 299 -315 338 -353 q 260 -221 260 -276 l 260 -221 q 299 -127 260 -165 q 392 -89 338 -89 l 392 -89 q 485 -127 446 -89 q 524 -221 524 -165 l 524 -221 q 485 -315 524 -276 q 392 -353 446 -353 z m 397 790 l 397 790 q 265 835 317 790 q 214 960 214 881 l 214 960 l 214 979 l 339 979 l 339 971 q 353 929 339 946 q 397 913 368 913 l 397 913 q 441 929 426 913 q 456 971 456 946 l 456 971 l 456 979 l 581 979 l 581 960 q 530 835 581 881 q 397 790 479 790 z"},"ằ":{"ha":850,"x_min":0,"x_max":0,"o":"m 360 -19 l 360 -19 q 208 22 278 -19 q 97 143 139 64 q 56 333 56 222 l 56 333 l 56 356 q 96 544 56 465 q 203 666 136 624 q 351 708 271 708 l 351 708 q 470 683 425 708 q 542 606 515 658 l 542 606 l 567 606 l 567 689 l 742 689 l 742 208 q 779 167 742 167 l 779 167 l 806 167 l 806 0 l 686 0 q 609 28 639 0 q 579 100 579 57 l 579 100 l 554 100 q 477 8 528 36 q 360 -19 426 -19 z m 399 147 l 399 147 q 521 198 475 147 q 567 336 567 249 l 567 336 l 567 353 q 521 491 567 440 q 399 542 475 542 l 399 542 q 276 491 322 542 q 231 353 231 440 l 231 353 l 231 336 q 276 198 231 249 q 399 147 322 147 z m 397 790 l 397 790 q 265 835 317 790 q 214 960 214 881 l 214 960 l 214 979 l 339 979 l 339 971 q 353 929 339 946 q 397 913 368 913 l 397 913 q 441 929 426 913 q 456 971 456 946 l 456 971 l 456 979 l 581 979 l 581 960 q 530 835 581 881 q 397 790 479 790 z m 467 1051 l 325 1051 l 208 1240 l 394 1240 l 467 1051 z"},"ẳ":{"ha":850,"x_min":0,"x_max":0,"o":"m 360 -19 l 360 -19 q 208 22 278 -19 q 97 143 139 64 q 56 333 56 222 l 56 333 l 56 356 q 96 544 56 465 q 203 666 136 624 q 351 708 271 708 l 351 708 q 470 683 425 708 q 542 606 515 658 l 542 606 l 567 606 l 567 689 l 742 689 l 742 208 q 779 167 742 167 l 779 167 l 806 167 l 806 0 l 686 0 q 609 28 639 0 q 579 100 579 57 l 579 100 l 554 100 q 477 8 528 36 q 360 -19 426 -19 z m 399 147 l 399 147 q 521 198 475 147 q 567 336 567 249 l 567 336 l 567 353 q 521 491 567 440 q 399 542 475 542 l 399 542 q 276 491 322 542 q 231 353 231 440 l 231 353 l 231 336 q 276 198 231 249 q 399 147 322 147 z m 397 790 l 397 790 q 265 835 317 790 q 214 960 214 881 l 214 960 l 214 979 l 339 979 l 339 971 q 353 929 339 946 q 397 913 368 913 l 397 913 q 441 929 426 913 q 456 971 456 946 l 456 971 l 456 979 l 581 979 l 581 960 q 530 835 581 881 q 397 790 479 790 z m 449 1018 l 351 1018 l 324 1146 l 324 1163 l 458 1163 q 486 1143 464 1143 l 486 1143 q 507 1152 500 1143 q 514 1174 514 1161 l 514 1174 q 501 1200 514 1190 q 467 1210 488 1210 l 467 1210 q 397 1190 429 1210 l 397 1190 l 361 1285 q 412 1305 385 1297 q 478 1313 439 1313 l 478 1313 q 587 1276 543 1313 q 631 1174 631 1239 l 631 1174 q 601 1088 631 1124 q 515 1051 572 1051 l 515 1051 q 474 1060 489 1051 q 451 1082 458 1069 l 451 1082 l 435 1082 l 449 1018 z"},"ẵ":{"ha":850,"x_min":0,"x_max":0,"o":"m 360 -19 l 360 -19 q 208 22 278 -19 q 97 143 139 64 q 56 333 56 222 l 56 333 l 56 356 q 96 544 56 465 q 203 666 136 624 q 351 708 271 708 l 351 708 q 470 683 425 708 q 542 606 515 658 l 542 606 l 567 606 l 567 689 l 742 689 l 742 208 q 779 167 742 167 l 779 167 l 806 167 l 806 0 l 686 0 q 609 28 639 0 q 579 100 579 57 l 579 100 l 554 100 q 477 8 528 36 q 360 -19 426 -19 z m 399 147 l 399 147 q 521 198 475 147 q 567 336 567 249 l 567 336 l 567 353 q 521 491 567 440 q 399 542 475 542 l 399 542 q 276 491 322 542 q 231 353 231 440 l 231 353 l 231 336 q 276 198 231 249 q 399 147 322 147 z m 397 790 l 397 790 q 265 835 317 790 q 214 960 214 881 l 214 960 l 214 979 l 339 979 l 339 971 q 353 929 339 946 q 397 913 368 913 l 397 913 q 441 929 426 913 q 456 971 456 946 l 456 971 l 456 979 l 581 979 l 581 960 q 530 835 581 881 q 397 790 479 790 z m 265 1075 l 226 1025 l 125 1107 l 200 1201 q 254 1247 226 1235 q 317 1260 282 1260 l 317 1260 q 408 1218 371 1260 l 408 1218 q 444 1185 429 1194 q 474 1175 458 1175 l 474 1175 q 505 1185 492 1175 q 529 1210 518 1196 l 529 1210 l 569 1260 l 672 1181 l 594 1083 q 542 1039 569 1053 q 478 1025 514 1025 l 478 1025 q 426 1037 450 1025 q 378 1075 401 1049 l 378 1075 q 354 1099 368 1088 q 322 1110 340 1110 l 322 1110 q 290 1100 304 1110 q 265 1075 276 1090 l 265 1075 z"},"ǎ":{"ha":850,"x_min":0,"x_max":0,"o":"m 360 -19 l 360 -19 q 208 22 278 -19 q 97 143 139 64 q 56 333 56 222 l 56 333 l 56 356 q 96 544 56 465 q 203 666 136 624 q 351 708 271 708 l 351 708 q 470 683 425 708 q 542 606 515 658 l 542 606 l 567 606 l 567 689 l 742 689 l 742 208 q 779 167 742 167 l 779 167 l 806 167 l 806 0 l 686 0 q 609 28 639 0 q 579 100 579 57 l 579 100 l 554 100 q 477 8 528 36 q 360 -19 426 -19 z m 399 147 l 399 147 q 521 198 475 147 q 567 336 567 249 l 567 336 l 567 353 q 521 491 567 440 q 399 542 475 542 l 399 542 q 276 491 322 542 q 231 353 231 440 l 231 353 l 231 336 q 276 198 231 249 q 399 147 322 147 z m 517 792 l 278 792 l 161 981 l 329 981 l 389 858 l 406 858 l 465 981 l 633 981 l 517 792 z"},"â":{"ha":850,"x_min":0,"x_max":0,"o":"m 360 -19 l 360 -19 q 208 22 278 -19 q 97 143 139 64 q 56 333 56 222 l 56 333 l 56 356 q 96 544 56 465 q 203 666 136 624 q 351 708 271 708 l 351 708 q 470 683 425 708 q 542 606 515 658 l 542 606 l 567 606 l 567 689 l 742 689 l 742 208 q 779 167 742 167 l 779 167 l 806 167 l 806 0 l 686 0 q 609 28 639 0 q 579 100 579 57 l 579 100 l 554 100 q 477 8 528 36 q 360 -19 426 -19 z m 399 147 l 399 147 q 521 198 475 147 q 567 336 567 249 l 567 336 l 567 353 q 521 491 567 440 q 399 542 475 542 l 399 542 q 276 491 322 542 q 231 353 231 440 l 231 353 l 231 336 q 276 198 231 249 q 399 147 322 147 z m 329 792 l 161 792 l 278 981 l 517 981 l 633 792 l 465 792 l 406 914 l 389 914 l 329 792 z"},"ấ":{"ha":850,"x_min":0,"x_max":0,"o":"m 360 -19 l 360 -19 q 208 22 278 -19 q 97 143 139 64 q 56 333 56 222 l 56 333 l 56 356 q 96 544 56 465 q 203 666 136 624 q 351 708 271 708 l 351 708 q 470 683 425 708 q 542 606 515 658 l 542 606 l 567 606 l 567 689 l 742 689 l 742 208 q 779 167 742 167 l 779 167 l 806 167 l 806 0 l 686 0 q 609 28 639 0 q 579 100 579 57 l 579 100 l 554 100 q 477 8 528 36 q 360 -19 426 -19 z m 399 147 l 399 147 q 521 198 475 147 q 567 336 567 249 l 567 336 l 567 353 q 521 491 567 440 q 399 542 475 542 l 399 542 q 276 491 322 542 q 231 353 231 440 l 231 353 l 231 336 q 276 198 231 249 q 399 147 322 147 z m 329 792 l 161 792 l 278 981 l 517 981 l 633 792 l 465 792 l 406 914 l 389 914 l 329 792 z m 721 914 l 579 914 l 651 1103 l 838 1103 l 721 914 z"},"ậ":{"ha":850,"x_min":0,"x_max":0,"o":"m 360 -19 l 360 -19 q 208 22 278 -19 q 97 143 139 64 q 56 333 56 222 l 56 333 l 56 356 q 96 544 56 465 q 203 666 136 624 q 351 708 271 708 l 351 708 q 470 683 425 708 q 542 606 515 658 l 542 606 l 567 606 l 567 689 l 742 689 l 742 208 q 779 167 742 167 l 779 167 l 806 167 l 806 0 l 686 0 q 609 28 639 0 q 579 100 579 57 l 579 100 l 554 100 q 477 8 528 36 q 360 -19 426 -19 z m 399 147 l 399 147 q 521 198 475 147 q 567 336 567 249 l 567 336 l 567 353 q 521 491 567 440 q 399 542 475 542 l 399 542 q 276 491 322 542 q 231 353 231 440 l 231 353 l 231 336 q 276 198 231 249 q 399 147 322 147 z m 392 -353 l 392 -353 q 299 -315 338 -353 q 260 -221 260 -276 l 260 -221 q 299 -127 260 -165 q 392 -89 338 -89 l 392 -89 q 485 -127 446 -89 q 524 -221 524 -165 l 524 -221 q 485 -315 524 -276 q 392 -353 446 -353 z m 329 792 l 161 792 l 278 981 l 517 981 l 633 792 l 465 792 l 406 914 l 389 914 l 329 792 z"},"ầ":{"ha":850,"x_min":0,"x_max":0,"o":"m 360 -19 l 360 -19 q 208 22 278 -19 q 97 143 139 64 q 56 333 56 222 l 56 333 l 56 356 q 96 544 56 465 q 203 666 136 624 q 351 708 271 708 l 351 708 q 470 683 425 708 q 542 606 515 658 l 542 606 l 567 606 l 567 689 l 742 689 l 742 208 q 779 167 742 167 l 779 167 l 806 167 l 806 0 l 686 0 q 609 28 639 0 q 579 100 579 57 l 579 100 l 554 100 q 477 8 528 36 q 360 -19 426 -19 z m 399 147 l 399 147 q 521 198 475 147 q 567 336 567 249 l 567 336 l 567 353 q 521 491 567 440 q 399 542 475 542 l 399 542 q 276 491 322 542 q 231 353 231 440 l 231 353 l 231 336 q 276 198 231 249 q 399 147 322 147 z m 368 792 l 200 792 l 317 981 l 556 981 l 672 792 l 504 792 l 444 914 l 428 914 l 368 792 z m 232 914 l 90 914 l -26 1103 l 160 1103 l 232 914 z"},"ẩ":{"ha":850,"x_min":0,"x_max":0,"o":"m 360 -19 l 360 -19 q 208 22 278 -19 q 97 143 139 64 q 56 333 56 222 l 56 333 l 56 356 q 96 544 56 465 q 203 666 136 624 q 351 708 271 708 l 351 708 q 470 683 425 708 q 542 606 515 658 l 542 606 l 567 606 l 567 689 l 742 689 l 742 208 q 779 167 742 167 l 779 167 l 806 167 l 806 0 l 686 0 q 609 28 639 0 q 579 100 579 57 l 579 100 l 554 100 q 477 8 528 36 q 360 -19 426 -19 z m 399 147 l 399 147 q 521 198 475 147 q 567 336 567 249 l 567 336 l 567 353 q 521 491 567 440 q 399 542 475 542 l 399 542 q 276 491 322 542 q 231 353 231 440 l 231 353 l 231 336 q 276 198 231 249 q 399 147 322 147 z m 329 792 l 161 792 l 278 981 l 517 981 l 633 792 l 465 792 l 406 914 l 389 914 l 329 792 z m 703 914 l 606 914 l 578 1042 l 578 1058 l 713 1058 q 740 1039 718 1039 l 740 1039 q 761 1048 754 1039 q 768 1069 768 1057 l 768 1069 q 755 1096 768 1086 q 721 1106 742 1106 l 721 1106 q 651 1086 683 1106 l 651 1086 l 615 1181 q 666 1201 639 1193 q 732 1208 693 1208 l 732 1208 q 841 1172 797 1208 q 885 1069 885 1135 l 885 1069 q 856 983 885 1019 q 769 947 826 947 l 769 947 q 728 956 743 947 q 706 978 713 965 l 706 978 l 689 978 l 703 914 z"},"ẫ":{"ha":850,"x_min":0,"x_max":0,"o":"m 360 -19 l 360 -19 q 208 22 278 -19 q 97 143 139 64 q 56 333 56 222 l 56 333 l 56 356 q 96 544 56 465 q 203 666 136 624 q 351 708 271 708 l 351 708 q 470 683 425 708 q 542 606 515 658 l 542 606 l 567 606 l 567 689 l 742 689 l 742 208 q 779 167 742 167 l 779 167 l 806 167 l 806 0 l 686 0 q 609 28 639 0 q 579 100 579 57 l 579 100 l 554 100 q 477 8 528 36 q 360 -19 426 -19 z m 399 147 l 399 147 q 521 198 475 147 q 567 336 567 249 l 567 336 l 567 353 q 521 491 567 440 q 399 542 475 542 l 399 542 q 276 491 322 542 q 231 353 231 440 l 231 353 l 231 336 q 276 198 231 249 q 399 147 322 147 z m 329 792 l 161 792 l 278 981 l 517 981 l 633 792 l 465 792 l 406 914 l 389 914 l 329 792 z m 265 1078 l 226 1028 l 125 1110 l 200 1204 q 254 1250 226 1238 q 317 1263 282 1263 l 317 1263 q 408 1221 371 1263 l 408 1221 q 444 1188 429 1197 q 474 1178 458 1178 l 474 1178 q 505 1188 492 1178 q 529 1213 518 1199 l 529 1213 l 569 1263 l 672 1183 l 594 1086 q 542 1042 569 1056 q 478 1028 514 1028 l 478 1028 q 426 1040 450 1028 q 378 1078 401 1051 l 378 1078 q 354 1101 368 1090 q 322 1113 340 1113 l 322 1113 q 290 1103 304 1113 q 265 1078 276 1093 l 265 1078 z"},"ä":{"ha":850,"x_min":0,"x_max":0,"o":"m 360 -19 l 360 -19 q 208 22 278 -19 q 97 143 139 64 q 56 333 56 222 l 56 333 l 56 356 q 96 544 56 465 q 203 666 136 624 q 351 708 271 708 l 351 708 q 470 683 425 708 q 542 606 515 658 l 542 606 l 567 606 l 567 689 l 742 689 l 742 208 q 779 167 742 167 l 779 167 l 806 167 l 806 0 l 686 0 q 609 28 639 0 q 579 100 579 57 l 579 100 l 554 100 q 477 8 528 36 q 360 -19 426 -19 z m 399 147 l 399 147 q 521 198 475 147 q 567 336 567 249 l 567 336 l 567 353 q 521 491 567 440 q 399 542 475 542 l 399 542 q 276 491 322 542 q 231 353 231 440 l 231 353 l 231 336 q 276 198 231 249 q 399 147 322 147 z m 563 751 l 563 751 q 469 790 508 751 q 431 883 431 828 l 431 883 q 469 977 431 939 q 563 1015 508 1015 l 563 1015 q 656 977 617 1015 q 694 883 694 939 l 694 883 q 656 790 694 828 q 563 751 617 751 z m 232 751 l 232 751 q 139 790 178 751 q 100 883 100 828 l 100 883 q 139 977 100 939 q 232 1015 178 1015 l 232 1015 q 325 977 286 1015 q 364 883 364 939 l 364 883 q 325 790 364 828 q 232 751 286 751 z"},"ạ":{"ha":850,"x_min":0,"x_max":0,"o":"m 360 -19 l 360 -19 q 208 22 278 -19 q 97 143 139 64 q 56 333 56 222 l 56 333 l 56 356 q 96 544 56 465 q 203 666 136 624 q 351 708 271 708 l 351 708 q 470 683 425 708 q 542 606 515 658 l 542 606 l 567 606 l 567 689 l 742 689 l 742 208 q 779 167 742 167 l 779 167 l 806 167 l 806 0 l 686 0 q 609 28 639 0 q 579 100 579 57 l 579 100 l 554 100 q 477 8 528 36 q 360 -19 426 -19 z m 399 147 l 399 147 q 521 198 475 147 q 567 336 567 249 l 567 336 l 567 353 q 521 491 567 440 q 399 542 475 542 l 399 542 q 276 491 322 542 q 231 353 231 440 l 231 353 l 231 336 q 276 198 231 249 q 399 147 322 147 z m 392 -353 l 392 -353 q 299 -315 338 -353 q 260 -221 260 -276 l 260 -221 q 299 -127 260 -165 q 392 -89 338 -89 l 392 -89 q 485 -127 446 -89 q 524 -221 524 -165 l 524 -221 q 485 -315 524 -276 q 392 -353 446 -353 z"},"à":{"ha":850,"x_min":0,"x_max":0,"o":"m 360 -19 l 360 -19 q 208 22 278 -19 q 97 143 139 64 q 56 333 56 222 l 56 333 l 56 356 q 96 544 56 465 q 203 666 136 624 q 351 708 271 708 l 351 708 q 470 683 425 708 q 542 606 515 658 l 542 606 l 567 606 l 567 689 l 742 689 l 742 208 q 779 167 742 167 l 779 167 l 806 167 l 806 0 l 686 0 q 609 28 639 0 q 579 100 579 57 l 579 100 l 554 100 q 477 8 528 36 q 360 -19 426 -19 z m 399 147 l 399 147 q 521 198 475 147 q 567 336 567 249 l 567 336 l 567 353 q 521 491 567 440 q 399 542 475 542 l 399 542 q 276 491 322 542 q 231 353 231 440 l 231 353 l 231 336 q 276 198 231 249 q 399 147 322 147 z m 467 792 l 325 792 l 208 981 l 394 981 l 467 792 z"},"ả":{"ha":850,"x_min":0,"x_max":0,"o":"m 360 -19 l 360 -19 q 208 22 278 -19 q 97 143 139 64 q 56 333 56 222 l 56 333 l 56 356 q 96 544 56 465 q 203 666 136 624 q 351 708 271 708 l 351 708 q 470 683 425 708 q 542 606 515 658 l 542 606 l 567 606 l 567 689 l 742 689 l 742 208 q 779 167 742 167 l 779 167 l 806 167 l 806 0 l 686 0 q 609 28 639 0 q 579 100 579 57 l 579 100 l 554 100 q 477 8 528 36 q 360 -19 426 -19 z m 399 147 l 399 147 q 521 198 475 147 q 567 336 567 249 l 567 336 l 567 353 q 521 491 567 440 q 399 542 475 542 l 399 542 q 276 491 322 542 q 231 353 231 440 l 231 353 l 231 336 q 276 198 231 249 q 399 147 322 147 z m 449 758 l 351 758 l 324 886 l 324 903 l 458 903 q 486 883 464 883 l 486 883 q 507 892 500 883 q 514 914 514 901 l 514 914 q 501 940 514 931 q 467 950 488 950 l 467 950 q 397 931 429 950 l 397 931 l 361 1025 q 412 1045 385 1038 q 478 1053 439 1053 l 478 1053 q 587 1016 543 1053 q 631 914 631 979 l 631 914 q 601 828 631 864 q 515 792 572 792 l 515 792 q 474 801 489 792 q 451 822 458 810 l 451 822 l 435 822 l 449 758 z"},"ɑ":{"ha":850,"x_min":0,"x_max":0,"o":"m 360 -19 l 360 -19 q 208 22 278 -19 q 97 143 139 64 q 56 333 56 222 l 56 333 l 56 356 q 96 544 56 465 q 203 666 136 624 q 351 708 271 708 l 351 708 q 470 683 425 708 q 542 606 515 658 l 542 606 l 567 606 l 567 689 l 742 689 l 742 208 q 779 167 742 167 l 779 167 l 806 167 l 806 0 l 686 0 q 609 28 639 0 q 579 100 579 57 l 579 100 l 554 100 q 477 8 528 36 q 360 -19 426 -19 z m 399 147 l 399 147 q 521 198 475 147 q 567 336 567 249 l 567 336 l 567 353 q 521 491 567 440 q 399 542 475 542 l 399 542 q 276 491 322 542 q 231 353 231 440 l 231 353 l 231 336 q 276 198 231 249 q 399 147 322 147 z"},"ɒ":{"ha":850,"x_min":0,"x_max":0,"o":"m 496 708 l 496 708 q 648 667 579 708 q 758 546 717 625 q 800 356 800 467 l 800 356 l 800 333 q 760 144 800 224 q 653 23 719 65 q 504 -19 586 -19 l 504 -19 q 386 6 432 -19 q 314 83 340 32 l 314 83 l 289 83 l 289 0 l 114 0 l 114 481 q 76 522 114 522 l 76 522 l 50 522 l 50 689 l 169 689 q 247 661 217 689 q 276 589 276 633 l 276 589 l 301 589 q 379 681 329 654 q 496 708 429 708 z m 457 542 l 457 542 q 335 491 381 542 q 289 353 289 440 l 289 353 l 289 336 q 335 198 289 249 q 457 147 381 147 l 457 147 q 579 198 533 147 q 625 336 625 249 l 625 336 l 625 353 q 579 491 625 440 q 457 542 533 542 z"},"ā":{"ha":850,"x_min":0,"x_max":0,"o":"m 360 -19 l 360 -19 q 208 22 278 -19 q 97 143 139 64 q 56 333 56 222 l 56 333 l 56 356 q 96 544 56 465 q 203 666 136 624 q 351 708 271 708 l 351 708 q 470 683 425 708 q 542 606 515 658 l 542 606 l 567 606 l 567 689 l 742 689 l 742 208 q 779 167 742 167 l 779 167 l 806 167 l 806 0 l 686 0 q 609 28 639 0 q 579 100 579 57 l 579 100 l 554 100 q 477 8 528 36 q 360 -19 426 -19 z m 399 147 l 399 147 q 521 198 475 147 q 567 336 567 249 l 567 336 l 567 353 q 521 491 567 440 q 399 542 475 542 l 399 542 q 276 491 322 542 q 231 353 231 440 l 231 353 l 231 336 q 276 198 231 249 q 399 147 322 147 z m 601 792 l 193 792 l 193 933 l 601 933 l 601 792 z"},"ą":{"ha":850,"x_min":0,"x_max":0,"o":"m 806 -236 l 694 -236 q 618 -210 653 -236 q 583 -132 583 -183 l 583 -132 q 588 -100 583 -118 l 588 -100 l 615 22 q 579 100 579 51 l 579 100 l 554 100 q 477 8 528 36 q 360 -19 426 -19 l 360 -19 q 208 22 278 -19 q 97 143 139 64 q 56 333 56 222 l 56 333 l 56 356 q 96 544 56 465 q 203 666 136 624 q 351 708 271 708 l 351 708 q 470 683 425 708 q 542 606 515 658 l 542 606 l 567 606 l 567 689 l 742 689 l 742 208 q 779 167 742 167 l 779 167 l 806 167 l 806 0 l 729 0 l 711 -78 q 710 -89 710 -85 l 710 -89 q 742 -119 710 -119 l 742 -119 l 806 -119 l 806 -236 z m 399 147 l 399 147 q 521 198 475 147 q 567 336 567 249 l 567 336 l 567 353 q 521 491 567 440 q 399 542 475 542 l 399 542 q 276 491 322 542 q 231 353 231 440 l 231 353 l 231 336 q 276 198 231 249 q 399 147 322 147 z"},"å":{"ha":850,"x_min":0,"x_max":0,"o":"m 360 -19 l 360 -19 q 208 22 278 -19 q 97 143 139 64 q 56 333 56 222 l 56 333 l 56 356 q 96 544 56 465 q 203 666 136 624 q 351 708 271 708 l 351 708 q 470 683 425 708 q 542 606 515 658 l 542 606 l 567 606 l 567 689 l 742 689 l 742 208 q 779 167 742 167 l 779 167 l 806 167 l 806 0 l 686 0 q 609 28 639 0 q 579 100 579 57 l 579 100 l 554 100 q 477 8 528 36 q 360 -19 426 -19 z m 399 147 l 399 147 q 521 198 475 147 q 567 336 567 249 l 567 336 l 567 353 q 521 491 567 440 q 399 542 475 542 l 399 542 q 276 491 322 542 q 231 353 231 440 l 231 353 l 231 336 q 276 198 231 249 q 399 147 322 147 z m 397 789 l 397 789 q 291 833 335 789 q 247 939 247 876 l 247 939 q 291 1045 247 1001 q 397 1089 335 1089 l 397 1089 q 503 1045 460 1089 q 547 939 547 1001 l 547 939 q 503 833 547 876 q 397 789 460 789 z m 397 897 l 397 897 q 427 909 415 897 q 439 939 439 921 l 439 939 q 427 969 439 957 q 397 981 415 981 l 397 981 q 367 969 379 981 q 356 939 356 957 l 356 939 q 367 909 356 921 q 397 897 379 897 z"},"ã":{"ha":850,"x_min":0,"x_max":0,"o":"m 360 -19 l 360 -19 q 208 22 278 -19 q 97 143 139 64 q 56 333 56 222 l 56 333 l 56 356 q 96 544 56 465 q 203 666 136 624 q 351 708 271 708 l 351 708 q 470 683 425 708 q 542 606 515 658 l 542 606 l 567 606 l 567 689 l 742 689 l 742 208 q 779 167 742 167 l 779 167 l 806 167 l 806 0 l 686 0 q 609 28 639 0 q 579 100 579 57 l 579 100 l 554 100 q 477 8 528 36 q 360 -19 426 -19 z m 399 147 l 399 147 q 521 198 475 147 q 567 336 567 249 l 567 336 l 567 353 q 521 491 567 440 q 399 542 475 542 l 399 542 q 276 491 322 542 q 231 353 231 440 l 231 353 l 231 336 q 276 198 231 249 q 399 147 322 147 z m 294 815 l 256 765 l 154 847 l 229 942 q 283 988 256 975 q 346 1000 311 1000 l 346 1000 q 438 958 400 1000 l 438 958 q 473 925 458 935 q 503 915 488 915 l 503 915 q 534 926 521 915 q 558 950 547 936 l 558 950 l 599 1000 l 701 921 l 624 824 q 571 779 599 793 q 507 765 543 765 l 507 765 q 455 777 479 765 q 407 815 431 789 l 407 815 q 383 839 397 828 q 351 850 369 850 l 351 850 q 319 840 333 850 q 294 815 306 831 l 294 815 z"},"ɐ":{"ha":850,"x_min":0,"x_max":0,"o":"m 522 708 l 522 708 q 703 646 642 708 q 764 492 764 583 l 764 492 l 764 483 q 732 367 764 417 q 647 291 700 318 q 528 264 593 264 l 528 264 l 342 264 l 342 256 q 374 180 342 213 q 467 147 407 147 l 467 147 q 548 170 513 147 q 597 231 583 193 l 597 231 l 739 144 q 681 65 718 103 q 587 4 643 28 q 454 -19 531 -19 l 454 -19 q 308 15 374 -19 q 205 108 243 49 q 167 247 167 168 l 167 247 l 167 481 q 129 522 167 522 l 129 522 l 86 522 l 86 689 l 194 689 q 280 667 244 689 q 317 597 315 646 l 317 597 l 342 597 q 401 678 358 647 q 522 708 443 708 z m 489 542 l 489 542 q 381 505 421 542 q 342 414 342 468 l 342 414 l 506 414 q 562 432 543 414 q 581 475 581 450 l 581 475 q 559 523 581 504 q 489 542 538 542 z"},"æ":{"ha":850,"x_min":0,"x_max":0,"o":"m 435 -19 l 394 -19 q 233 3 304 -19 q 119 76 161 26 q 78 203 78 125 l 78 203 l 78 219 q 111 331 78 285 q 199 403 144 378 q 319 428 254 428 l 319 428 l 333 428 l 333 536 q 279 517 307 536 q 236 469 251 497 l 236 469 l 122 589 q 240 678 168 647 q 414 708 311 708 l 414 708 q 610 665 529 708 q 733 547 690 622 q 775 378 775 472 l 775 378 l 775 261 l 508 261 l 508 153 q 569 167 542 153 q 608 211 596 182 l 608 211 l 750 122 q 631 14 708 47 q 435 -19 553 -19 l 435 -19 z m 508 536 l 508 428 l 600 428 q 575 502 600 474 q 508 536 550 531 l 508 536 z m 317 147 l 317 147 l 333 147 l 333 261 l 317 261 q 272 247 290 261 q 253 204 253 232 l 253 204 q 272 162 253 176 q 317 147 290 147 z"},"b":{"ha":850,"x_min":0,"x_max":0,"o":"m 494 -19 l 494 -19 q 352 17 401 -19 q 279 100 303 54 l 279 100 l 254 100 l 254 0 l 79 0 l 79 972 l 254 972 l 254 589 l 279 589 q 360 677 307 646 q 494 708 414 708 l 494 708 q 644 667 576 708 q 754 547 713 625 q 796 357 796 468 l 796 357 l 796 332 q 756 141 796 219 q 647 22 715 63 q 494 -19 579 -19 z m 438 147 l 438 147 q 570 199 519 147 q 621 336 621 250 l 621 336 l 621 353 q 570 490 621 439 q 438 542 519 542 l 438 542 q 306 490 357 542 q 254 353 254 438 l 254 353 l 254 336 q 306 199 254 251 q 438 147 357 147 z"},"ƀ":{"ha":850,"x_min":0,"x_max":0,"o":"m 494 -19 l 494 -19 q 352 17 401 -19 q 279 100 303 54 l 279 100 l 254 100 l 254 0 l 79 0 l 79 747 l -4 747 l -4 906 l 79 906 l 79 972 l 254 972 l 254 906 l 469 906 l 469 747 l 254 747 l 254 589 l 279 589 q 360 677 307 646 q 494 708 414 708 l 494 708 q 644 667 576 708 q 754 547 713 625 q 796 357 796 468 l 796 357 l 796 332 q 756 141 796 219 q 647 22 715 63 q 494 -19 579 -19 z m 438 147 l 438 147 q 570 199 519 147 q 621 336 621 250 l 621 336 l 621 353 q 570 490 621 439 q 438 542 519 542 l 438 542 q 306 490 357 542 q 254 353 254 438 l 254 353 l 254 336 q 306 199 254 251 q 438 147 357 147 z"},"c":{"ha":850,"x_min":0,"x_max":0,"o":"m 433 -19 l 433 -19 q 250 22 332 -19 q 120 141 168 63 q 72 331 72 219 l 72 331 l 72 347 q 121 540 72 458 q 251 665 169 621 q 433 708 333 708 l 433 708 q 668 633 578 708 q 781 436 758 558 l 781 436 l 608 392 q 556 497 600 453 q 431 542 511 542 l 431 542 q 301 489 356 542 q 247 343 247 436 l 247 343 l 247 335 q 301 194 247 242 q 431 147 356 147 l 431 147 q 553 188 511 147 q 608 296 596 228 l 608 296 l 781 253 q 669 56 758 131 q 433 -19 581 -19 z"},"ć":{"ha":850,"x_min":0,"x_max":0,"o":"m 433 -19 l 433 -19 q 250 22 332 -19 q 120 141 168 63 q 72 331 72 219 l 72 331 l 72 347 q 121 540 72 458 q 251 665 169 621 q 433 708 333 708 l 433 708 q 668 633 578 708 q 781 436 758 558 l 781 436 l 608 392 q 556 497 600 453 q 431 542 511 542 l 431 542 q 301 489 356 542 q 247 343 247 436 l 247 343 l 247 335 q 301 194 247 242 q 431 147 356 147 l 431 147 q 553 188 511 147 q 608 296 596 228 l 608 296 l 781 253 q 669 56 758 131 q 433 -19 581 -19 z m 493 792 l 351 792 l 424 981 l 610 981 l 493 792 z"},"č":{"ha":850,"x_min":0,"x_max":0,"o":"m 433 -19 l 433 -19 q 250 22 332 -19 q 120 141 168 63 q 72 331 72 219 l 72 331 l 72 347 q 121 540 72 458 q 251 665 169 621 q 433 708 333 708 l 433 708 q 668 633 578 708 q 781 436 758 558 l 781 436 l 608 392 q 556 497 600 453 q 431 542 511 542 l 431 542 q 301 489 356 542 q 247 343 247 436 l 247 343 l 247 335 q 301 194 247 242 q 431 147 356 147 l 431 147 q 553 188 511 147 q 608 296 596 228 l 608 296 l 781 253 q 669 56 758 131 q 433 -19 581 -19 z m 544 792 l 306 792 l 189 981 l 357 981 l 417 858 l 433 858 l 493 981 l 661 981 l 544 792 z"},"ç":{"ha":850,"x_min":0,"x_max":0,"o":"m 507 -294 l 507 -294 q 441 -287 468 -294 q 390 -267 414 -279 l 390 -267 l 426 -172 q 496 -192 458 -192 l 496 -192 q 530 -182 517 -192 q 543 -156 543 -172 l 543 -156 q 536 -134 543 -143 q 515 -125 529 -125 l 515 -125 q 488 -144 493 -125 l 488 -144 l 353 -144 l 353 -128 l 376 -15 q 220 39 289 -4 q 112 156 151 82 q 72 331 72 231 l 72 331 l 72 347 q 121 540 72 458 q 251 665 169 621 q 433 708 333 708 l 433 708 q 668 633 578 708 q 781 436 758 558 l 781 436 l 608 392 q 556 497 600 453 q 431 542 511 542 l 431 542 q 301 489 356 542 q 247 343 247 436 l 247 343 l 247 335 q 301 194 247 242 q 431 147 356 147 l 431 147 q 553 188 511 147 q 608 296 596 228 l 608 296 l 781 253 q 681 67 758 139 q 474 -17 603 -6 l 474 -17 l 464 -64 l 481 -64 q 503 -42 488 -51 q 544 -33 518 -33 l 544 -33 q 631 -69 601 -33 q 660 -156 660 -106 l 660 -156 q 616 -257 660 -219 q 507 -294 572 -294 z"},"ĉ":{"ha":850,"x_min":0,"x_max":0,"o":"m 433 -19 l 433 -19 q 250 22 332 -19 q 120 141 168 63 q 72 331 72 219 l 72 331 l 72 347 q 121 540 72 458 q 251 665 169 621 q 433 708 333 708 l 433 708 q 668 633 578 708 q 781 436 758 558 l 781 436 l 608 392 q 556 497 600 453 q 431 542 511 542 l 431 542 q 301 489 356 542 q 247 343 247 436 l 247 343 l 247 335 q 301 194 247 242 q 431 147 356 147 l 431 147 q 553 188 511 147 q 608 296 596 228 l 608 296 l 781 253 q 669 56 758 131 q 433 -19 581 -19 z m 357 792 l 189 792 l 306 981 l 544 981 l 661 792 l 493 792 l 433 914 l 417 914 l 357 792 z"},"ċ":{"ha":850,"x_min":0,"x_max":0,"o":"m 433 -19 l 433 -19 q 250 22 332 -19 q 120 141 168 63 q 72 331 72 219 l 72 331 l 72 347 q 121 540 72 458 q 251 665 169 621 q 433 708 333 708 l 433 708 q 668 633 578 708 q 781 436 758 558 l 781 436 l 608 392 q 556 497 600 453 q 431 542 511 542 l 431 542 q 301 489 356 542 q 247 343 247 436 l 247 343 l 247 335 q 301 194 247 242 q 431 147 356 147 l 431 147 q 553 188 511 147 q 608 296 596 228 l 608 296 l 781 253 q 669 56 758 131 q 433 -19 581 -19 z m 425 782 l 425 782 q 332 820 371 782 q 293 914 293 858 l 293 914 q 332 1008 293 969 q 425 1046 371 1046 l 425 1046 q 518 1008 479 1046 q 557 914 557 969 l 557 914 q 518 820 557 858 q 425 782 479 782 z"},"d":{"ha":850,"x_min":0,"x_max":0,"o":"m 363 -19 l 363 -19 q 210 22 278 -19 q 101 141 142 63 q 61 332 61 219 l 61 332 l 61 357 q 103 547 61 468 q 216 667 146 625 q 369 708 286 708 l 369 708 q 502 677 453 708 q 578 589 551 646 l 578 589 l 603 589 l 603 972 l 778 972 l 778 0 l 603 0 l 603 100 l 578 100 q 509 17 557 54 q 363 -19 461 -19 z m 419 147 l 419 147 q 552 199 501 147 q 603 336 603 251 l 603 336 l 603 353 q 552 490 603 438 q 419 542 501 542 l 419 542 q 288 490 339 542 q 236 353 236 439 l 236 353 l 236 336 q 288 199 236 250 q 419 147 339 147 z"},"ď":{"ha":850,"x_min":0,"x_max":0,"o":"m 228 -19 l 228 -19 q 74 67 124 -19 q 25 326 25 154 l 25 326 l 25 374 q 80 631 25 553 q 228 708 135 708 l 228 708 q 308 686 274 708 q 350 631 342 664 l 350 631 l 375 631 l 375 972 l 550 972 l 550 0 l 375 0 l 375 56 l 350 56 q 308 -1 340 18 q 228 -19 276 -19 z m 708 564 l 625 564 l 625 672 l 688 672 q 725 714 725 672 l 725 714 l 725 731 l 713 731 q 628 767 664 731 q 592 851 592 803 l 592 851 q 628 936 592 900 q 713 972 664 972 l 713 972 q 797 936 761 972 q 833 851 833 900 l 833 851 l 833 689 q 797 600 833 636 q 708 564 761 564 l 708 564 z m 290 147 l 290 147 q 355 181 335 147 q 375 269 375 214 l 375 269 l 375 419 q 355 509 375 476 q 290 542 335 542 l 290 542 q 222 499 243 542 q 200 365 200 456 l 200 365 l 200 324 q 222 190 200 233 q 290 147 243 147 z"},"đ":{"ha":850,"x_min":0,"x_max":0,"o":"m 351 -19 l 351 -19 q 199 22 267 -19 q 90 141 131 63 q 50 332 50 219 l 50 332 l 50 357 q 92 547 50 468 q 205 667 135 625 q 358 708 275 708 l 358 708 q 491 677 442 708 q 567 589 540 646 l 567 589 l 592 589 l 592 747 l 375 747 l 375 906 l 592 906 l 592 972 l 767 972 l 767 906 l 850 906 l 850 747 l 767 747 l 767 0 l 592 0 l 592 100 l 567 100 q 498 17 546 54 q 351 -19 450 -19 z m 408 147 l 408 147 q 541 199 490 147 q 592 336 592 251 l 592 336 l 592 353 q 541 490 592 438 q 408 542 490 542 l 408 542 q 276 490 328 542 q 225 353 225 439 l 225 353 l 225 336 q 276 199 225 250 q 408 147 328 147 z"},"ḍ":{"ha":850,"x_min":0,"x_max":0,"o":"m 363 -19 l 363 -19 q 210 22 278 -19 q 101 141 142 63 q 61 332 61 219 l 61 332 l 61 357 q 103 547 61 468 q 216 667 146 625 q 369 708 286 708 l 369 708 q 502 677 453 708 q 578 589 551 646 l 578 589 l 603 589 l 603 972 l 778 972 l 778 0 l 603 0 l 603 100 l 578 100 q 509 17 557 54 q 363 -19 461 -19 z m 419 147 l 419 147 q 552 199 501 147 q 603 336 603 251 l 603 336 l 603 353 q 552 490 603 438 q 419 542 501 542 l 419 542 q 288 490 339 542 q 236 353 236 439 l 236 353 l 236 336 q 288 199 236 250 q 419 147 339 147 z m 369 -353 l 369 -353 q 276 -315 315 -353 q 238 -221 238 -276 l 238 -221 q 276 -127 238 -165 q 369 -89 315 -89 l 369 -89 q 463 -127 424 -89 q 501 -221 501 -165 l 501 -221 q 463 -315 501 -276 q 369 -353 424 -353 z"},"ḏ":{"ha":850,"x_min":0,"x_max":0,"o":"m 363 -19 l 363 -19 q 210 22 278 -19 q 101 141 142 63 q 61 332 61 219 l 61 332 l 61 357 q 103 547 61 468 q 216 667 146 625 q 369 708 286 708 l 369 708 q 502 677 453 708 q 578 589 551 646 l 578 589 l 603 589 l 603 972 l 778 972 l 778 0 l 603 0 l 603 100 l 578 100 q 509 17 557 54 q 363 -19 461 -19 z m 419 147 l 419 147 q 552 199 501 147 q 603 336 603 251 l 603 336 l 603 353 q 552 490 603 438 q 419 542 501 542 l 419 542 q 288 490 339 542 q 236 353 236 439 l 236 353 l 236 336 q 288 199 236 250 q 419 147 339 147 z m 574 -228 l 165 -228 l 165 -86 l 574 -86 l 574 -228 z"},"ð":{"ha":850,"x_min":0,"x_max":0,"o":"m 418 -19 l 418 -19 q 242 23 322 -19 q 114 145 163 65 q 65 336 65 225 l 65 336 l 65 353 q 108 545 65 465 q 221 667 151 625 q 371 708 290 708 l 371 708 q 476 693 436 708 q 543 644 517 678 l 543 644 l 568 644 q 514 729 549 693 q 431 792 479 765 l 431 792 l 414 739 l 278 779 l 296 838 q 251 847 274 843 q 204 853 228 850 l 204 853 l 232 1011 q 290 1003 261 1008 q 344 992 318 999 l 344 992 l 361 1044 l 497 1004 l 479 946 q 655 813 588 894 q 753 626 722 731 q 785 404 785 522 l 785 404 q 737 169 785 264 q 606 28 689 75 q 418 -19 524 -19 z m 419 147 l 419 147 q 550 198 500 147 q 600 353 600 249 l 600 353 q 550 491 600 440 q 419 542 500 542 l 419 542 q 290 489 339 542 q 240 349 240 436 l 240 349 l 240 340 q 290 198 240 249 q 419 147 339 147 z"},"e":{"ha":850,"x_min":0,"x_max":0,"o":"m 432 -19 l 432 -19 q 250 24 329 -19 q 126 150 171 68 q 82 347 82 232 l 82 347 l 82 356 q 129 540 82 461 q 255 664 176 619 q 429 708 333 708 l 429 708 q 582 678 518 708 q 687 599 646 647 q 748 492 728 550 q 768 381 768 435 l 768 381 l 768 288 l 263 288 q 314 187 265 226 q 429 147 363 147 l 429 147 q 530 171 494 147 q 579 225 565 194 l 579 225 l 729 142 q 678 69 714 107 q 583 6 643 32 q 432 -19 524 -19 z m 265 438 l 265 438 l 590 438 q 538 518 582 486 q 428 550 494 550 l 428 550 q 320 516 363 550 q 265 438 278 482 z"},"é":{"ha":850,"x_min":0,"x_max":0,"o":"m 432 -19 l 432 -19 q 250 24 329 -19 q 126 150 171 68 q 82 347 82 232 l 82 347 l 82 356 q 129 540 82 461 q 255 664 176 619 q 429 708 333 708 l 429 708 q 582 678 518 708 q 687 599 646 647 q 748 492 728 550 q 768 381 768 435 l 768 381 l 768 288 l 263 288 q 314 187 265 226 q 429 147 363 147 l 429 147 q 530 171 494 147 q 579 225 565 194 l 579 225 l 729 142 q 678 69 714 107 q 583 6 643 32 q 432 -19 524 -19 z m 265 438 l 265 438 l 590 438 q 538 518 582 486 q 428 550 494 550 l 428 550 q 320 516 363 550 q 265 438 278 482 z m 493 792 l 351 792 l 424 981 l 610 981 l 493 792 z"},"ĕ":{"ha":850,"x_min":0,"x_max":0,"o":"m 432 -19 l 432 -19 q 250 24 329 -19 q 126 150 171 68 q 82 347 82 232 l 82 347 l 82 356 q 129 540 82 461 q 255 664 176 619 q 429 708 333 708 l 429 708 q 582 678 518 708 q 687 599 646 647 q 748 492 728 550 q 768 381 768 435 l 768 381 l 768 288 l 263 288 q 314 187 265 226 q 429 147 363 147 l 429 147 q 530 171 494 147 q 579 225 565 194 l 579 225 l 729 142 q 678 69 714 107 q 583 6 643 32 q 432 -19 524 -19 z m 265 438 l 265 438 l 590 438 q 538 518 582 486 q 428 550 494 550 l 428 550 q 320 516 363 550 q 265 438 278 482 z m 425 790 l 425 790 q 293 835 344 790 q 242 960 242 881 l 242 960 l 242 979 l 367 979 l 367 971 q 381 929 367 946 q 425 913 396 913 l 425 913 q 469 929 454 913 q 483 971 483 946 l 483 971 l 483 979 l 608 979 l 608 960 q 558 835 608 881 q 425 790 507 790 z"},"ě":{"ha":850,"x_min":0,"x_max":0,"o":"m 432 -19 l 432 -19 q 250 24 329 -19 q 126 150 171 68 q 82 347 82 232 l 82 347 l 82 356 q 129 540 82 461 q 255 664 176 619 q 429 708 333 708 l 429 708 q 582 678 518 708 q 687 599 646 647 q 748 492 728 550 q 768 381 768 435 l 768 381 l 768 288 l 263 288 q 314 187 265 226 q 429 147 363 147 l 429 147 q 530 171 494 147 q 579 225 565 194 l 579 225 l 729 142 q 678 69 714 107 q 583 6 643 32 q 432 -19 524 -19 z m 265 438 l 265 438 l 590 438 q 538 518 582 486 q 428 550 494 550 l 428 550 q 320 516 363 550 q 265 438 278 482 z m 544 792 l 306 792 l 189 981 l 357 981 l 417 858 l 433 858 l 493 981 l 661 981 l 544 792 z"},"ê":{"ha":850,"x_min":0,"x_max":0,"o":"m 432 -19 l 432 -19 q 250 24 329 -19 q 126 150 171 68 q 82 347 82 232 l 82 347 l 82 356 q 129 540 82 461 q 255 664 176 619 q 429 708 333 708 l 429 708 q 582 678 518 708 q 687 599 646 647 q 748 492 728 550 q 768 381 768 435 l 768 381 l 768 288 l 263 288 q 314 187 265 226 q 429 147 363 147 l 429 147 q 530 171 494 147 q 579 225 565 194 l 579 225 l 729 142 q 678 69 714 107 q 583 6 643 32 q 432 -19 524 -19 z m 265 438 l 265 438 l 590 438 q 538 518 582 486 q 428 550 494 550 l 428 550 q 320 516 363 550 q 265 438 278 482 z m 357 792 l 189 792 l 306 981 l 544 981 l 661 792 l 493 792 l 433 914 l 417 914 l 357 792 z"},"ế":{"ha":850,"x_min":0,"x_max":0,"o":"m 432 -19 l 432 -19 q 250 24 329 -19 q 126 150 171 68 q 82 347 82 232 l 82 347 l 82 356 q 129 540 82 461 q 255 664 176 619 q 429 708 333 708 l 429 708 q 582 678 518 708 q 687 599 646 647 q 748 492 728 550 q 768 381 768 435 l 768 381 l 768 288 l 263 288 q 314 187 265 226 q 429 147 363 147 l 429 147 q 530 171 494 147 q 579 225 565 194 l 579 225 l 729 142 q 678 69 714 107 q 583 6 643 32 q 432 -19 524 -19 z m 265 438 l 265 438 l 590 438 q 538 518 582 486 q 428 550 494 550 l 428 550 q 320 516 363 550 q 265 438 278 482 z m 357 792 l 189 792 l 306 981 l 544 981 l 661 792 l 493 792 l 433 914 l 417 914 l 357 792 z m 749 914 l 607 914 l 679 1103 l 865 1103 l 749 914 z"},"ệ":{"ha":850,"x_min":0,"x_max":0,"o":"m 432 -19 l 432 -19 q 250 24 329 -19 q 126 150 171 68 q 82 347 82 232 l 82 347 l 82 356 q 129 540 82 461 q 255 664 176 619 q 429 708 333 708 l 429 708 q 582 678 518 708 q 687 599 646 647 q 748 492 728 550 q 768 381 768 435 l 768 381 l 768 288 l 263 288 q 314 187 265 226 q 429 147 363 147 l 429 147 q 530 171 494 147 q 579 225 565 194 l 579 225 l 729 142 q 678 69 714 107 q 583 6 643 32 q 432 -19 524 -19 z m 265 438 l 265 438 l 590 438 q 538 518 582 486 q 428 550 494 550 l 428 550 q 320 516 363 550 q 265 438 278 482 z m 425 -353 l 425 -353 q 332 -315 371 -353 q 293 -221 293 -276 l 293 -221 q 332 -127 293 -165 q 425 -89 371 -89 l 425 -89 q 518 -127 479 -89 q 557 -221 557 -165 l 557 -221 q 518 -315 557 -276 q 425 -353 479 -353 z m 357 792 l 189 792 l 306 981 l 544 981 l 661 792 l 493 792 l 433 914 l 417 914 l 357 792 z"},"ề":{"ha":850,"x_min":0,"x_max":0,"o":"m 432 -19 l 432 -19 q 250 24 329 -19 q 126 150 171 68 q 82 347 82 232 l 82 347 l 82 356 q 129 540 82 461 q 255 664 176 619 q 429 708 333 708 l 429 708 q 582 678 518 708 q 687 599 646 647 q 748 492 728 550 q 768 381 768 435 l 768 381 l 768 288 l 263 288 q 314 187 265 226 q 429 147 363 147 l 429 147 q 530 171 494 147 q 579 225 565 194 l 579 225 l 729 142 q 678 69 714 107 q 583 6 643 32 q 432 -19 524 -19 z m 265 438 l 265 438 l 590 438 q 538 518 582 486 q 428 550 494 550 l 428 550 q 320 516 363 550 q 265 438 278 482 z m 357 792 l 189 792 l 306 981 l 544 981 l 661 792 l 493 792 l 433 914 l 417 914 l 357 792 z m 221 914 l 79 914 l -37 1103 l 149 1103 l 221 914 z"},"ể":{"ha":850,"x_min":0,"x_max":0,"o":"m 432 -19 l 432 -19 q 250 24 329 -19 q 126 150 171 68 q 82 347 82 232 l 82 347 l 82 356 q 129 540 82 461 q 255 664 176 619 q 429 708 333 708 l 429 708 q 582 678 518 708 q 687 599 646 647 q 748 492 728 550 q 768 381 768 435 l 768 381 l 768 288 l 263 288 q 314 187 265 226 q 429 147 363 147 l 429 147 q 530 171 494 147 q 579 225 565 194 l 579 225 l 729 142 q 678 69 714 107 q 583 6 643 32 q 432 -19 524 -19 z m 265 438 l 265 438 l 590 438 q 538 518 582 486 q 428 550 494 550 l 428 550 q 320 516 363 550 q 265 438 278 482 z m 357 792 l 189 792 l 306 981 l 544 981 l 661 792 l 493 792 l 433 914 l 417 914 l 357 792 z m 731 914 l 633 914 l 606 1042 l 606 1058 l 740 1058 q 768 1039 746 1039 l 768 1039 q 789 1048 782 1039 q 796 1069 796 1057 l 796 1069 q 783 1096 796 1086 q 749 1106 769 1106 l 749 1106 q 679 1086 711 1106 l 679 1086 l 643 1181 q 694 1201 667 1193 q 760 1208 721 1208 l 760 1208 q 869 1172 825 1208 q 913 1069 913 1135 l 913 1069 q 883 983 913 1019 q 797 947 854 947 l 797 947 q 756 956 771 947 q 733 978 740 965 l 733 978 l 717 978 l 731 914 z"},"ễ":{"ha":850,"x_min":0,"x_max":0,"o":"m 432 -19 l 432 -19 q 250 24 329 -19 q 126 150 171 68 q 82 347 82 232 l 82 347 l 82 356 q 129 540 82 461 q 255 664 176 619 q 429 708 333 708 l 429 708 q 582 678 518 708 q 687 599 646 647 q 748 492 728 550 q 768 381 768 435 l 768 381 l 768 288 l 263 288 q 314 187 265 226 q 429 147 363 147 l 429 147 q 530 171 494 147 q 579 225 565 194 l 579 225 l 729 142 q 678 69 714 107 q 583 6 643 32 q 432 -19 524 -19 z m 265 438 l 265 438 l 590 438 q 538 518 582 486 q 428 550 494 550 l 428 550 q 320 516 363 550 q 265 438 278 482 z m 357 792 l 189 792 l 306 981 l 544 981 l 661 792 l 493 792 l 433 914 l 417 914 l 357 792 z m 293 1078 l 254 1028 l 153 1110 l 228 1204 q 282 1250 254 1238 q 344 1263 310 1263 l 344 1263 q 436 1221 399 1263 l 436 1221 q 472 1188 457 1197 q 501 1178 486 1178 l 501 1178 q 533 1188 519 1178 q 557 1213 546 1199 l 557 1213 l 597 1263 l 700 1183 l 622 1086 q 569 1042 597 1056 q 506 1028 542 1028 l 506 1028 q 453 1040 478 1028 q 406 1078 429 1051 l 406 1078 q 382 1101 396 1090 q 350 1113 368 1113 l 350 1113 q 318 1103 332 1113 q 293 1078 304 1093 l 293 1078 z"},"ë":{"ha":850,"x_min":0,"x_max":0,"o":"m 432 -19 l 432 -19 q 250 24 329 -19 q 126 150 171 68 q 82 347 82 232 l 82 347 l 82 356 q 129 540 82 461 q 255 664 176 619 q 429 708 333 708 l 429 708 q 582 678 518 708 q 687 599 646 647 q 748 492 728 550 q 768 381 768 435 l 768 381 l 768 288 l 263 288 q 314 187 265 226 q 429 147 363 147 l 429 147 q 530 171 494 147 q 579 225 565 194 l 579 225 l 729 142 q 678 69 714 107 q 583 6 643 32 q 432 -19 524 -19 z m 265 438 l 265 438 l 590 438 q 538 518 582 486 q 428 550 494 550 l 428 550 q 320 516 363 550 q 265 438 278 482 z m 590 751 l 590 751 q 497 790 536 751 q 458 883 458 828 l 458 883 q 497 977 458 939 q 590 1015 536 1015 l 590 1015 q 683 977 644 1015 q 722 883 722 939 l 722 883 q 683 790 722 828 q 590 751 644 751 z m 260 751 l 260 751 q 167 790 206 751 q 128 883 128 828 l 128 883 q 167 977 128 939 q 260 1015 206 1015 l 260 1015 q 353 977 314 1015 q 392 883 392 939 l 392 883 q 353 790 392 828 q 260 751 314 751 z"},"ė":{"ha":850,"x_min":0,"x_max":0,"o":"m 432 -19 l 432 -19 q 250 24 329 -19 q 126 150 171 68 q 82 347 82 232 l 82 347 l 82 356 q 129 540 82 461 q 255 664 176 619 q 429 708 333 708 l 429 708 q 582 678 518 708 q 687 599 646 647 q 748 492 728 550 q 768 381 768 435 l 768 381 l 768 288 l 263 288 q 314 187 265 226 q 429 147 363 147 l 429 147 q 530 171 494 147 q 579 225 565 194 l 579 225 l 729 142 q 678 69 714 107 q 583 6 643 32 q 432 -19 524 -19 z m 265 438 l 265 438 l 590 438 q 538 518 582 486 q 428 550 494 550 l 428 550 q 320 516 363 550 q 265 438 278 482 z m 425 782 l 425 782 q 332 820 371 782 q 293 914 293 858 l 293 914 q 332 1008 293 969 q 425 1046 371 1046 l 425 1046 q 518 1008 479 1046 q 557 914 557 969 l 557 914 q 518 820 557 858 q 425 782 479 782 z"},"ẹ":{"ha":850,"x_min":0,"x_max":0,"o":"m 432 -19 l 432 -19 q 250 24 329 -19 q 126 150 171 68 q 82 347 82 232 l 82 347 l 82 356 q 129 540 82 461 q 255 664 176 619 q 429 708 333 708 l 429 708 q 582 678 518 708 q 687 599 646 647 q 748 492 728 550 q 768 381 768 435 l 768 381 l 768 288 l 263 288 q 314 187 265 226 q 429 147 363 147 l 429 147 q 530 171 494 147 q 579 225 565 194 l 579 225 l 729 142 q 678 69 714 107 q 583 6 643 32 q 432 -19 524 -19 z m 265 438 l 265 438 l 590 438 q 538 518 582 486 q 428 550 494 550 l 428 550 q 320 516 363 550 q 265 438 278 482 z m 425 -353 l 425 -353 q 332 -315 371 -353 q 293 -221 293 -276 l 293 -221 q 332 -127 293 -165 q 425 -89 371 -89 l 425 -89 q 518 -127 479 -89 q 557 -221 557 -165 l 557 -221 q 518 -315 557 -276 q 425 -353 479 -353 z"},"è":{"ha":850,"x_min":0,"x_max":0,"o":"m 432 -19 l 432 -19 q 250 24 329 -19 q 126 150 171 68 q 82 347 82 232 l 82 347 l 82 356 q 129 540 82 461 q 255 664 176 619 q 429 708 333 708 l 429 708 q 582 678 518 708 q 687 599 646 647 q 748 492 728 550 q 768 381 768 435 l 768 381 l 768 288 l 263 288 q 314 187 265 226 q 429 147 363 147 l 429 147 q 530 171 494 147 q 579 225 565 194 l 579 225 l 729 142 q 678 69 714 107 q 583 6 643 32 q 432 -19 524 -19 z m 265 438 l 265 438 l 590 438 q 538 518 582 486 q 428 550 494 550 l 428 550 q 320 516 363 550 q 265 438 278 482 z m 494 792 l 353 792 l 236 981 l 422 981 l 494 792 z"},"ẻ":{"ha":850,"x_min":0,"x_max":0,"o":"m 432 -19 l 432 -19 q 250 24 329 -19 q 126 150 171 68 q 82 347 82 232 l 82 347 l 82 356 q 129 540 82 461 q 255 664 176 619 q 429 708 333 708 l 429 708 q 582 678 518 708 q 687 599 646 647 q 748 492 728 550 q 768 381 768 435 l 768 381 l 768 288 l 263 288 q 314 187 265 226 q 429 147 363 147 l 429 147 q 530 171 494 147 q 579 225 565 194 l 579 225 l 729 142 q 678 69 714 107 q 583 6 643 32 q 432 -19 524 -19 z m 265 438 l 265 438 l 590 438 q 538 518 582 486 q 428 550 494 550 l 428 550 q 320 516 363 550 q 265 438 278 482 z m 476 758 l 379 758 l 351 886 l 351 903 l 486 903 q 514 883 492 883 l 514 883 q 535 892 528 883 q 542 914 542 901 l 542 914 q 528 940 542 931 q 494 950 515 950 l 494 950 q 425 931 457 950 l 425 931 l 389 1025 q 440 1045 413 1038 q 506 1053 467 1053 l 506 1053 q 615 1016 571 1053 q 658 914 658 979 l 658 914 q 629 828 658 864 q 543 792 600 792 l 543 792 q 501 801 517 792 q 479 822 486 810 l 479 822 l 463 822 l 476 758 z"},"ē":{"ha":850,"x_min":0,"x_max":0,"o":"m 432 -19 l 432 -19 q 250 24 329 -19 q 126 150 171 68 q 82 347 82 232 l 82 347 l 82 356 q 129 540 82 461 q 255 664 176 619 q 429 708 333 708 l 429 708 q 582 678 518 708 q 687 599 646 647 q 748 492 728 550 q 768 381 768 435 l 768 381 l 768 288 l 263 288 q 314 187 265 226 q 429 147 363 147 l 429 147 q 530 171 494 147 q 579 225 565 194 l 579 225 l 729 142 q 678 69 714 107 q 583 6 643 32 q 432 -19 524 -19 z m 265 438 l 265 438 l 590 438 q 538 518 582 486 q 428 550 494 550 l 428 550 q 320 516 363 550 q 265 438 278 482 z m 629 792 l 221 792 l 221 933 l 629 933 l 629 792 z"},"ę":{"ha":850,"x_min":0,"x_max":0,"o":"m 561 -236 l 450 -236 q 374 -210 408 -236 q 339 -132 339 -183 l 339 -132 q 343 -100 339 -118 l 343 -100 l 363 -14 q 159 101 236 7 q 82 347 82 194 l 82 347 l 82 356 q 129 540 82 461 q 255 664 176 619 q 429 708 333 708 l 429 708 q 582 678 518 708 q 687 599 646 647 q 748 492 728 550 q 768 381 768 435 l 768 381 l 768 288 l 263 288 q 314 187 265 226 q 429 147 363 147 l 429 147 q 530 171 494 147 q 579 225 565 194 l 579 225 l 729 142 q 685 76 715 110 q 605 16 654 42 q 481 -17 556 -10 l 481 -17 l 467 -78 q 465 -89 465 -85 l 465 -89 q 497 -119 465 -119 l 497 -119 l 561 -119 l 561 -236 z m 265 438 l 265 438 l 590 438 q 538 518 582 486 q 428 550 494 550 l 428 550 q 320 516 363 550 q 265 438 278 482 z"},"ɘ":{"ha":850,"x_min":0,"x_max":0,"o":"m 422 -19 l 422 -19 q 271 6 331 -19 q 176 69 211 32 q 125 142 142 107 l 125 142 l 275 225 q 326 171 290 194 q 425 147 361 147 l 425 147 q 541 187 492 147 q 592 288 590 226 l 592 288 l 86 288 l 86 381 q 106 492 86 435 q 167 599 126 550 q 272 678 208 647 q 425 708 336 708 l 425 708 q 600 664 521 708 q 726 540 679 619 q 772 356 772 461 l 772 356 l 772 347 q 728 150 772 232 q 604 24 683 68 q 422 -19 525 -19 z m 264 438 l 264 438 l 589 438 q 534 516 576 482 q 426 550 492 550 l 426 550 q 316 518 360 550 q 264 438 272 486 z"},"ẽ":{"ha":850,"x_min":0,"x_max":0,"o":"m 432 -19 l 432 -19 q 250 24 329 -19 q 126 150 171 68 q 82 347 82 232 l 82 347 l 82 356 q 129 540 82 461 q 255 664 176 619 q 429 708 333 708 l 429 708 q 582 678 518 708 q 687 599 646 647 q 748 492 728 550 q 768 381 768 435 l 768 381 l 768 288 l 263 288 q 314 187 265 226 q 429 147 363 147 l 429 147 q 530 171 494 147 q 579 225 565 194 l 579 225 l 729 142 q 678 69 714 107 q 583 6 643 32 q 432 -19 524 -19 z m 265 438 l 265 438 l 590 438 q 538 518 582 486 q 428 550 494 550 l 428 550 q 320 516 363 550 q 265 438 278 482 z m 293 815 l 254 765 l 153 847 l 228 942 q 282 988 254 975 q 344 1000 310 1000 l 344 1000 q 436 958 399 1000 l 436 958 q 472 925 457 935 q 501 915 486 915 l 501 915 q 533 926 519 915 q 557 950 546 936 l 557 950 l 597 1000 l 700 921 l 622 824 q 569 779 597 793 q 506 765 542 765 l 506 765 q 453 777 478 765 q 406 815 429 789 l 406 815 q 382 839 396 828 q 350 850 368 850 l 350 850 q 318 840 332 850 q 293 815 304 831 l 293 815 z"},"ə":{"ha":850,"x_min":0,"x_max":0,"o":"m 422 -19 l 422 -19 q 269 11 333 -19 q 165 90 206 42 q 103 197 124 139 q 83 308 83 254 l 83 308 l 83 401 l 589 401 q 538 502 588 463 q 422 542 489 542 l 422 542 q 324 517 363 542 q 267 458 286 492 l 267 458 l 136 558 q 243 662 172 615 q 419 708 314 708 l 419 708 q 599 665 519 708 q 724 540 678 622 q 769 342 769 458 l 769 342 l 769 333 q 723 149 769 228 q 597 25 676 69 q 422 -19 518 -19 z m 424 139 l 424 139 q 531 173 489 139 q 586 251 574 207 l 586 251 l 261 251 q 313 171 269 203 q 424 139 357 139 z"},"f":{"ha":850,"x_min":0,"x_max":0,"o":"m 474 0 l 299 0 l 299 522 l 103 522 l 103 689 l 299 689 l 299 831 q 339 931 299 890 q 439 972 379 972 l 439 972 l 719 972 l 719 806 l 511 806 q 474 764 474 806 l 474 764 l 474 689 l 744 689 l 744 522 l 474 522 l 474 0 z"},"g":{"ha":850,"x_min":0,"x_max":0,"o":"m 668 -278 l 204 -278 l 204 -111 l 563 -111 q 600 -69 600 -111 l 600 -69 l 600 100 l 575 100 q 506 17 554 54 q 360 -19 458 -19 l 360 -19 q 207 22 275 -19 q 99 141 139 63 q 58 332 58 219 l 58 332 l 58 357 q 101 547 58 468 q 213 667 143 625 q 367 708 283 708 l 367 708 q 499 677 450 708 q 575 589 549 646 l 575 589 l 600 589 l 600 689 l 775 689 l 775 -169 q 745 -247 775 -217 q 668 -278 715 -278 l 668 -278 z m 417 147 l 417 147 q 549 199 499 147 q 600 336 600 251 l 600 336 l 600 353 q 549 490 600 438 q 417 542 499 542 l 417 542 q 285 490 336 542 q 233 353 233 439 l 233 353 l 233 336 q 285 199 233 250 q 417 147 336 147 z"},"ğ":{"ha":850,"x_min":0,"x_max":0,"o":"m 668 -278 l 204 -278 l 204 -111 l 563 -111 q 600 -69 600 -111 l 600 -69 l 600 100 l 575 100 q 506 17 554 54 q 360 -19 458 -19 l 360 -19 q 207 22 275 -19 q 99 141 139 63 q 58 332 58 219 l 58 332 l 58 357 q 101 547 58 468 q 213 667 143 625 q 367 708 283 708 l 367 708 q 499 677 450 708 q 575 589 549 646 l 575 589 l 600 589 l 600 689 l 775 689 l 775 -169 q 745 -247 775 -217 q 668 -278 715 -278 l 668 -278 z m 417 147 l 417 147 q 549 199 499 147 q 600 336 600 251 l 600 336 l 600 353 q 549 490 600 438 q 417 542 499 542 l 417 542 q 285 490 336 542 q 233 353 233 439 l 233 353 l 233 336 q 285 199 233 250 q 417 147 336 147 z m 371 790 l 371 790 q 239 835 290 790 q 188 960 188 881 l 188 960 l 188 979 l 313 979 l 313 971 q 327 929 313 946 q 371 913 342 913 l 371 913 q 415 929 400 913 q 429 971 429 946 l 429 971 l 429 979 l 554 979 l 554 960 q 503 835 554 881 q 371 790 453 790 z"},"ǧ":{"ha":850,"x_min":0,"x_max":0,"o":"m 668 -278 l 204 -278 l 204 -111 l 563 -111 q 600 -69 600 -111 l 600 -69 l 600 100 l 575 100 q 506 17 554 54 q 360 -19 458 -19 l 360 -19 q 207 22 275 -19 q 99 141 139 63 q 58 332 58 219 l 58 332 l 58 357 q 101 547 58 468 q 213 667 143 625 q 367 708 283 708 l 367 708 q 499 677 450 708 q 575 589 549 646 l 575 589 l 600 589 l 600 689 l 775 689 l 775 -169 q 745 -247 775 -217 q 668 -278 715 -278 l 668 -278 z m 417 147 l 417 147 q 549 199 499 147 q 600 336 600 251 l 600 336 l 600 353 q 549 490 600 438 q 417 542 499 542 l 417 542 q 285 490 336 542 q 233 353 233 439 l 233 353 l 233 336 q 285 199 233 250 q 417 147 336 147 z m 490 792 l 251 792 l 135 981 l 303 981 l 363 858 l 379 858 l 439 981 l 607 981 l 490 792 z"},"ĝ":{"ha":850,"x_min":0,"x_max":0,"o":"m 668 -278 l 204 -278 l 204 -111 l 563 -111 q 600 -69 600 -111 l 600 -69 l 600 100 l 575 100 q 506 17 554 54 q 360 -19 458 -19 l 360 -19 q 207 22 275 -19 q 99 141 139 63 q 58 332 58 219 l 58 332 l 58 357 q 101 547 58 468 q 213 667 143 625 q 367 708 283 708 l 367 708 q 499 677 450 708 q 575 589 549 646 l 575 589 l 600 589 l 600 689 l 775 689 l 775 -169 q 745 -247 775 -217 q 668 -278 715 -278 l 668 -278 z m 417 147 l 417 147 q 549 199 499 147 q 600 336 600 251 l 600 336 l 600 353 q 549 490 600 438 q 417 542 499 542 l 417 542 q 285 490 336 542 q 233 353 233 439 l 233 353 l 233 336 q 285 199 233 250 q 417 147 336 147 z m 303 792 l 135 792 l 251 981 l 490 981 l 607 792 l 439 792 l 379 914 l 363 914 l 303 792 z"},"ģ":{"ha":850,"x_min":0,"x_max":0,"o":"m 668 -278 l 204 -278 l 204 -111 l 563 -111 q 600 -69 600 -111 l 600 -69 l 600 100 l 575 100 q 506 17 554 54 q 360 -19 458 -19 l 360 -19 q 207 22 275 -19 q 99 141 139 63 q 58 332 58 219 l 58 332 l 58 357 q 101 547 58 468 q 213 667 143 625 q 367 708 283 708 l 367 708 q 499 677 450 708 q 575 589 549 646 l 575 589 l 600 589 l 600 689 l 775 689 l 775 -169 q 745 -247 775 -217 q 668 -278 715 -278 l 668 -278 z m 417 147 l 417 147 q 549 199 499 147 q 600 336 600 251 l 600 336 l 600 353 q 549 490 600 438 q 417 542 499 542 l 417 542 q 285 490 336 542 q 233 353 233 439 l 233 353 l 233 336 q 285 199 233 250 q 417 147 336 147 z m 371 797 l 371 797 q 286 833 322 797 q 250 918 250 869 l 250 918 l 250 1081 q 286 1169 250 1133 q 375 1206 322 1206 l 375 1206 l 458 1206 l 458 1097 l 396 1097 q 358 1056 358 1097 l 358 1056 l 358 1039 l 371 1039 q 456 1003 419 1039 q 492 918 492 967 l 492 918 q 456 833 492 869 q 371 797 419 797 z"},"ġ":{"ha":850,"x_min":0,"x_max":0,"o":"m 668 -278 l 204 -278 l 204 -111 l 563 -111 q 600 -69 600 -111 l 600 -69 l 600 100 l 575 100 q 506 17 554 54 q 360 -19 458 -19 l 360 -19 q 207 22 275 -19 q 99 141 139 63 q 58 332 58 219 l 58 332 l 58 357 q 101 547 58 468 q 213 667 143 625 q 367 708 283 708 l 367 708 q 499 677 450 708 q 575 589 549 646 l 575 589 l 600 589 l 600 689 l 775 689 l 775 -169 q 745 -247 775 -217 q 668 -278 715 -278 l 668 -278 z m 417 147 l 417 147 q 549 199 499 147 q 600 336 600 251 l 600 336 l 600 353 q 549 490 600 438 q 417 542 499 542 l 417 542 q 285 490 336 542 q 233 353 233 439 l 233 353 l 233 336 q 285 199 233 250 q 417 147 336 147 z m 371 782 l 371 782 q 278 820 317 782 q 239 914 239 858 l 239 914 q 278 1008 239 969 q 371 1046 317 1046 l 371 1046 q 464 1008 425 1046 q 503 914 503 969 l 503 914 q 464 820 503 858 q 371 782 425 782 z"},"ḡ":{"ha":850,"x_min":0,"x_max":0,"o":"m 668 -278 l 204 -278 l 204 -111 l 563 -111 q 600 -69 600 -111 l 600 -69 l 600 100 l 575 100 q 506 17 554 54 q 360 -19 458 -19 l 360 -19 q 207 22 275 -19 q 99 141 139 63 q 58 332 58 219 l 58 332 l 58 357 q 101 547 58 468 q 213 667 143 625 q 367 708 283 708 l 367 708 q 499 677 450 708 q 575 589 549 646 l 575 589 l 600 589 l 600 689 l 775 689 l 775 -169 q 745 -247 775 -217 q 668 -278 715 -278 l 668 -278 z m 417 147 l 417 147 q 549 199 499 147 q 600 336 600 251 l 600 336 l 600 353 q 549 490 600 438 q 417 542 499 542 l 417 542 q 285 490 336 542 q 233 353 233 439 l 233 353 l 233 336 q 285 199 233 250 q 417 147 336 147 z m 575 792 l 167 792 l 167 933 l 575 933 l 575 792 z"},"ɡ":{"ha":850,"x_min":0,"x_max":0,"o":"m 668 -278 l 204 -278 l 204 -111 l 563 -111 q 600 -69 600 -111 l 600 -69 l 600 100 l 575 100 q 506 17 554 54 q 360 -19 458 -19 l 360 -19 q 207 22 275 -19 q 99 141 139 63 q 58 332 58 219 l 58 332 l 58 357 q 101 547 58 468 q 213 667 143 625 q 367 708 283 708 l 367 708 q 499 677 450 708 q 575 589 549 646 l 575 589 l 600 589 l 600 689 l 775 689 l 775 -169 q 745 -247 775 -217 q 668 -278 715 -278 l 668 -278 z m 417 147 l 417 147 q 549 199 499 147 q 600 336 600 251 l 600 336 l 600 353 q 549 490 600 438 q 417 542 499 542 l 417 542 q 285 490 336 542 q 233 353 233 439 l 233 353 l 233 336 q 285 199 233 250 q 417 147 336 147 z"},"h":{"ha":850,"x_min":0,"x_max":0,"o":"m 286 0 l 111 0 l 111 972 l 286 972 l 286 578 l 311 578 q 389 674 338 640 q 515 708 440 708 l 515 708 q 685 642 618 708 q 753 433 753 575 l 753 433 l 753 0 l 578 0 l 578 392 q 542 508 578 465 q 440 550 507 550 l 440 550 q 325 498 364 550 q 286 358 286 446 l 286 358 l 286 0 z"},"ħ":{"ha":850,"x_min":0,"x_max":0,"o":"m 286 0 l 111 0 l 111 747 l 28 747 l 28 906 l 111 906 l 111 972 l 286 972 l 286 906 l 503 906 l 503 747 l 286 747 l 286 578 l 311 578 q 389 674 338 640 q 515 708 440 708 l 515 708 q 685 642 618 708 q 753 433 753 575 l 753 433 l 753 0 l 578 0 l 578 392 q 542 508 578 465 q 440 550 507 550 l 440 550 q 325 498 364 550 q 286 358 286 446 l 286 358 l 286 0 z"},"ḫ":{"ha":850,"x_min":0,"x_max":0,"o":"m 286 0 l 111 0 l 111 972 l 286 972 l 286 578 l 311 578 q 389 674 338 640 q 515 708 440 708 l 515 708 q 685 642 618 708 q 753 433 753 575 l 753 433 l 753 0 l 578 0 l 578 392 q 542 508 578 465 q 440 550 507 550 l 440 550 q 325 498 364 550 q 286 358 286 446 l 286 358 l 286 0 z m 425 -278 l 425 -278 q 293 -233 344 -278 q 242 -108 242 -187 l 242 -108 l 242 -89 l 367 -89 l 367 -97 q 381 -139 367 -122 q 425 -156 396 -156 l 425 -156 q 469 -139 454 -156 q 483 -97 483 -122 l 483 -97 l 483 -89 l 608 -89 l 608 -108 q 558 -233 608 -187 q 425 -278 507 -278 z"},"ĥ":{"ha":850,"x_min":0,"x_max":0,"o":"m 286 0 l 111 0 l 111 972 l 286 972 l 286 578 l 311 578 q 389 674 338 640 q 515 708 440 708 l 515 708 q 685 642 618 708 q 753 433 753 575 l 753 433 l 753 0 l 578 0 l 578 392 q 542 508 578 465 q 440 550 507 550 l 440 550 q 325 498 364 550 q 286 358 286 446 l 286 358 l 286 0 z m 285 1075 l 117 1075 l 233 1264 l 472 1264 l 589 1075 l 421 1075 l 361 1197 l 344 1197 l 285 1075 z"},"ḥ":{"ha":850,"x_min":0,"x_max":0,"o":"m 286 0 l 111 0 l 111 972 l 286 972 l 286 578 l 311 578 q 389 674 338 640 q 515 708 440 708 l 515 708 q 685 642 618 708 q 753 433 753 575 l 753 433 l 753 0 l 578 0 l 578 392 q 542 508 578 465 q 440 550 507 550 l 440 550 q 325 498 364 550 q 286 358 286 446 l 286 358 l 286 0 z m 425 -353 l 425 -353 q 332 -315 371 -353 q 293 -221 293 -276 l 293 -221 q 332 -127 293 -165 q 425 -89 371 -89 l 425 -89 q 518 -127 479 -89 q 557 -221 557 -165 l 557 -221 q 518 -315 557 -276 q 425 -353 479 -353 z"},"ɥ":{"ha":850,"x_min":0,"x_max":0,"o":"m 753 -278 l 578 -278 l 578 111 l 553 111 q 475 15 526 49 q 349 -19 424 -19 l 349 -19 q 179 47 247 -19 q 111 256 111 114 l 111 256 l 111 689 l 286 689 l 286 297 q 322 182 286 225 q 424 139 357 139 l 424 139 q 540 191 501 139 q 578 331 578 243 l 578 331 l 578 689 l 753 689 l 753 -278 z"},"i":{"ha":850,"x_min":0,"x_max":0,"o":"m 440 761 l 440 761 q 347 799 386 761 q 308 893 308 838 l 308 893 q 347 987 308 949 q 440 1025 386 1025 l 440 1025 q 533 987 494 1025 q 572 893 572 949 l 572 893 q 533 799 572 838 q 440 761 494 761 z m 729 0 l 121 0 l 121 167 l 354 167 l 354 522 l 138 522 l 138 689 l 529 689 l 529 167 l 729 167 l 729 0 z"},"ı":{"ha":850,"x_min":0,"x_max":0,"o":"m 729 0 l 121 0 l 121 167 l 354 167 l 354 522 l 138 522 l 138 689 l 529 689 l 529 167 l 729 167 l 729 0 z"},"í":{"ha":850,"x_min":0,"x_max":0,"o":"m 729 0 l 121 0 l 121 167 l 354 167 l 354 522 l 138 522 l 138 689 l 529 689 l 529 167 l 729 167 l 729 0 z m 479 792 l 338 792 l 410 981 l 596 981 l 479 792 z"},"ĭ":{"ha":850,"x_min":0,"x_max":0,"o":"m 729 0 l 121 0 l 121 167 l 354 167 l 354 522 l 138 522 l 138 689 l 529 689 l 529 167 l 729 167 l 729 0 z m 411 790 l 411 790 q 279 835 331 790 q 228 960 228 881 l 228 960 l 228 979 l 353 979 l 353 971 q 367 929 353 946 q 411 913 382 913 l 411 913 q 455 929 440 913 q 469 971 469 946 l 469 971 l 469 979 l 594 979 l 594 960 q 544 835 594 881 q 411 790 493 790 z"},"ǐ":{"ha":850,"x_min":0,"x_max":0,"o":"m 729 0 l 121 0 l 121 167 l 354 167 l 354 522 l 138 522 l 138 689 l 529 689 l 529 167 l 729 167 l 729 0 z m 531 792 l 292 792 l 175 981 l 343 981 l 403 858 l 419 858 l 479 981 l 647 981 l 531 792 z"},"î":{"ha":850,"x_min":0,"x_max":0,"o":"m 729 0 l 121 0 l 121 167 l 354 167 l 354 522 l 138 522 l 138 689 l 529 689 l 529 167 l 729 167 l 729 0 z m 343 792 l 175 792 l 292 981 l 531 981 l 647 792 l 479 792 l 419 914 l 403 914 l 343 792 z"},"ï":{"ha":850,"x_min":0,"x_max":0,"o":"m 729 0 l 121 0 l 121 167 l 354 167 l 354 522 l 138 522 l 138 689 l 529 689 l 529 167 l 729 167 l 729 0 z m 576 751 l 576 751 q 483 790 522 751 q 444 883 444 828 l 444 883 q 483 977 444 939 q 576 1015 522 1015 l 576 1015 q 669 977 631 1015 q 708 883 708 939 l 708 883 q 669 790 708 828 q 576 751 631 751 z m 246 751 l 246 751 q 153 790 192 751 q 114 883 114 828 l 114 883 q 153 977 114 939 q 246 1015 192 1015 l 246 1015 q 339 977 300 1015 q 378 883 378 939 l 378 883 q 339 790 378 828 q 246 751 300 751 z"},"ị":{"ha":850,"x_min":0,"x_max":0,"o":"m 440 761 l 440 761 q 347 799 386 761 q 308 893 308 838 l 308 893 q 347 987 308 949 q 440 1025 386 1025 l 440 1025 q 533 987 494 1025 q 572 893 572 949 l 572 893 q 533 799 572 838 q 440 761 494 761 z m 729 0 l 121 0 l 121 167 l 354 167 l 354 522 l 138 522 l 138 689 l 529 689 l 529 167 l 729 167 l 729 0 z m 435 -353 l 435 -353 q 342 -315 381 -353 q 303 -221 303 -276 l 303 -221 q 342 -127 303 -165 q 435 -89 381 -89 l 435 -89 q 528 -127 489 -89 q 567 -221 567 -165 l 567 -221 q 528 -315 567 -276 q 435 -353 489 -353 z"},"ì":{"ha":850,"x_min":0,"x_max":0,"o":"m 729 0 l 121 0 l 121 167 l 354 167 l 354 522 l 138 522 l 138 689 l 529 689 l 529 167 l 729 167 l 729 0 z m 481 792 l 339 792 l 222 981 l 408 981 l 481 792 z"},"ỉ":{"ha":850,"x_min":0,"x_max":0,"o":"m 729 0 l 121 0 l 121 167 l 354 167 l 354 522 l 138 522 l 138 689 l 529 689 l 529 167 l 729 167 l 729 0 z m 463 758 l 365 758 l 338 886 l 338 903 l 472 903 q 500 883 478 883 l 500 883 q 521 892 514 883 q 528 914 528 901 l 528 914 q 515 940 528 931 q 481 950 501 950 l 481 950 q 411 931 443 950 l 411 931 l 375 1025 q 426 1045 399 1038 q 492 1053 453 1053 l 492 1053 q 601 1016 557 1053 q 644 914 644 979 l 644 914 q 615 828 644 864 q 529 792 586 792 l 529 792 q 488 801 503 792 q 465 822 472 810 l 465 822 l 449 822 l 463 758 z"},"ī":{"ha":850,"x_min":0,"x_max":0,"o":"m 729 0 l 121 0 l 121 167 l 354 167 l 354 522 l 138 522 l 138 689 l 529 689 l 529 167 l 729 167 l 729 0 z m 538 792 l 129 792 l 129 933 l 538 933 l 538 792 z"},"į":{"ha":850,"x_min":0,"x_max":0,"o":"m 440 761 l 440 761 q 347 799 386 761 q 308 893 308 838 l 308 893 q 347 987 308 949 q 440 1025 386 1025 l 440 1025 q 533 987 494 1025 q 572 893 572 949 l 572 893 q 533 799 572 838 q 440 761 494 761 z m 806 -236 l 694 -236 q 618 -210 653 -236 q 583 -132 583 -183 l 583 -132 q 588 -100 583 -118 l 588 -100 l 610 0 l 121 0 l 121 167 l 354 167 l 354 522 l 138 522 l 138 689 l 529 689 l 529 167 l 729 167 l 729 0 l 711 -78 q 710 -89 710 -85 l 710 -89 q 742 -119 710 -119 l 742 -119 l 806 -119 l 806 -236 z"},"ĩ":{"ha":850,"x_min":0,"x_max":0,"o":"m 729 0 l 121 0 l 121 167 l 354 167 l 354 522 l 138 522 l 138 689 l 529 689 l 529 167 l 729 167 l 729 0 z m 279 815 l 240 765 l 139 847 l 214 942 q 268 988 240 975 q 331 1000 296 1000 l 331 1000 q 422 958 385 1000 l 422 958 q 458 925 443 935 q 488 915 472 915 l 488 915 q 519 926 506 915 q 543 950 532 936 l 543 950 l 583 1000 l 686 921 l 608 824 q 556 779 583 793 q 492 765 528 765 l 492 765 q 440 777 464 765 q 392 815 415 789 l 392 815 q 368 839 382 828 q 336 850 354 850 l 336 850 q 304 840 318 850 q 279 815 290 831 l 279 815 z"},"ĳ":{"ha":850,"x_min":0,"x_max":0,"o":"m 192 761 l 192 761 q 99 799 138 761 q 60 893 60 838 l 60 893 q 99 987 60 949 q 192 1025 138 1025 l 192 1025 q 285 987 246 1025 q 324 893 324 949 l 324 893 q 285 799 324 838 q 192 761 246 761 z m 658 761 l 658 761 q 565 799 604 761 q 526 893 526 838 l 526 893 q 565 987 526 949 q 658 1025 604 1025 l 658 1025 q 751 987 713 1025 q 790 893 790 949 l 790 893 q 751 799 790 838 q 658 761 713 761 z m 639 -278 l 279 -278 l 279 -111 l 533 -111 q 571 -69 571 -111 l 571 -69 l 571 100 l 546 100 q 349 -19 500 -19 l 349 -19 q 225 10 281 -19 q 137 102 169 40 q 104 258 104 164 l 104 258 l 104 689 l 279 689 l 279 294 q 315 181 279 222 q 418 139 350 139 l 418 139 q 534 190 497 139 q 571 328 571 240 l 571 328 l 571 689 l 746 689 l 746 -169 q 716 -247 746 -217 q 639 -278 686 -278 l 639 -278 z"},"j":{"ha":850,"x_min":0,"x_max":0,"o":"m 526 761 l 526 761 q 433 799 472 761 q 394 893 394 838 l 394 893 q 433 987 394 949 q 526 1025 472 1025 l 526 1025 q 619 987 581 1025 q 658 893 658 949 l 658 893 q 619 799 658 838 q 526 761 581 761 z m 476 -278 l 150 -278 l 150 -111 l 400 -111 q 442 -65 442 -111 l 442 -65 l 442 522 l 175 522 l 175 689 l 617 689 l 617 -136 q 578 -243 617 -208 q 476 -278 539 -278 l 476 -278 z"},"ȷ":{"ha":850,"x_min":0,"x_max":0,"o":"m 485 -278 l 158 -278 l 158 -111 l 408 -111 q 450 -65 450 -111 l 450 -65 l 450 522 l 183 522 l 183 689 l 625 689 l 625 -136 q 586 -243 625 -208 q 485 -278 547 -278 l 485 -278 z"},"ĵ":{"ha":850,"x_min":0,"x_max":0,"o":"m 485 -278 l 158 -278 l 158 -111 l 408 -111 q 450 -65 450 -111 l 450 -65 l 450 522 l 183 522 l 183 689 l 625 689 l 625 -136 q 586 -243 625 -208 q 485 -278 547 -278 l 485 -278 z m 343 792 l 175 792 l 292 981 l 531 981 l 647 792 l 479 792 l 419 914 l 403 914 l 343 792 z"},"k":{"ha":850,"x_min":0,"x_max":0,"o":"m 339 0 l 164 0 l 164 972 l 339 972 l 339 436 l 372 436 l 556 689 l 747 689 l 747 681 l 525 365 l 525 340 l 769 8 l 769 0 l 569 0 l 372 269 l 339 269 l 339 0 z"},"ķ":{"ha":850,"x_min":0,"x_max":0,"o":"m 339 0 l 164 0 l 164 972 l 339 972 l 339 436 l 372 436 l 556 689 l 747 689 l 747 681 l 525 365 l 525 340 l 769 8 l 769 0 l 569 0 l 372 269 l 339 269 l 339 0 z m 421 -469 l 338 -469 l 338 -361 l 400 -361 q 438 -319 438 -361 l 438 -319 l 438 -303 l 425 -303 q 340 -267 376 -303 q 304 -182 304 -231 l 304 -182 q 340 -97 304 -133 q 425 -61 376 -61 l 425 -61 q 510 -97 474 -61 q 546 -182 546 -133 l 546 -182 l 546 -344 q 510 -433 546 -397 q 421 -469 474 -469 l 421 -469 z"},"ĸ":{"ha":850,"x_min":0,"x_max":0,"o":"m 339 0 l 164 0 l 164 689 l 339 689 l 339 436 l 372 436 l 556 689 l 747 689 l 747 681 l 525 365 l 525 340 l 769 8 l 769 0 l 569 0 l 372 269 l 339 269 l 339 0 z"},"ʞ":{"ha":850,"x_min":0,"x_max":0,"o":"m 701 -278 l 526 -278 l 526 253 l 493 253 l 318 0 l 126 0 l 126 8 l 338 319 l 338 353 l 106 681 l 106 689 l 306 689 l 490 419 l 526 419 l 526 689 l 701 689 l 701 -278 z"},"l":{"ha":850,"x_min":0,"x_max":0,"o":"m 746 0 l 104 0 l 104 167 l 346 167 l 346 806 l 113 806 l 113 972 l 521 972 l 521 167 l 746 167 l 746 0 z"},"ĺ":{"ha":850,"x_min":0,"x_max":0,"o":"m 746 0 l 104 0 l 104 167 l 346 167 l 346 806 l 113 806 l 113 972 l 521 972 l 521 167 l 746 167 l 746 0 z m 493 1075 l 351 1075 l 424 1264 l 610 1264 l 493 1075 z"},"ľ":{"ha":850,"x_min":0,"x_max":0,"o":"m 746 0 l 104 0 l 104 167 l 346 167 l 346 806 l 113 806 l 113 972 l 521 972 l 521 167 l 746 167 l 746 0 z m 679 564 l 596 564 l 596 672 l 658 672 q 696 714 696 672 l 696 714 l 696 731 l 683 731 q 599 767 635 731 q 563 851 563 803 l 563 851 q 599 936 563 900 q 683 972 635 972 l 683 972 q 768 936 732 972 q 804 851 804 900 l 804 851 l 804 689 q 768 600 804 636 q 679 564 732 564 l 679 564 z"},"ļ":{"ha":850,"x_min":0,"x_max":0,"o":"m 746 0 l 104 0 l 104 167 l 346 167 l 346 806 l 113 806 l 113 972 l 521 972 l 521 167 l 746 167 l 746 0 z m 421 -469 l 338 -469 l 338 -361 l 400 -361 q 438 -319 438 -361 l 438 -319 l 438 -303 l 425 -303 q 340 -267 376 -303 q 304 -182 304 -231 l 304 -182 q 340 -97 304 -133 q 425 -61 376 -61 l 425 -61 q 510 -97 474 -61 q 546 -182 546 -133 l 546 -182 l 546 -344 q 510 -433 546 -397 q 421 -469 474 -469 l 421 -469 z"},"ḷ":{"ha":850,"x_min":0,"x_max":0,"o":"m 746 0 l 104 0 l 104 167 l 346 167 l 346 806 l 113 806 l 113 972 l 521 972 l 521 167 l 746 167 l 746 0 z m 425 -353 l 425 -353 q 332 -315 371 -353 q 293 -221 293 -276 l 293 -221 q 332 -127 293 -165 q 425 -89 371 -89 l 425 -89 q 518 -127 479 -89 q 557 -221 557 -165 l 557 -221 q 518 -315 557 -276 q 425 -353 479 -353 z"},"ḹ":{"ha":850,"x_min":0,"x_max":0,"o":"m 746 0 l 104 0 l 104 167 l 346 167 l 346 806 l 113 806 l 113 972 l 521 972 l 521 167 l 746 167 l 746 0 z m 425 -353 l 425 -353 q 332 -315 371 -353 q 293 -221 293 -276 l 293 -221 q 332 -127 293 -165 q 425 -89 371 -89 l 425 -89 q 518 -127 479 -89 q 557 -221 557 -165 l 557 -221 q 518 -315 557 -276 q 425 -353 479 -353 z m 518 1075 l 110 1075 l 110 1217 l 518 1217 l 518 1075 z"},"ḻ":{"ha":850,"x_min":0,"x_max":0,"o":"m 746 0 l 104 0 l 104 167 l 346 167 l 346 806 l 113 806 l 113 972 l 521 972 l 521 167 l 746 167 l 746 0 z m 629 -228 l 221 -228 l 221 -86 l 629 -86 l 629 -228 z"},"ł":{"ha":850,"x_min":0,"x_max":0,"o":"m 746 0 l 104 0 l 104 167 l 346 167 l 346 326 l 289 299 l 214 447 l 346 514 l 346 806 l 113 806 l 113 972 l 521 972 l 521 601 l 599 642 l 674 493 l 521 415 l 521 167 l 746 167 l 746 0 z"},"m":{"ha":850,"x_min":0,"x_max":0,"o":"m 225 0 l 50 0 l 50 689 l 225 689 l 225 622 l 250 622 q 289 684 258 660 q 367 708 319 708 l 367 708 q 445 684 413 708 q 488 622 478 660 l 488 622 l 513 622 q 560 684 524 660 q 647 708 596 708 l 647 708 q 758 662 717 708 q 800 533 800 615 l 800 533 l 800 0 l 625 0 l 625 483 q 610 527 625 513 q 572 542 596 542 l 572 542 q 529 525 546 542 q 513 475 513 508 l 513 475 l 513 0 l 338 0 l 338 483 q 322 527 338 513 q 283 542 306 542 l 283 542 q 242 525 258 542 q 225 475 225 508 l 225 475 l 225 0 z"},"ṃ":{"ha":850,"x_min":0,"x_max":0,"o":"m 225 0 l 50 0 l 50 689 l 225 689 l 225 622 l 250 622 q 289 684 258 660 q 367 708 319 708 l 367 708 q 445 684 413 708 q 488 622 478 660 l 488 622 l 513 622 q 560 684 524 660 q 647 708 596 708 l 647 708 q 758 662 717 708 q 800 533 800 615 l 800 533 l 800 0 l 625 0 l 625 483 q 610 527 625 513 q 572 542 596 542 l 572 542 q 529 525 546 542 q 513 475 513 508 l 513 475 l 513 0 l 338 0 l 338 483 q 322 527 338 513 q 283 542 306 542 l 283 542 q 242 525 258 542 q 225 475 225 508 l 225 475 l 225 0 z m 425 -353 l 425 -353 q 332 -315 371 -353 q 293 -221 293 -276 l 293 -221 q 332 -127 293 -165 q 425 -89 371 -89 l 425 -89 q 518 -127 479 -89 q 557 -221 557 -165 l 557 -221 q 518 -315 557 -276 q 425 -353 479 -353 z"},"ɯ":{"ha":850,"x_min":0,"x_max":0,"o":"m 625 689 l 800 689 l 800 0 l 625 0 l 625 67 l 600 67 q 562 5 592 29 q 483 -19 532 -19 l 483 -19 q 406 5 438 -19 q 363 67 374 29 l 363 67 l 338 67 q 291 5 326 29 q 203 -19 256 -19 l 203 -19 q 92 28 135 -19 q 50 156 50 75 l 50 156 l 50 689 l 225 689 l 225 206 q 240 162 225 176 q 278 147 256 147 l 278 147 q 322 164 306 147 q 338 214 338 181 l 338 214 l 338 689 l 513 689 l 513 206 q 528 162 513 176 q 567 147 544 147 l 567 147 q 608 164 592 147 q 625 214 625 181 l 625 214 l 625 689 z"},"n":{"ha":850,"x_min":0,"x_max":0,"o":"m 283 0 l 108 0 l 108 689 l 283 689 l 283 586 l 308 586 q 385 676 332 644 q 508 708 438 708 l 508 708 q 630 680 575 708 q 717 591 685 651 q 750 436 750 531 l 750 436 l 750 0 l 575 0 l 575 392 q 540 508 575 465 q 438 550 504 550 l 438 550 q 322 498 361 550 q 283 358 283 446 l 283 358 l 283 0 z"},"ń":{"ha":850,"x_min":0,"x_max":0,"o":"m 283 0 l 108 0 l 108 689 l 283 689 l 283 586 l 308 586 q 385 676 332 644 q 508 708 438 708 l 508 708 q 630 680 575 708 q 717 591 685 651 q 750 436 750 531 l 750 436 l 750 0 l 575 0 l 575 392 q 540 508 575 465 q 438 550 504 550 l 438 550 q 322 498 361 550 q 283 358 283 446 l 283 358 l 283 0 z m 536 792 l 394 792 l 467 981 l 653 981 l 536 792 z"},"ŉ":{"ha":850,"x_min":0,"x_max":0,"o":"m 283 0 l 108 0 l 108 689 l 283 689 l 283 586 l 308 586 q 385 676 332 644 q 508 708 438 708 l 508 708 q 630 680 575 708 q 717 591 685 651 q 750 436 750 531 l 750 436 l 750 0 l 575 0 l 575 392 q 540 508 575 465 q 438 550 504 550 l 438 550 q 322 498 361 550 q 283 358 283 446 l 283 358 l 283 0 z m 399 744 l 315 744 l 315 853 l 378 853 q 415 894 415 853 l 415 894 l 415 911 l 403 911 q 318 947 354 911 q 282 1032 282 983 l 282 1032 q 318 1117 282 1081 q 403 1153 354 1153 l 403 1153 q 488 1117 451 1153 q 524 1032 524 1081 l 524 1032 l 524 869 q 488 781 524 817 q 399 744 451 744 l 399 744 z"},"ň":{"ha":850,"x_min":0,"x_max":0,"o":"m 283 0 l 108 0 l 108 689 l 283 689 l 283 586 l 308 586 q 385 676 332 644 q 508 708 438 708 l 508 708 q 630 680 575 708 q 717 591 685 651 q 750 436 750 531 l 750 436 l 750 0 l 575 0 l 575 392 q 540 508 575 465 q 438 550 504 550 l 438 550 q 322 498 361 550 q 283 358 283 446 l 283 358 l 283 0 z m 588 792 l 349 792 l 232 981 l 400 981 l 460 858 l 476 858 l 536 981 l 704 981 l 588 792 z"},"ņ":{"ha":850,"x_min":0,"x_max":0,"o":"m 283 0 l 108 0 l 108 689 l 283 689 l 283 586 l 308 586 q 385 676 332 644 q 508 708 438 708 l 508 708 q 630 680 575 708 q 717 591 685 651 q 750 436 750 531 l 750 436 l 750 0 l 575 0 l 575 392 q 540 508 575 465 q 438 550 504 550 l 438 550 q 322 498 361 550 q 283 358 283 446 l 283 358 l 283 0 z m 421 -469 l 338 -469 l 338 -361 l 400 -361 q 438 -319 438 -361 l 438 -319 l 438 -303 l 425 -303 q 340 -267 376 -303 q 304 -182 304 -231 l 304 -182 q 340 -97 304 -133 q 425 -61 376 -61 l 425 -61 q 510 -97 474 -61 q 546 -182 546 -133 l 546 -182 l 546 -344 q 510 -433 546 -397 q 421 -469 474 -469 l 421 -469 z"},"ṅ":{"ha":850,"x_min":0,"x_max":0,"o":"m 283 0 l 108 0 l 108 689 l 283 689 l 283 586 l 308 586 q 385 676 332 644 q 508 708 438 708 l 508 708 q 630 680 575 708 q 717 591 685 651 q 750 436 750 531 l 750 436 l 750 0 l 575 0 l 575 392 q 540 508 575 465 q 438 550 504 550 l 438 550 q 322 498 361 550 q 283 358 283 446 l 283 358 l 283 0 z m 468 782 l 468 782 q 375 820 414 782 q 336 914 336 858 l 336 914 q 375 1008 336 969 q 468 1046 414 1046 l 468 1046 q 561 1008 522 1046 q 600 914 600 969 l 600 914 q 561 820 600 858 q 468 782 522 782 z"},"ṇ":{"ha":850,"x_min":0,"x_max":0,"o":"m 283 0 l 108 0 l 108 689 l 283 689 l 283 586 l 308 586 q 385 676 332 644 q 508 708 438 708 l 508 708 q 630 680 575 708 q 717 591 685 651 q 750 436 750 531 l 750 436 l 750 0 l 575 0 l 575 392 q 540 508 575 465 q 438 550 504 550 l 438 550 q 322 498 361 550 q 283 358 283 446 l 283 358 l 283 0 z m 425 -353 l 425 -353 q 332 -315 371 -353 q 293 -221 293 -276 l 293 -221 q 332 -127 293 -165 q 425 -89 371 -89 l 425 -89 q 518 -127 479 -89 q 557 -221 557 -165 l 557 -221 q 518 -315 557 -276 q 425 -353 479 -353 z"},"ṉ":{"ha":850,"x_min":0,"x_max":0,"o":"m 283 0 l 108 0 l 108 689 l 283 689 l 283 586 l 308 586 q 385 676 332 644 q 508 708 438 708 l 508 708 q 630 680 575 708 q 717 591 685 651 q 750 436 750 531 l 750 436 l 750 0 l 575 0 l 575 392 q 540 508 575 465 q 438 550 504 550 l 438 550 q 322 498 361 550 q 283 358 283 446 l 283 358 l 283 0 z m 629 -228 l 221 -228 l 221 -86 l 629 -86 l 629 -228 z"},"ñ":{"ha":850,"x_min":0,"x_max":0,"o":"m 283 0 l 108 0 l 108 689 l 283 689 l 283 586 l 308 586 q 385 676 332 644 q 508 708 438 708 l 508 708 q 630 680 575 708 q 717 591 685 651 q 750 436 750 531 l 750 436 l 750 0 l 575 0 l 575 392 q 540 508 575 465 q 438 550 504 550 l 438 550 q 322 498 361 550 q 283 358 283 446 l 283 358 l 283 0 z m 336 815 l 297 765 l 196 847 l 271 942 q 325 988 297 975 q 388 1000 353 1000 l 388 1000 q 479 958 442 1000 l 479 958 q 515 925 500 935 q 544 915 529 915 l 544 915 q 576 926 563 915 q 600 950 589 936 l 600 950 l 640 1000 l 743 921 l 665 824 q 613 779 640 793 q 549 765 585 765 l 549 765 q 497 777 521 765 q 449 815 472 789 l 449 815 q 425 839 439 828 q 393 850 411 850 l 393 850 q 361 840 375 850 q 336 815 347 831 l 336 815 z"},"ŋ":{"ha":850,"x_min":0,"x_max":0,"o":"m 606 -278 l 433 -278 l 433 -111 l 529 -111 q 571 -65 571 -111 l 571 -65 l 571 392 q 535 508 571 465 q 433 550 500 550 l 433 550 q 318 498 357 550 q 279 358 279 446 l 279 358 l 279 0 l 104 0 l 104 689 l 279 689 l 279 586 l 304 586 q 381 676 328 644 q 504 708 433 708 l 504 708 q 626 680 571 708 q 713 591 681 651 q 746 436 746 531 l 746 436 l 746 -136 q 707 -243 746 -208 q 606 -278 668 -278 l 606 -278 z"},"o":{"ha":850,"x_min":0,"x_max":0,"o":"m 425 -19 l 425 -19 q 249 22 331 -19 q 117 143 167 64 q 67 336 67 222 l 67 336 l 67 353 q 117 545 67 465 q 249 667 167 625 q 425 708 331 708 l 425 708 q 601 667 519 708 q 733 545 683 625 q 783 353 783 465 l 783 353 l 783 336 q 733 143 783 222 q 601 22 683 64 q 425 -19 519 -19 z m 425 147 l 425 147 q 555 197 501 147 q 608 331 608 246 l 608 331 l 608 358 q 555 493 608 444 q 425 542 501 542 l 425 542 q 295 493 349 542 q 242 358 242 444 l 242 358 l 242 331 q 295 197 242 246 q 425 147 349 147 z"},"ó":{"ha":850,"x_min":0,"x_max":0,"o":"m 425 -19 l 425 -19 q 249 22 331 -19 q 117 143 167 64 q 67 336 67 222 l 67 336 l 67 353 q 117 545 67 465 q 249 667 167 625 q 425 708 331 708 l 425 708 q 601 667 519 708 q 733 545 683 625 q 783 353 783 465 l 783 353 l 783 336 q 733 143 783 222 q 601 22 683 64 q 425 -19 519 -19 z m 425 147 l 425 147 q 555 197 501 147 q 608 331 608 246 l 608 331 l 608 358 q 555 493 608 444 q 425 542 501 542 l 425 542 q 295 493 349 542 q 242 358 242 444 l 242 358 l 242 331 q 295 197 242 246 q 425 147 349 147 z m 493 792 l 351 792 l 424 981 l 610 981 l 493 792 z"},"ŏ":{"ha":850,"x_min":0,"x_max":0,"o":"m 425 -19 l 425 -19 q 249 22 331 -19 q 117 143 167 64 q 67 336 67 222 l 67 336 l 67 353 q 117 545 67 465 q 249 667 167 625 q 425 708 331 708 l 425 708 q 601 667 519 708 q 733 545 683 625 q 783 353 783 465 l 783 353 l 783 336 q 733 143 783 222 q 601 22 683 64 q 425 -19 519 -19 z m 425 147 l 425 147 q 555 197 501 147 q 608 331 608 246 l 608 331 l 608 358 q 555 493 608 444 q 425 542 501 542 l 425 542 q 295 493 349 542 q 242 358 242 444 l 242 358 l 242 331 q 295 197 242 246 q 425 147 349 147 z m 425 790 l 425 790 q 293 835 344 790 q 242 960 242 881 l 242 960 l 242 979 l 367 979 l 367 971 q 381 929 367 946 q 425 913 396 913 l 425 913 q 469 929 454 913 q 483 971 483 946 l 483 971 l 483 979 l 608 979 l 608 960 q 558 835 608 881 q 425 790 507 790 z"},"ǒ":{"ha":850,"x_min":0,"x_max":0,"o":"m 425 -19 l 425 -19 q 249 22 331 -19 q 117 143 167 64 q 67 336 67 222 l 67 336 l 67 353 q 117 545 67 465 q 249 667 167 625 q 425 708 331 708 l 425 708 q 601 667 519 708 q 733 545 683 625 q 783 353 783 465 l 783 353 l 783 336 q 733 143 783 222 q 601 22 683 64 q 425 -19 519 -19 z m 425 147 l 425 147 q 555 197 501 147 q 608 331 608 246 l 608 331 l 608 358 q 555 493 608 444 q 425 542 501 542 l 425 542 q 295 493 349 542 q 242 358 242 444 l 242 358 l 242 331 q 295 197 242 246 q 425 147 349 147 z m 544 792 l 306 792 l 189 981 l 357 981 l 417 858 l 433 858 l 493 981 l 661 981 l 544 792 z"},"ô":{"ha":850,"x_min":0,"x_max":0,"o":"m 425 -19 l 425 -19 q 249 22 331 -19 q 117 143 167 64 q 67 336 67 222 l 67 336 l 67 353 q 117 545 67 465 q 249 667 167 625 q 425 708 331 708 l 425 708 q 601 667 519 708 q 733 545 683 625 q 783 353 783 465 l 783 353 l 783 336 q 733 143 783 222 q 601 22 683 64 q 425 -19 519 -19 z m 425 147 l 425 147 q 555 197 501 147 q 608 331 608 246 l 608 331 l 608 358 q 555 493 608 444 q 425 542 501 542 l 425 542 q 295 493 349 542 q 242 358 242 444 l 242 358 l 242 331 q 295 197 242 246 q 425 147 349 147 z m 357 792 l 189 792 l 306 981 l 544 981 l 661 792 l 493 792 l 433 914 l 417 914 l 357 792 z"},"ố":{"ha":850,"x_min":0,"x_max":0,"o":"m 425 -19 l 425 -19 q 249 22 331 -19 q 117 143 167 64 q 67 336 67 222 l 67 336 l 67 353 q 117 545 67 465 q 249 667 167 625 q 425 708 331 708 l 425 708 q 601 667 519 708 q 733 545 683 625 q 783 353 783 465 l 783 353 l 783 336 q 733 143 783 222 q 601 22 683 64 q 425 -19 519 -19 z m 425 147 l 425 147 q 555 197 501 147 q 608 331 608 246 l 608 331 l 608 358 q 555 493 608 444 q 425 542 501 542 l 425 542 q 295 493 349 542 q 242 358 242 444 l 242 358 l 242 331 q 295 197 242 246 q 425 147 349 147 z m 357 792 l 189 792 l 306 981 l 544 981 l 661 792 l 493 792 l 433 914 l 417 914 l 357 792 z m 749 914 l 607 914 l 679 1103 l 865 1103 l 749 914 z"},"ộ":{"ha":850,"x_min":0,"x_max":0,"o":"m 425 -19 l 425 -19 q 249 22 331 -19 q 117 143 167 64 q 67 336 67 222 l 67 336 l 67 353 q 117 545 67 465 q 249 667 167 625 q 425 708 331 708 l 425 708 q 601 667 519 708 q 733 545 683 625 q 783 353 783 465 l 783 353 l 783 336 q 733 143 783 222 q 601 22 683 64 q 425 -19 519 -19 z m 425 147 l 425 147 q 555 197 501 147 q 608 331 608 246 l 608 331 l 608 358 q 555 493 608 444 q 425 542 501 542 l 425 542 q 295 493 349 542 q 242 358 242 444 l 242 358 l 242 331 q 295 197 242 246 q 425 147 349 147 z m 425 -353 l 425 -353 q 332 -315 371 -353 q 293 -221 293 -276 l 293 -221 q 332 -127 293 -165 q 425 -89 371 -89 l 425 -89 q 518 -127 479 -89 q 557 -221 557 -165 l 557 -221 q 518 -315 557 -276 q 425 -353 479 -353 z m 357 792 l 189 792 l 306 981 l 544 981 l 661 792 l 493 792 l 433 914 l 417 914 l 357 792 z"},"ồ":{"ha":850,"x_min":0,"x_max":0,"o":"m 425 -19 l 425 -19 q 249 22 331 -19 q 117 143 167 64 q 67 336 67 222 l 67 336 l 67 353 q 117 545 67 465 q 249 667 167 625 q 425 708 331 708 l 425 708 q 601 667 519 708 q 733 545 683 625 q 783 353 783 465 l 783 353 l 783 336 q 733 143 783 222 q 601 22 683 64 q 425 -19 519 -19 z m 425 147 l 425 147 q 555 197 501 147 q 608 331 608 246 l 608 331 l 608 358 q 555 493 608 444 q 425 542 501 542 l 425 542 q 295 493 349 542 q 242 358 242 444 l 242 358 l 242 331 q 295 197 242 246 q 425 147 349 147 z m 357 792 l 189 792 l 306 981 l 544 981 l 661 792 l 493 792 l 433 914 l 417 914 l 357 792 z m 221 914 l 79 914 l -37 1103 l 149 1103 l 221 914 z"},"ổ":{"ha":850,"x_min":0,"x_max":0,"o":"m 425 -19 l 425 -19 q 249 22 331 -19 q 117 143 167 64 q 67 336 67 222 l 67 336 l 67 353 q 117 545 67 465 q 249 667 167 625 q 425 708 331 708 l 425 708 q 601 667 519 708 q 733 545 683 625 q 783 353 783 465 l 783 353 l 783 336 q 733 143 783 222 q 601 22 683 64 q 425 -19 519 -19 z m 425 147 l 425 147 q 555 197 501 147 q 608 331 608 246 l 608 331 l 608 358 q 555 493 608 444 q 425 542 501 542 l 425 542 q 295 493 349 542 q 242 358 242 444 l 242 358 l 242 331 q 295 197 242 246 q 425 147 349 147 z m 357 792 l 189 792 l 306 981 l 544 981 l 661 792 l 493 792 l 433 914 l 417 914 l 357 792 z m 731 914 l 633 914 l 606 1042 l 606 1058 l 740 1058 q 768 1039 746 1039 l 768 1039 q 789 1048 782 1039 q 796 1069 796 1057 l 796 1069 q 783 1096 796 1086 q 749 1106 769 1106 l 749 1106 q 679 1086 711 1106 l 679 1086 l 643 1181 q 694 1201 667 1193 q 760 1208 721 1208 l 760 1208 q 869 1172 825 1208 q 913 1069 913 1135 l 913 1069 q 883 983 913 1019 q 797 947 854 947 l 797 947 q 756 956 771 947 q 733 978 740 965 l 733 978 l 717 978 l 731 914 z"},"ỗ":{"ha":850,"x_min":0,"x_max":0,"o":"m 425 -19 l 425 -19 q 249 22 331 -19 q 117 143 167 64 q 67 336 67 222 l 67 336 l 67 353 q 117 545 67 465 q 249 667 167 625 q 425 708 331 708 l 425 708 q 601 667 519 708 q 733 545 683 625 q 783 353 783 465 l 783 353 l 783 336 q 733 143 783 222 q 601 22 683 64 q 425 -19 519 -19 z m 425 147 l 425 147 q 555 197 501 147 q 608 331 608 246 l 608 331 l 608 358 q 555 493 608 444 q 425 542 501 542 l 425 542 q 295 493 349 542 q 242 358 242 444 l 242 358 l 242 331 q 295 197 242 246 q 425 147 349 147 z m 357 792 l 189 792 l 306 981 l 544 981 l 661 792 l 493 792 l 433 914 l 417 914 l 357 792 z m 293 1078 l 254 1028 l 153 1110 l 228 1204 q 282 1250 254 1238 q 344 1263 310 1263 l 344 1263 q 436 1221 399 1263 l 436 1221 q 472 1188 457 1197 q 501 1178 486 1178 l 501 1178 q 533 1188 519 1178 q 557 1213 546 1199 l 557 1213 l 597 1263 l 700 1183 l 622 1086 q 569 1042 597 1056 q 506 1028 542 1028 l 506 1028 q 453 1040 478 1028 q 406 1078 429 1051 l 406 1078 q 382 1101 396 1090 q 350 1113 368 1113 l 350 1113 q 318 1103 332 1113 q 293 1078 304 1093 l 293 1078 z"},"ö":{"ha":850,"x_min":0,"x_max":0,"o":"m 425 -19 l 425 -19 q 249 22 331 -19 q 117 143 167 64 q 67 336 67 222 l 67 336 l 67 353 q 117 545 67 465 q 249 667 167 625 q 425 708 331 708 l 425 708 q 601 667 519 708 q 733 545 683 625 q 783 353 783 465 l 783 353 l 783 336 q 733 143 783 222 q 601 22 683 64 q 425 -19 519 -19 z m 425 147 l 425 147 q 555 197 501 147 q 608 331 608 246 l 608 331 l 608 358 q 555 493 608 444 q 425 542 501 542 l 425 542 q 295 493 349 542 q 242 358 242 444 l 242 358 l 242 331 q 295 197 242 246 q 425 147 349 147 z m 590 751 l 590 751 q 497 790 536 751 q 458 883 458 828 l 458 883 q 497 977 458 939 q 590 1015 536 1015 l 590 1015 q 683 977 644 1015 q 722 883 722 939 l 722 883 q 683 790 722 828 q 590 751 644 751 z m 260 751 l 260 751 q 167 790 206 751 q 128 883 128 828 l 128 883 q 167 977 128 939 q 260 1015 206 1015 l 260 1015 q 353 977 314 1015 q 392 883 392 939 l 392 883 q 353 790 392 828 q 260 751 314 751 z"},"ọ":{"ha":850,"x_min":0,"x_max":0,"o":"m 425 -19 l 425 -19 q 249 22 331 -19 q 117 143 167 64 q 67 336 67 222 l 67 336 l 67 353 q 117 545 67 465 q 249 667 167 625 q 425 708 331 708 l 425 708 q 601 667 519 708 q 733 545 683 625 q 783 353 783 465 l 783 353 l 783 336 q 733 143 783 222 q 601 22 683 64 q 425 -19 519 -19 z m 425 147 l 425 147 q 555 197 501 147 q 608 331 608 246 l 608 331 l 608 358 q 555 493 608 444 q 425 542 501 542 l 425 542 q 295 493 349 542 q 242 358 242 444 l 242 358 l 242 331 q 295 197 242 246 q 425 147 349 147 z m 425 -353 l 425 -353 q 332 -315 371 -353 q 293 -221 293 -276 l 293 -221 q 332 -127 293 -165 q 425 -89 371 -89 l 425 -89 q 518 -127 479 -89 q 557 -221 557 -165 l 557 -221 q 518 -315 557 -276 q 425 -353 479 -353 z"},"ò":{"ha":850,"x_min":0,"x_max":0,"o":"m 425 -19 l 425 -19 q 249 22 331 -19 q 117 143 167 64 q 67 336 67 222 l 67 336 l 67 353 q 117 545 67 465 q 249 667 167 625 q 425 708 331 708 l 425 708 q 601 667 519 708 q 733 545 683 625 q 783 353 783 465 l 783 353 l 783 336 q 733 143 783 222 q 601 22 683 64 q 425 -19 519 -19 z m 425 147 l 425 147 q 555 197 501 147 q 608 331 608 246 l 608 331 l 608 358 q 555 493 608 444 q 425 542 501 542 l 425 542 q 295 493 349 542 q 242 358 242 444 l 242 358 l 242 331 q 295 197 242 246 q 425 147 349 147 z m 494 792 l 353 792 l 236 981 l 422 981 l 494 792 z"},"ỏ":{"ha":850,"x_min":0,"x_max":0,"o":"m 425 -19 l 425 -19 q 249 22 331 -19 q 117 143 167 64 q 67 336 67 222 l 67 336 l 67 353 q 117 545 67 465 q 249 667 167 625 q 425 708 331 708 l 425 708 q 601 667 519 708 q 733 545 683 625 q 783 353 783 465 l 783 353 l 783 336 q 733 143 783 222 q 601 22 683 64 q 425 -19 519 -19 z m 425 147 l 425 147 q 555 197 501 147 q 608 331 608 246 l 608 331 l 608 358 q 555 493 608 444 q 425 542 501 542 l 425 542 q 295 493 349 542 q 242 358 242 444 l 242 358 l 242 331 q 295 197 242 246 q 425 147 349 147 z m 476 758 l 379 758 l 351 886 l 351 903 l 486 903 q 514 883 492 883 l 514 883 q 535 892 528 883 q 542 914 542 901 l 542 914 q 528 940 542 931 q 494 950 515 950 l 494 950 q 425 931 457 950 l 425 931 l 389 1025 q 440 1045 413 1038 q 506 1053 467 1053 l 506 1053 q 615 1016 571 1053 q 658 914 658 979 l 658 914 q 629 828 658 864 q 543 792 600 792 l 543 792 q 501 801 517 792 q 479 822 486 810 l 479 822 l 463 822 l 476 758 z"},"ơ":{"ha":850,"x_min":0,"x_max":0,"o":"m 307 -19 l 307 -19 q 101 74 174 -19 q 28 336 28 168 l 28 336 l 28 353 q 101 614 28 519 q 307 708 175 708 l 307 708 q 503 624 431 708 q 585 392 576 540 l 585 392 l 686 392 q 724 433 724 392 l 724 433 l 724 447 l 711 447 q 626 483 663 447 q 590 568 590 519 l 590 568 q 626 653 590 617 q 711 689 663 689 l 711 689 q 796 653 760 689 q 832 568 832 617 l 832 568 l 832 408 q 796 319 832 356 q 707 283 760 283 l 707 283 l 585 283 q 501 60 574 139 q 307 -19 429 -19 z m 307 147 l 307 147 q 383 188 354 147 q 411 319 411 228 l 411 319 l 411 369 q 383 501 411 461 q 307 542 354 542 l 307 542 q 231 501 260 542 q 203 369 203 461 l 203 369 l 203 319 q 231 188 203 228 q 307 147 260 147 z"},"ớ":{"ha":850,"x_min":0,"x_max":0,"o":"m 307 -19 l 307 -19 q 101 74 174 -19 q 28 336 28 168 l 28 336 l 28 353 q 101 614 28 519 q 307 708 175 708 l 307 708 q 503 624 431 708 q 585 392 576 540 l 585 392 l 686 392 q 724 433 724 392 l 724 433 l 724 447 l 711 447 q 626 483 663 447 q 590 568 590 519 l 590 568 q 626 653 590 617 q 711 689 663 689 l 711 689 q 796 653 760 689 q 832 568 832 617 l 832 568 l 832 408 q 796 319 832 356 q 707 283 760 283 l 707 283 l 585 283 q 501 60 574 139 q 307 -19 429 -19 z m 307 147 l 307 147 q 383 188 354 147 q 411 319 411 228 l 411 319 l 411 369 q 383 501 411 461 q 307 542 354 542 l 307 542 q 231 501 260 542 q 203 369 203 461 l 203 369 l 203 319 q 231 188 203 228 q 307 147 260 147 z m 379 792 l 238 792 l 310 981 l 496 981 l 379 792 z"},"ợ":{"ha":850,"x_min":0,"x_max":0,"o":"m 307 -19 l 307 -19 q 101 74 174 -19 q 28 336 28 168 l 28 336 l 28 353 q 101 614 28 519 q 307 708 175 708 l 307 708 q 503 624 431 708 q 585 392 576 540 l 585 392 l 686 392 q 724 433 724 392 l 724 433 l 724 447 l 711 447 q 626 483 663 447 q 590 568 590 519 l 590 568 q 626 653 590 617 q 711 689 663 689 l 711 689 q 796 653 760 689 q 832 568 832 617 l 832 568 l 832 408 q 796 319 832 356 q 707 283 760 283 l 707 283 l 585 283 q 501 60 574 139 q 307 -19 429 -19 z m 307 147 l 307 147 q 383 188 354 147 q 411 319 411 228 l 411 319 l 411 369 q 383 501 411 461 q 307 542 354 542 l 307 542 q 231 501 260 542 q 203 369 203 461 l 203 369 l 203 319 q 231 188 203 228 q 307 147 260 147 z m 310 -353 l 310 -353 q 217 -315 256 -353 q 178 -221 178 -276 l 178 -221 q 217 -127 178 -165 q 310 -89 256 -89 l 310 -89 q 403 -127 364 -89 q 442 -221 442 -165 l 442 -221 q 403 -315 442 -276 q 310 -353 364 -353 z"},"ờ":{"ha":850,"x_min":0,"x_max":0,"o":"m 307 -19 l 307 -19 q 101 74 174 -19 q 28 336 28 168 l 28 336 l 28 353 q 101 614 28 519 q 307 708 175 708 l 307 708 q 503 624 431 708 q 585 392 576 540 l 585 392 l 686 392 q 724 433 724 392 l 724 433 l 724 447 l 711 447 q 626 483 663 447 q 590 568 590 519 l 590 568 q 626 653 590 617 q 711 689 663 689 l 711 689 q 796 653 760 689 q 832 568 832 617 l 832 568 l 832 408 q 796 319 832 356 q 707 283 760 283 l 707 283 l 585 283 q 501 60 574 139 q 307 -19 429 -19 z m 307 147 l 307 147 q 383 188 354 147 q 411 319 411 228 l 411 319 l 411 369 q 383 501 411 461 q 307 542 354 542 l 307 542 q 231 501 260 542 q 203 369 203 461 l 203 369 l 203 319 q 231 188 203 228 q 307 147 260 147 z m 381 792 l 239 792 l 122 981 l 308 981 l 381 792 z"}}}
